<svg width="128" height="128" viewBox="0 0 128 128" fill="none" xmlns="http://www.w3.org/2000/svg">
<g clip-path="url(#clip0_1002_40)">
<path d="M0 32C0 14.3269 14.3269 0 32 0H96C113.673 0 128 14.3269 128 32V96C128 113.673 113.673 128 96 128H32C14.3269 128 0 113.673 0 96V32Z" fill="black"/>
<path d="M62.2797 27.9383V27.4383H61.7797H53.396L64.0965 16.7185L74.7971 27.4383H66.4134H65.9134V27.9383V55.169L64.0965 56.9859L62.2797 55.169V27.9383ZM27.4062 61.6831V62.1831H27.9062H55.287L57.1038 64L55.287 65.8169H27.9062H27.4062V66.3169V74.719L16.7065 64L27.4062 53.281V61.6831ZM100.094 62.1831H100.594V61.6831V53.2811L111.294 64L100.594 74.719V66.3169V65.8169H100.094H72.9061L71.0892 64L72.9061 62.1831H100.094ZM37.356 39.7916L37.0068 39.4417L36.6529 39.7869L30.5299 45.7591V30.5621H45.8588L39.9301 36.5096L39.5781 36.8627L39.9303 37.2157L59.1559 56.4839V59.0593H56.5811L37.356 39.7916ZM71.612 59.0593H69.0372V56.4839L88.2628 37.2157L88.615 36.8627L88.2629 36.5096L82.3342 30.5621H97.4701V45.7354L91.5452 39.7918L91.1912 39.4367L90.8371 39.7916L71.612 59.0593ZM69.0372 71.5161V68.9407H71.612L90.8371 88.2084L91.1912 88.5633L91.5452 88.2082L97.4701 82.2646V97.4379H82.3342L88.2629 91.4904L88.615 91.1373L88.2628 90.7843L69.0372 71.5161ZM65.9134 100.062V100.562H66.4134H74.7971L64.0965 111.282L53.396 100.562H61.7797H62.2797V100.062V72.831L64.0965 71.0142L65.9134 72.831V100.062ZM39.9303 90.7843L39.5781 91.1373L39.9301 91.4904L45.8588 97.4379H30.5299V82.2409L36.6529 88.2131L37.0068 88.5583L37.356 88.2084L56.5811 68.9407H59.1559V71.5161L39.9303 90.7843ZM69.0372 30.5621H77.9189L84.1994 36.8625L69.0372 52.0644V30.5621ZM50.2742 30.5621H59.1559V52.0644L43.9937 36.8625L50.2742 30.5621ZM97.4701 50.1553V59.0593H76.0277L91.191 43.8563L97.4701 50.1553ZM43.9937 91.159L59.1559 75.9571V97.4593H50.2742L43.9937 91.159ZM52.1654 59.0593H30.5299V50.1594L36.9972 43.8513L52.1654 59.0593ZM91.191 84.1437L76.0277 68.9407H97.4701V77.8448L91.191 84.1437ZM69.0372 97.4164V75.9356L84.1988 91.137L77.9194 97.4164H69.0372ZM52.1654 68.9407L36.9972 84.1487L30.5299 77.8406V68.9407H52.1654Z" fill="black" stroke="white"/>
</g>
<defs>
<clipPath id="clip0_1002_40">
<path d="M0 64C0 28.6538 28.6538 0 64 0V0C99.3462 0 128 28.6538 128 64V64C128 99.3462 99.3462 128 64 128V128C28.6538 128 0 99.3462 0 64V64Z" fill="white"/>
</clipPath>
</defs>
</svg>
