<svg width="140" height="35" viewBox="0 0 140 35" fill="none" xmlns="http://www.w3.org/2000/svg">
<g clip-path="url(#clip0_1001_21)">
<path fill-rule="evenodd" clip-rule="evenodd" d="M36.8496 0C37.8455 1.99187 38.1301 4.41057 39.6951 6.11789C41.687 8.67886 44.8171 9.6748 47.9472 10.1016C41.8293 12.8049 35 6.26016 36.8496 0Z" fill="#FF2E2E"/>
<path fill-rule="evenodd" clip-rule="evenodd" d="M33.4349 0.853516C33.7195 7.82506 39.9796 13.9429 47.0935 13.8007C42.9675 15.9348 37.5609 13.8007 35 10.2438C33.1504 7.54051 32.0122 3.84132 33.4349 0.853516Z" fill="#FF2E2E"/>
<path d="M52.5 33.1502L56.7683 17.073H59.6138L58.9024 20.0608C60.752 17.7844 62.8862 16.5039 65.0203 16.5039C65.7317 16.5039 66.1585 16.5039 66.5854 16.6462L65.7317 20.0608C65.0203 19.9185 64.3089 19.7763 63.7398 19.7763C62.3171 19.7763 61.0366 20.2031 59.8984 21.0568C58.7602 22.0527 57.9065 23.3332 57.4797 25.0405L55.3455 33.1502H52.5Z" fill="#FF2E2E"/>
<path d="M40.9758 24.0438L50.3661 17.0723H54.7767L46.0978 23.1902L51.0775 33.1495H47.236L43.2523 25.182L39.9799 27.4584L38.5571 33.1495H35.5693L39.8376 17.2145H42.6832L40.9758 24.0438Z" fill="#FF2E2E"/>
<path d="M29.0244 33.1495L33.2927 17.0723H36.1382L31.8699 33.1495H29.0244Z" fill="#FF2E2E"/>
<path d="M13.5163 29.4516L26.6057 11.2402H30.7317L25.0407 33.1508H21.9106L26.748 15.0817L13.8008 33.1508H11.0976L7.8252 15.3663L3.13008 33.1508H0L5.83333 11.2402H10.1016L13.5163 29.4516Z" fill="#FF2E2E"/>
<path fill-rule="evenodd" clip-rule="evenodd" d="M83.9429 16.7895H106.849L108.13 10.5293H85.2234L83.9429 16.7895Z" fill="#FF2E2E"/>
<path fill-rule="evenodd" clip-rule="evenodd" d="M90.2033 19.918H98.3131L95.183 33.1497H87.0732L90.2033 19.918Z" fill="#FF2E2E"/>
<path fill-rule="evenodd" clip-rule="evenodd" d="M110.264 10.5293H117.662L116.24 16.9317H108.841L110.264 10.5293Z" fill="#FF2E2E"/>
<path fill-rule="evenodd" clip-rule="evenodd" d="M108.414 19.918H115.528L112.398 33.292H105.142L108.414 19.918Z" fill="#FF2E2E"/>
<path fill-rule="evenodd" clip-rule="evenodd" d="M115.955 33.2935H123.638L129.045 10.5293H121.219L115.955 33.2935Z" fill="#FF2E2E"/>
<path fill-rule="evenodd" clip-rule="evenodd" d="M127.764 33.1502H136.016L132.175 22.9062H123.923L127.764 33.1502Z" fill="#FF2E2E"/>
<path fill-rule="evenodd" clip-rule="evenodd" d="M131.463 16.9316H140L125.915 28.456H117.378L131.463 16.9316Z" fill="#FF2E2E"/>
<path d="M64.8781 25.0412C65.3049 22.4803 66.4432 20.3461 68.2928 18.6388C70.2846 16.7892 72.9879 15.9355 76.118 15.9355C79.248 15.9355 81.5245 16.7892 83.0895 18.6388C84.37 20.3461 84.9391 22.4803 84.5123 25.0412C84.0854 27.6022 82.9472 29.7364 81.0976 31.4437C78.9635 33.2933 76.4025 34.1469 73.2724 34.1469C70.1423 34.1469 67.8659 33.2933 66.3009 31.4437C64.8781 29.7364 64.4513 27.6022 64.8781 25.0412ZM80.9554 25.0412C81.2399 23.3339 80.9554 21.9112 80.244 20.7729C79.3903 19.4925 77.8253 18.7811 75.6911 18.7811C73.557 18.7811 71.7074 19.4925 70.4269 20.7729C69.2887 21.9112 68.5773 23.3339 68.2928 25.0412C68.0082 26.7486 68.2928 28.1713 69.0041 29.3095C69.8578 30.59 71.4228 31.3014 73.557 31.3014C75.6911 31.3014 77.5407 30.59 78.8212 29.3095C79.9594 28.1713 80.6708 26.7486 80.9554 25.0412Z" fill="#FF2E2E"/>
</g>
<defs>
<clipPath id="clip0_1001_21">
<rect width="140" height="35" fill="white"/>
</clipPath>
</defs>
</svg>
