<svg width="110" height="128" viewBox="0 0 110 128" fill="none" xmlns="http://www.w3.org/2000/svg">
<path d="M72.406 125.395C33.6607 127.019 0.21175 93.0363 3.7275 54.0105C6.74975 20.4645 42.2577 -6.11699 74.9967 5.16026C102.217 14.5363 117.274 50.9303 97.5185 74.2188C89.6912 83.4453 77.4745 88.7405 65.3385 87.4443C49.5888 85.7623 36.9063 71.47 38.068 55.4258C38.8565 44.5358 46.929 35.1058 57.7295 33.0138C63.9055 31.8175 73.54 33.0918 77.0035 39.0455C78.5017 41.621 77.3615 44.9175 73.9125 44.4063C72.6165 44.214 71.3377 42.536 70.2635 41.9508C67.8482 40.6353 65.0468 39.8868 62.4915 40.0515C53.6008 40.6243 47.5768 48.3365 47.4473 56.5558C48.2413 75.9813 70.4065 81.0673 83.5407 70.3788C95.235 60.8625 95.1985 44.2013 86.9675 32.5073C76.3332 17.3975 56.5575 15.3853 40.9895 23.3735C23.99 32.0965 15.8655 50.7645 18.3625 69.0025C20.7567 86.4865 31.4385 101.966 46.7085 110.723C52.6468 114.129 59.125 116.42 65.8552 117.626C67.8782 117.989 72.1697 117.673 73.908 118.837C76.6537 120.677 76.1097 125.255 72.406 125.395Z" fill="#EA348B"/>
<path d="M69.756 128C51.2225 128 33.213 120.18 19.9738 106.291C6.31925 91.9652 -0.52825 72.8263 1.1875 53.7817C2.781 36.0947 13.1105 19.4628 28.8192 9.29125C43.3847 -0.139498 60.5183 -2.5245 75.827 2.74875C90.8983 7.94 102.994 21.1275 107.394 37.165C111.262 51.261 108.371 65.3678 99.4632 75.8685C91.799 84.9032 80.3843 90.1852 68.9498 90.186C67.6538 90.186 66.359 90.1182 65.0677 89.9805C56.742 89.0915 49.0575 85.0095 43.4305 78.487C37.7255 71.8742 34.918 63.619 35.5245 55.242C35.9475 49.399 38.326 43.7185 42.2215 39.246C46.1575 34.727 51.493 31.6248 57.245 30.5105C63.4105 29.316 74.8255 30.2292 79.2083 37.7637C80.5248 40.0262 80.5295 42.7362 79.2207 44.6675C78.0057 46.4597 75.9345 47.2842 73.539 46.9292C71.9983 46.7007 70.83 45.6873 69.8917 44.873C69.6197 44.6368 69.2085 44.2803 69.0445 44.1908C66.9518 43.051 64.6227 42.47 62.6562 42.5967C54.8917 43.0967 50.1352 50.058 49.9992 56.5252C50.3087 63.5527 53.7715 68.9052 59.7548 71.602C66.778 74.7672 75.69 73.4805 81.9317 68.401C93.1572 59.266 91.8303 43.8462 84.883 33.9755C74.6115 19.382 55.6127 18.7375 42.154 25.643C26.9785 33.4298 18.4328 50.7155 20.8895 68.6568C23.1523 85.183 33.2788 100.082 47.9775 108.511C53.5645 111.715 59.731 113.937 66.3057 115.116C66.8135 115.207 67.6593 115.25 68.5543 115.294C70.9083 115.412 73.5765 115.546 75.3275 116.718C77.6167 118.252 78.6965 121.154 77.9532 123.775C77.2532 126.245 75.1655 127.841 72.505 127.942C71.5875 127.981 70.6712 128 69.756 128ZM59.3165 5.103C49.842 5.103 40.232 7.97825 31.5918 13.573C17.1885 22.899 7.7215 38.1015 6.2675 54.2395C4.68375 71.8205 11.025 89.5097 23.6657 102.771C35.9392 115.648 52.6155 122.899 69.7562 122.899C70.6037 122.899 71.4497 122.882 72.2992 122.846L72.31 122.846C72.8745 122.825 72.983 122.606 73.046 122.384C73.171 121.944 73.0195 121.312 72.4887 120.956C71.8922 120.568 69.4655 120.447 68.299 120.388C67.2365 120.335 66.233 120.285 65.4052 120.136C58.2532 118.854 51.536 116.432 45.4397 112.936C29.3785 103.725 18.3115 87.4305 15.8358 69.3483C14.5135 59.6908 15.9755 50.0675 20.0638 41.5195C24.3245 32.6113 31.1575 25.5518 39.8252 21.1048C48.1577 16.8293 57.5438 15.288 66.2548 16.7645C75.7268 18.3703 83.6105 23.3063 89.0535 31.0395C93.5252 37.3933 95.7338 44.9855 95.2718 52.418C94.7775 60.367 91.1832 67.4482 85.1507 72.3572C77.447 78.6262 66.3987 80.191 57.6585 76.2523C49.9162 72.7628 45.2655 65.6217 44.8992 56.6605C44.8972 56.6125 44.8967 56.5643 44.8975 56.5163C44.9717 51.8113 46.6985 47.282 49.7597 43.763C52.9965 40.0425 57.4597 37.821 62.3275 37.5073C65.2725 37.3185 68.5243 38.1005 71.483 39.712C72.1328 40.066 72.6922 40.5515 73.2335 41.021C73.5612 41.3052 74.1 41.7728 74.3545 41.8935C74.6762 41.932 74.9355 41.8983 74.9975 41.8068C75.141 41.595 75.177 40.979 74.7988 40.329C72.208 35.8752 64.1722 34.3643 58.2142 35.5185C48.7242 37.3568 41.321 45.8068 40.6115 55.611C39.5742 69.9347 51.0218 83.3518 65.6093 84.9095C76.6358 86.086 88.118 81.3585 95.5738 72.5697C103.49 63.2385 105.941 51.1445 102.476 38.5155C98.5148 24.0785 87.6673 12.2218 74.1663 7.57125C69.3663 5.91775 64.3605 5.103 59.3165 5.103Z" fill="#C9175F"/>
<path d="M73.3548 14.9993C73.0721 14.9991 72.7914 14.9519 72.5242 14.8595C71.7991 14.6096 71.0669 14.3807 70.3285 14.173C68.9725 13.7915 68.1827 12.3833 68.5642 11.0275C68.9457 9.67151 70.3547 8.88276 71.7097 9.26326C72.5355 9.49551 73.3682 9.756 74.1852 10.0373C75.517 10.4958 76.2248 11.9473 75.7663 13.279C75.5931 13.7809 75.2677 14.2163 74.8355 14.5246C74.4033 14.833 73.8857 14.9989 73.3548 14.9993ZM10.9942 57.7445C10.9175 57.7445 10.8403 57.7413 10.7625 57.734C9.35975 57.6075 8.325 56.368 8.4515 54.9653C10.8087 28.7988 34.6372 7.09876 60.4675 7.60301C61.8757 7.62976 62.9955 8.79326 62.9685 10.2015C62.9417 11.6098 61.7728 12.7273 60.37 12.7025C37.1145 12.2658 15.6575 31.8215 13.5307 55.423C13.4117 56.748 12.2992 57.7445 10.9942 57.7445Z" fill="#C9175F"/>
</svg>
