<svg width="64" height="64" viewBox="0 0 64 64" fill="none" xmlns="http://www.w3.org/2000/svg">
<path d="M7.00188 38.6666C10.6838 38.6666 13.6685 35.6819 13.6685 32C13.6685 28.3181 10.6838 25.3334 7.00188 25.3334C3.32 25.3334 0.33525 28.3181 0.33525 32C0.33525 35.6819 3.32 38.6666 7.00188 38.6666Z" fill="#FF5722"/>
<path d="M50.9939 64C54.6757 64 57.6605 61.0152 57.6605 57.3334C57.6605 53.6515 54.6757 50.6668 50.9939 50.6668C47.312 50.6668 44.3273 53.6515 44.3273 57.3334C44.3273 61.0152 47.312 64 50.9939 64Z" fill="#FF5722"/>
<path d="M50.9939 13.3333C54.6757 13.3333 57.6605 10.3485 57.6605 6.66663C57.6605 2.98475 54.6757 0 50.9939 0C47.312 0 44.3273 2.98475 44.3273 6.66663C44.3273 10.3485 47.312 13.3333 50.9939 13.3333Z" fill="#FF5722"/>
<path d="M32.9299 18.4586C33.0748 18.7098 33.2978 18.9069 33.5648 19.02C33.8319 19.1331 34.1286 19.156 34.4099 19.0853C41.4004 17.2853 48.546 21.4092 50.4845 28.3626C50.5634 28.642 50.7314 28.888 50.9629 29.0632C51.1944 29.2384 51.4768 29.3332 51.7671 29.3332H62.6631C63.3995 29.3336 63.9968 28.737 63.9973 28.0006C63.9973 27.9299 63.9916 27.8591 63.9805 27.7892C63.2095 22.9391 61.1106 18.3971 57.9165 14.6666C57.7036 14.421 57.4084 14.2616 57.0862 14.2184C56.764 14.1752 56.4372 14.2511 56.1671 14.432C54.6387 15.4548 52.8408 16.0005 51.0018 16C45.9043 15.9819 41.7569 11.8914 41.6684 6.79462C41.6637 6.46879 41.5398 6.15595 41.3202 5.9152C41.1006 5.67446 40.8004 5.52249 40.4764 5.488C36.2954 5.04999 32.07 5.60363 28.143 7.104C27.4554 7.3675 27.1116 8.13862 27.3751 8.82625C27.4003 8.89175 27.4305 8.95525 27.4656 9.016L32.9299 18.4586ZM62.6659 34.6666H51.7699C51.4796 34.6667 51.1972 34.7615 50.9657 34.9367C50.7342 35.1119 50.5662 35.3579 50.4873 35.6372C48.5511 42.5925 41.4035 46.7176 34.4126 44.9146C34.1313 44.8439 33.8347 44.8668 33.5676 44.9799C33.3005 45.0929 33.0776 45.29 32.9326 45.5412L27.482 54.9839C27.1136 55.6215 27.3319 56.437 27.9695 56.8054C28.0302 56.8405 28.0938 56.8708 28.1593 56.8959C32.0823 58.4118 36.3114 58.9659 40.4926 58.5119C40.8167 58.4774 41.1168 58.3254 41.3364 58.0846C41.5561 57.8439 41.6799 57.5311 41.6846 57.2053C41.7436 52.0628 45.9603 47.9416 51.1028 48.0006C52.9071 48.0213 54.6666 48.5657 56.1673 49.5679C56.4385 49.7485 56.7665 49.8236 57.0893 49.7789C57.4121 49.7342 57.7073 49.5728 57.9193 49.3253C61.112 45.597 63.2108 41.058 63.9833 36.2106C64.0996 35.4835 63.6045 34.7998 62.8774 34.6834C62.8074 34.6722 62.7367 34.6666 62.6659 34.6666ZM28.1111 41.2826C23.0794 36.116 23.0794 27.8812 28.1111 22.7146C28.3141 22.506 28.4433 22.2367 28.479 21.9478C28.5146 21.6589 28.4547 21.3663 28.3085 21.1146L22.8659 11.6932C22.7693 11.5258 22.6375 11.3814 22.4796 11.2699C22.3216 11.1585 22.1414 11.0827 21.9513 11.0479C21.7622 11.0153 21.5684 11.0221 21.3821 11.068C21.1958 11.1139 21.021 11.1978 20.8686 11.3145C16.9961 14.4629 14.0841 18.6342 12.4633 23.3545C12.3747 23.6116 12.3668 23.8896 12.4407 24.1512C12.5146 24.4129 12.6667 24.6457 12.8766 24.8185C16.8435 27.9818 17.495 33.7618 14.3318 37.7286C13.9027 38.2666 13.4146 38.7547 12.8766 39.1838C12.6667 39.3565 12.5146 39.5893 12.4407 39.851C12.3668 40.1127 12.3747 40.3907 12.4633 40.6478C14.0852 45.3639 16.9961 49.5312 20.8659 52.6771C21.104 52.8707 21.4016 52.9762 21.7085 52.9758C21.789 52.9753 21.8692 52.9681 21.9485 52.9544C22.1386 52.9195 22.3189 52.8438 22.4768 52.7323C22.6348 52.6209 22.7666 52.4764 22.8631 52.309L28.3057 42.8824C28.4524 42.631 28.5127 42.3386 28.4776 42.0498C28.4424 41.7609 28.3137 41.4915 28.1111 41.2826Z" fill="#FF5722"/>
</svg>
