<svg width="162" height="57" viewBox="0 0 162 57" fill="none" xmlns="http://www.w3.org/2000/svg">
<path d="M1.74697 37.2886C1.78309 38.212 2.0139 39.0262 2.43929 39.7322C2.86432 40.4383 3.54775 40.9362 4.48921 41.2252C4.74234 41.3163 5.01834 41.3931 5.31713 41.456C5.61582 41.5199 5.9186 41.5691 6.22682 41.6057C6.31695 41.6057 6.40725 41.6102 6.49792 41.6191C6.5885 41.6284 6.67881 41.6329 6.76975 41.6329C6.85988 41.6329 6.95499 41.6329 7.05474 41.6329C7.15394 41.6329 7.24888 41.6236 7.33991 41.6057C7.93693 41.5513 8.50709 41.4069 9.05002 41.1712C9.59304 40.9362 10.0362 40.5923 10.3804 40.1396C10.5432 39.9225 10.679 39.6692 10.7876 39.3794C10.8964 39.09 10.9684 38.7916 11.0047 38.4836C11.0227 38.4112 11.032 38.3433 11.032 38.2799C11.032 38.2164 11.032 38.1486 11.032 38.0759C11.032 37.9856 11.0272 37.8996 11.0185 37.8185C11.009 37.7369 11.0047 37.651 11.0047 37.5605C10.9684 37.3251 10.9098 37.0946 10.8284 36.8682C10.747 36.6418 10.6426 36.4382 10.5162 36.2574C10.1719 35.8048 9.72882 35.4521 9.18571 35.1986C8.64278 34.9453 8.08169 34.7371 7.50246 34.5741C7.26712 34.5196 7.0364 34.4652 6.81032 34.4112C6.58387 34.3567 6.36251 34.3022 6.14523 34.2482C6.07253 34.2302 6.00001 34.2124 5.92786 34.1937C5.85543 34.1761 5.78291 34.1579 5.71066 34.1393C5.67427 34.1393 5.63833 34.1354 5.6023 34.126C5.5659 34.1171 5.5296 34.1034 5.49357 34.0851C5.38483 34.0676 5.27647 34.0404 5.16783 34.0036C5.05909 33.9677 4.9412 33.9404 4.81477 33.9226C4.09068 33.7234 3.39364 33.4701 2.72437 33.1625C2.05456 32.8547 1.52043 32.3479 1.12263 31.6418C0.995834 31.4069 0.882474 31.1534 0.783182 30.8815C0.683618 30.6102 0.615547 30.3297 0.579515 30.0402C0.561272 29.9498 0.547931 29.8595 0.538764 29.7684C0.529506 29.6783 0.525422 29.5877 0.525422 29.497C0.525422 29.3886 0.529506 29.2756 0.538764 29.1578C0.547931 29.0403 0.561272 28.927 0.579515 28.8184C0.651761 28.2754 0.814585 27.7553 1.06835 27.2574C1.32157 26.7596 1.64731 26.3477 2.04566 26.0221C2.48004 25.6419 2.99565 25.3391 3.59313 25.1123C4.19024 24.8866 4.80551 24.7371 5.43947 24.6648C5.5659 24.6648 5.69251 24.6603 5.81958 24.651C5.94573 24.642 6.07253 24.6372 6.1995 24.6372C6.2899 24.6372 6.38474 24.6372 6.48458 24.6372C6.58387 24.6372 6.67881 24.6468 6.76975 24.6648C7.29435 24.7009 7.8056 24.7826 8.3036 24.909C8.80097 25.0358 9.25804 25.2167 9.67454 25.4521C10.4525 25.8685 11.0408 26.4658 11.4393 27.2437C11.8371 28.0222 12.0636 28.8366 12.1179 29.6871C12.1358 29.7238 12.1451 29.7645 12.1451 29.8095C12.1451 29.8547 12.1451 29.9045 12.1451 29.9585H10.5162C10.4618 29.1985 10.2672 28.4973 9.93257 27.8546C9.59721 27.2124 9.05919 26.746 8.31695 26.4564C8.11764 26.3843 7.90526 26.3207 7.67908 26.2663C7.45245 26.212 7.22183 26.167 6.98676 26.1306C6.82375 26.1128 6.66528 26.0947 6.51172 26.0763C6.35761 26.0585 6.2084 26.0492 6.06381 26.0492C5.99111 26.0492 5.9235 26.0492 5.86006 26.0492C5.79652 26.0492 5.72845 26.0585 5.65657 26.0763C5.20386 26.1128 4.75568 26.2079 4.31259 26.3614C3.86877 26.5153 3.48458 26.7371 3.15857 27.0266C2.88738 27.2802 2.66547 27.5832 2.49357 27.936C2.32139 28.2891 2.21738 28.6555 2.18144 29.0355C2.1632 29.0899 2.15421 29.1486 2.15421 29.2118C2.15421 29.2756 2.15421 29.3342 2.15421 29.3886C2.15421 29.4611 2.15848 29.5424 2.16783 29.6328C2.17672 29.7238 2.19033 29.8141 2.20849 29.9045C2.24461 30.0673 2.2899 30.2303 2.34435 30.3929C2.39863 30.5557 2.4618 30.7099 2.53432 30.8547C2.80587 31.2891 3.19015 31.6285 3.68807 31.8727C4.18589 32.117 4.71529 32.3117 5.27647 32.456C5.5296 32.5105 5.78291 32.5651 6.03668 32.6191C6.2899 32.6734 6.53423 32.728 6.76975 32.782C6.84163 32.8007 6.9097 32.814 6.97324 32.8226C7.0364 32.832 7.09549 32.8458 7.14967 32.8635C7.29435 32.8999 7.44347 32.9404 7.59767 32.9856C7.75105 33.0311 7.9097 33.0718 8.07262 33.108C8.83301 33.3251 9.57498 33.6193 10.2989 33.9901C11.0227 34.3616 11.6021 34.8998 12.0365 35.6054C12.1993 35.859 12.3217 36.135 12.4031 36.4335C12.4846 36.7321 12.543 37.0353 12.5794 37.343C12.5974 37.4341 12.6067 37.5242 12.6067 37.6145C12.6067 37.7055 12.6067 37.7958 12.6067 37.8861C12.6067 37.9946 12.6019 38.099 12.5932 38.1982C12.5837 38.2981 12.5794 38.4019 12.5794 38.5104C12.5069 39.072 12.3531 39.6195 12.1179 40.1534C11.8827 40.687 11.575 41.135 11.1949 41.4971C10.7422 41.9136 10.1991 42.2393 9.56581 42.4743C8.93221 42.7094 8.28055 42.8723 7.61119 42.9629C7.44828 42.9808 7.2761 42.9946 7.09549 43.0039C6.91433 43.0125 6.73308 43.0174 6.55256 43.0174C6.49792 43.0174 6.43902 43.0174 6.37585 43.0174C6.31241 43.0174 6.24443 43.0174 6.17218 43.0174C5.68344 42.9987 5.19932 42.9402 4.71983 42.8409C4.24007 42.7413 3.79199 42.619 3.37603 42.4743C2.21738 42.0039 1.39418 41.3117 0.905346 40.3972C0.416691 39.4838 0.172363 38.447 0.172363 37.2886H1.74697Z" fill="#56514F"/>
<path d="M15.5654 29.9582H16.9229V32.0488C17.3933 31.2708 17.9547 30.6777 18.6062 30.2707C19.2578 29.8632 20.0358 29.6597 20.9409 29.6597C21.7915 29.6597 22.5428 29.8679 23.1944 30.284C23.8461 30.7005 24.2892 31.3159 24.5247 32.1304C24.9951 31.3159 25.5699 30.7005 26.2487 30.284C26.9275 29.8679 27.7101 29.6597 28.5971 29.6597C28.6513 29.6597 28.7099 29.6643 28.7735 29.6734C28.8366 29.6824 28.9046 29.6868 28.9771 29.6868C29.0132 29.6868 29.0449 29.6915 29.0722 29.7003C29.0993 29.7097 29.1306 29.714 29.1672 29.714C29.2034 29.714 29.2392 29.714 29.2756 29.714C29.3118 29.714 29.348 29.714 29.3844 29.714C30.5967 29.8406 31.443 30.2707 31.9228 31.0036C32.4022 31.7364 32.6422 32.6556 32.6422 33.7592V42.5553H31.1491V33.8949C31.1491 33.877 31.1445 33.8637 31.1355 33.8543C31.1261 33.8451 31.122 33.8317 31.122 33.8134C31.122 33.7958 31.1125 33.7771 31.0947 33.7592C31.0947 32.8361 30.8776 32.135 30.4432 31.655C30.0087 31.1758 29.3301 30.9357 28.4069 30.9357H28.0541C27.0585 31.0082 26.2756 31.4109 25.7057 32.144C25.1355 32.8769 24.8505 33.7231 24.8505 34.6823V42.5553H23.3843V34.0304C23.3843 33.1441 23.1714 32.4154 22.7466 31.8452C22.3209 31.2749 21.6557 30.99 20.7509 30.99H20.3165C19.3028 31.0626 18.5063 31.4697 17.9276 32.2118C17.348 32.954 17.0404 33.8044 17.0045 34.7633V42.5553H15.5654V29.9582Z" fill="#56514F"/>
<path d="M43.8277 39.3661C44.0626 38.6511 44.1805 37.8499 44.1805 36.9631V35.9586C43.764 36.0851 43.3432 36.1803 42.918 36.2439C42.4925 36.3073 42.0628 36.3656 41.6286 36.42C41.5742 36.4382 41.5243 36.4473 41.4791 36.4473C41.4339 36.4473 41.3843 36.4566 41.3299 36.4744C40.9316 36.5286 40.5288 36.5877 40.1218 36.6509C39.7146 36.7146 39.3208 36.8093 38.9407 36.9362C38.4156 37.0809 37.9452 37.3886 37.529 37.859C37.1125 38.3299 36.9046 38.8275 36.9046 39.3522C36.9046 39.4432 36.9133 39.538 36.9319 39.6373C36.9495 39.7372 36.9767 39.8408 37.0132 39.9494C37.0673 40.0762 37.1397 40.2071 37.2303 40.3429C37.3206 40.479 37.4204 40.6009 37.529 40.7099C37.7823 40.9634 38.0855 41.1622 38.4387 41.307C38.7915 41.452 39.1581 41.5333 39.5381 41.5513C39.5744 41.5513 39.6102 41.5513 39.6467 41.5513C39.6825 41.5513 39.7188 41.5513 39.7552 41.5513C39.8455 41.5513 39.9407 41.547 40.0405 41.5378C40.1394 41.5285 40.2345 41.5241 40.3255 41.5241C40.6329 41.4879 40.9268 41.4292 41.208 41.3476C41.4884 41.2663 41.7372 41.1895 41.9543 41.1168C42.9676 40.6647 43.592 40.081 43.8277 39.3661ZM42.6193 41.8907C41.9585 42.2435 41.2755 42.4926 40.5698 42.6371C40.3345 42.6914 40.1081 42.7321 39.891 42.7592C39.6739 42.7866 39.4565 42.8001 39.2394 42.8001C38.5696 42.8001 37.9315 42.6552 37.3254 42.3658C36.7189 42.0764 36.2258 41.5968 35.8458 40.927C35.7549 40.746 35.6784 40.5651 35.6149 40.3839C35.5516 40.2033 35.5016 40.0221 35.4654 39.8408C35.4475 39.7505 35.4338 39.66 35.4251 39.5693C35.4158 39.479 35.4116 39.3888 35.4116 39.2978C35.4116 38.6286 35.5967 37.9994 35.9681 37.411C36.3386 36.8231 36.8409 36.3841 37.4746 36.0943C37.9997 35.8412 38.5561 35.6599 39.1443 35.551C39.7322 35.4428 40.3255 35.3522 40.9226 35.2798C40.995 35.2619 41.0674 35.2526 41.1401 35.2526C41.212 35.2526 41.2845 35.244 41.3568 35.2255C41.6827 35.1895 41.9994 35.1534 42.3071 35.1169C42.6148 35.081 42.9225 35.0356 43.2302 34.9811C43.592 34.909 43.8453 34.7326 43.9903 34.4519C44.1353 34.1714 44.2077 33.8682 44.2077 33.5422C44.2077 33.4519 44.2032 33.3658 44.1942 33.2845C44.1846 33.2028 44.1712 33.1174 44.1533 33.0264C44.0991 32.719 44.0041 32.4251 43.8683 32.1443C43.7326 31.8638 43.5651 31.6511 43.366 31.5061C43.1124 31.3253 42.8229 31.1849 42.4973 31.0853C42.1717 30.9861 41.8457 30.9183 41.5198 30.8816C41.4474 30.8639 41.3706 30.8547 41.2893 30.8547C41.208 30.8547 41.1218 30.8547 41.0312 30.8547C40.1805 30.8547 39.4024 31.099 38.6964 31.5877C37.9904 32.0764 37.601 32.782 37.529 33.7052H36.0629C36.1173 32.4561 36.6238 31.4836 37.5834 30.7869C38.5424 30.0902 39.6012 29.7053 40.7597 29.6328C40.8141 29.6328 40.8727 29.6328 40.936 29.6328C40.9995 29.6328 41.0674 29.6328 41.1401 29.6328C42.2802 29.6328 43.3208 29.9498 44.2621 30.5831C45.2029 31.2168 45.6738 32.1759 45.6738 33.4608V40.1668C45.6738 40.6737 45.7417 41.0216 45.8775 41.2119C46.0132 41.4021 46.2617 41.4971 46.6241 41.4971C46.66 41.4971 46.6962 41.4927 46.7324 41.4834C46.7685 41.4744 46.814 41.4699 46.8684 41.4699C46.9043 41.4699 46.9315 41.4699 46.9497 41.4699C46.9673 41.452 46.9946 41.4428 47.0314 41.4428C47.0673 41.4428 47.0945 41.4428 47.1127 41.4428V42.5557C47.0583 42.5557 46.9994 42.5557 46.9363 42.5557C46.8726 42.5557 46.814 42.5557 46.7596 42.5557C46.6328 42.5736 46.5108 42.5829 46.3933 42.5829C46.2751 42.5829 46.1624 42.5829 46.0538 42.5829C45.5288 42.5829 45.0901 42.4703 44.7373 42.2434C44.3841 42.0175 44.2077 41.5513 44.2077 40.8456L44.2621 40.7099C43.8277 41.144 43.2798 41.5378 42.6193 41.8907Z" fill="#56514F"/>
<path d="M49.6372 29.9582H51.0489V32.1845C51.4651 31.2796 51.9993 30.6327 52.6508 30.2433C53.302 29.8543 54.1166 29.6597 55.0941 29.6597V31.153C53.6642 31.153 52.6508 31.5602 52.0533 32.3749C51.4562 33.1891 51.1574 34.266 51.1574 35.605V42.5553H49.6372V29.9582Z" fill="#56514F"/>
<path d="M59.5464 29.9585H61.8812V31.1534H59.5464V40.3022C59.5464 40.8276 59.6187 41.1942 59.7637 41.402C59.9085 41.6102 60.1256 41.7143 60.4153 41.7143C60.5597 41.7143 60.741 41.6869 60.9584 41.6329C61.1754 41.5784 61.4015 41.524 61.6369 41.4698C61.6547 41.4698 61.6731 41.4698 61.6913 41.4698C61.7274 41.452 61.7591 41.4382 61.7863 41.4292C61.8136 41.4203 61.845 41.4155 61.8812 41.4155V42.5556C61.7185 42.5736 61.5555 42.6007 61.3929 42.637C61.2299 42.6734 61.0576 42.7094 60.8767 42.7459C60.75 42.7637 60.6232 42.7773 60.4966 42.7865C60.3698 42.7951 60.2431 42.8 60.1166 42.8C59.9536 42.8 59.7951 42.7865 59.6415 42.7592C59.4875 42.7321 59.3383 42.7007 59.1935 42.6642C58.6867 42.5195 58.3745 42.2528 58.257 41.8635C58.1389 41.4744 58.0802 41.0536 58.0802 40.6008C58.0802 40.5468 58.0802 40.4972 58.0802 40.4518C58.0802 40.4069 58.0802 40.3566 58.0802 40.3022V31.1534H56.3701V29.9585H58.0802V26.375H59.5464V29.9585Z" fill="#56514F"/>
<path d="M2.65729 45.3985H1.50145V49.0876C1.50145 49.1165 1.49347 49.1408 1.47722 49.1604C1.46097 49.1805 1.43846 49.1902 1.40969 49.1902H1.35578C1.32674 49.1902 1.30423 49.1805 1.28826 49.1604C1.27201 49.1408 1.26384 49.1165 1.26384 49.0876V45.3985H0.10265C0.034126 45.3985 0 45.3717 0 45.3175V45.2692C0 45.208 0.034126 45.1772 0.10265 45.1772H2.65729C2.72572 45.1772 2.75994 45.208 2.75994 45.2692V45.3175C2.75994 45.3717 2.72572 45.3985 2.65729 45.3985Z" fill="#56514F"/>
<path d="M4.85565 48.3479C4.85565 48.2112 4.82879 48.1045 4.77497 48.0289C4.72105 47.9538 4.6518 47.8987 4.56776 47.8645C4.48335 47.8302 4.38996 47.8107 4.28785 47.8052C4.18529 47.7994 4.08582 47.7971 3.98889 47.7971H3.21915V49.0069C3.34485 49.0139 3.45249 49.0183 3.54225 49.0202C3.63184 49.0222 3.71615 49.0231 3.79502 49.0231C4.17186 49.0231 4.44296 48.9735 4.60787 48.8745C4.77297 48.7753 4.85565 48.6124 4.85565 48.3853V48.3479ZM4.82879 46.9897C4.82879 46.8785 4.80355 46.789 4.75327 46.7207C4.70308 46.6529 4.6322 46.6 4.54062 46.5622C4.44923 46.5248 4.33977 46.5004 4.21234 46.4899C4.085 46.479 3.94578 46.4739 3.79502 46.4739C3.75563 46.4739 3.70989 46.4746 3.65797 46.4764C3.60597 46.478 3.55296 46.4799 3.49896 46.4819C3.44541 46.4838 3.39314 46.4855 3.34304 46.4873C3.29266 46.4892 3.25137 46.4902 3.21915 46.4902V47.5753H3.98889C4.08573 47.5753 4.18357 47.5718 4.28232 47.5647C4.38097 47.5576 4.47083 47.5369 4.55151 47.5029C4.6322 47.4686 4.69854 47.4142 4.75064 47.3391C4.80247 47.2637 4.82879 47.1578 4.82879 47.0219V46.9897ZM5.05569 47.0229C5.05569 47.1523 5.02238 47.2798 4.95585 47.4059C4.88941 47.5314 4.78077 47.6233 4.63002 47.6806C4.72323 47.7167 4.80056 47.7606 4.86182 47.8132C4.92272 47.8654 4.9701 47.9224 5.00441 47.9839C5.03835 48.0449 5.06195 48.1071 5.07438 48.1705C5.08709 48.2335 5.09326 48.2919 5.09326 48.346V48.3842C5.09326 48.5428 5.06195 48.6754 4.99923 48.7822C4.93625 48.8883 4.8473 48.9748 4.73231 49.0414C4.6174 49.1083 4.47999 49.1561 4.32025 49.1852C4.16042 49.2136 3.98344 49.2281 3.78958 49.2281C3.73939 49.2281 3.68103 49.2272 3.6145 49.2252C3.54797 49.2236 3.4809 49.222 3.41247 49.2201C3.34431 49.2181 3.27869 49.2153 3.21588 49.2117C3.15298 49.2085 3.09825 49.2031 3.05151 49.1957C3.00477 49.1922 2.98145 49.1758 2.98145 49.1471V46.3439C2.98145 46.3189 3.00132 46.3029 3.04071 46.2952C3.12703 46.2847 3.23984 46.2767 3.37998 46.2712C3.52029 46.2655 3.6567 46.2632 3.78958 46.2632C3.9475 46.2632 4.10288 46.2702 4.25572 46.2847C4.40829 46.299 4.54362 46.332 4.66233 46.3843C4.78077 46.4364 4.87607 46.5101 4.94768 46.6054C5.01966 46.7006 5.05569 46.829 5.05569 46.9905V47.0229Z" fill="#56514F"/>
<path d="M7.68035 47.5538C7.68035 47.2227 7.61382 46.9596 7.48067 46.7652C7.34744 46.5706 7.12226 46.4739 6.80551 46.4739C6.48857 46.4739 6.26339 46.5706 6.13052 46.7652C5.99719 46.9596 5.93048 47.2227 5.93048 47.5538V47.932C5.93048 48.2633 5.99719 48.5259 6.13052 48.7203C6.26339 48.9149 6.48857 49.012 6.80551 49.012C7.12226 49.012 7.34744 48.9149 7.48067 48.7203C7.61382 48.5259 7.68035 48.2633 7.68035 47.932V47.5538ZM7.91823 47.932C7.91823 48.3425 7.82529 48.66 7.63987 48.8852C7.45435 49.1103 7.17635 49.223 6.80551 49.223C6.43457 49.223 6.15639 49.1103 5.97096 48.8852C5.78554 48.66 5.69287 48.3425 5.69287 47.932V47.5538C5.69287 47.1436 5.78554 46.8254 5.97096 46.6006C6.15639 46.3755 6.43457 46.2632 6.80551 46.2632C7.17635 46.2632 7.45435 46.3755 7.63987 46.6006C7.82529 46.8254 7.91823 47.1436 7.91823 47.5538V47.932Z" fill="#56514F"/>
<path d="M10.4406 47.5433C10.4406 47.2029 10.3774 46.9394 10.2516 46.753C10.1254 46.567 9.90928 46.4739 9.60333 46.4739C9.45203 46.4739 9.32315 46.4998 9.21714 46.5517C9.11095 46.6035 9.02274 46.6771 8.95249 46.772C8.88233 46.8667 8.83105 46.9797 8.79847 47.1104C8.76606 47.2413 8.74991 47.3873 8.74991 47.5486V47.5753H10.4406V47.5433ZM10.6782 47.6944C10.6782 47.7232 10.6682 47.7472 10.6483 47.767C10.6286 47.787 10.6041 47.7971 10.5756 47.7971H8.74991V47.9102C8.74991 48.1372 8.77505 48.3226 8.82551 48.4667C8.87607 48.6108 8.94622 48.7232 9.03617 48.8041C9.12611 48.8852 9.22976 48.9402 9.34684 48.969C9.46374 48.9979 9.59072 49.012 9.7274 49.012C9.84621 49.012 9.97608 49.004 10.1164 48.9876C10.2568 48.9716 10.3937 48.9492 10.527 48.92C10.527 48.92 10.5395 48.9195 10.5432 48.9178C10.5466 48.9159 10.5521 48.9149 10.5594 48.9149C10.5809 48.9149 10.5999 48.92 10.6159 48.9314C10.6322 48.9418 10.6404 48.9617 10.6404 48.9904V49.0282C10.6404 49.0572 10.6331 49.0796 10.6189 49.0957C10.6041 49.1122 10.5773 49.1237 10.5376 49.131C10.4082 49.1596 10.2712 49.1823 10.1273 49.1986C9.98307 49.2146 9.84984 49.223 9.7274 49.223C9.55831 49.223 9.40084 49.2018 9.2549 49.1605C9.10914 49.1191 8.98035 49.0491 8.86862 48.9498C8.75708 48.8513 8.66968 48.7171 8.60678 48.5474C8.54388 48.3783 8.51221 48.166 8.51221 47.9102V47.5538C8.51221 47.3667 8.53571 47.1946 8.58264 47.038C8.6292 46.8814 8.69854 46.7453 8.79039 46.6304C8.88233 46.5152 8.9956 46.4248 9.13074 46.3602C9.26579 46.2952 9.42326 46.2632 9.60333 46.2632C9.79048 46.2632 9.95167 46.2936 10.0867 46.3551C10.2218 46.4158 10.3333 46.5037 10.4215 46.6166C10.5098 46.7303 10.5746 46.8661 10.6159 47.0246C10.6573 47.183 10.6782 47.3575 10.6782 47.5483V47.6944Z" fill="#56514F"/>
<path d="M14.3345 46.8299C14.3345 46.7221 14.3108 46.642 14.2643 46.5897C14.2173 46.5375 14.1309 46.5117 14.0049 46.5117H13.0759C12.9496 46.5117 12.8643 46.5375 12.8193 46.5897C12.7742 46.642 12.7518 46.7221 12.7518 46.8299V49.0877C12.7518 49.1167 12.7438 49.1409 12.7275 49.1605C12.7113 49.1807 12.6888 49.1904 12.66 49.1904H12.6059C12.5772 49.1904 12.5546 49.1807 12.5386 49.1605C12.5223 49.1409 12.5142 49.1167 12.5142 49.0877V46.8299C12.5142 46.7114 12.5304 46.6166 12.5628 46.5465C12.5951 46.4764 12.6385 46.4222 12.6924 46.3845C12.7463 46.3467 12.8067 46.3214 12.8732 46.3089C12.9399 46.2964 13.0074 46.29 13.0759 46.29H13.9994C14.0677 46.29 14.1362 46.2964 14.2047 46.3089C14.2729 46.3214 14.3345 46.3467 14.3884 46.3845C14.4423 46.4222 14.4864 46.4764 14.5206 46.5465C14.5548 46.6166 14.5721 46.7114 14.5721 46.8299V49.0877C14.5721 49.1167 14.564 49.1409 14.5477 49.1605C14.5316 49.1807 14.5089 49.1904 14.4801 49.1904H14.4261C14.3973 49.1904 14.3749 49.1807 14.3586 49.1605C14.3425 49.1409 14.3345 49.1167 14.3345 49.0877V46.8299Z" fill="#56514F"/>
<path d="M17.1754 47.5433C17.1754 47.2029 17.1123 46.9394 16.9862 46.753C16.8602 46.567 16.6441 46.4739 16.3381 46.4739C16.1869 46.4739 16.0581 46.4998 15.9519 46.5517C15.8456 46.6035 15.7574 46.6771 15.6873 46.772C15.6171 46.8667 15.5658 46.9797 15.5334 47.1104C15.501 47.2413 15.4848 47.3873 15.4848 47.5486V47.5753H17.1754V47.5433ZM17.4129 47.6944C17.4129 47.7232 17.4028 47.7472 17.3832 47.767C17.3636 47.787 17.3391 47.7971 17.3103 47.7971H15.4848V47.9102C15.4848 48.1372 15.5097 48.3226 15.5603 48.4667C15.6108 48.6108 15.681 48.7232 15.7709 48.8041C15.861 48.8852 15.9644 48.9402 16.0814 48.969C16.1987 48.9979 16.3256 49.012 16.4623 49.012C16.5812 49.012 16.7109 49.004 16.8512 48.9876C16.9917 48.9716 17.1284 48.9492 17.2618 48.92C17.2689 48.92 17.2743 48.9195 17.2777 48.9178C17.2814 48.9159 17.2869 48.9149 17.2942 48.9149C17.3157 48.9149 17.3346 48.92 17.3508 48.9314C17.3671 48.9418 17.3752 48.9617 17.3752 48.9904V49.0282C17.3752 49.0572 17.3679 49.0796 17.3534 49.0957C17.3391 49.1122 17.3121 49.1237 17.2725 49.131C17.143 49.1596 17.006 49.1823 16.8619 49.1986C16.7179 49.2146 16.5848 49.223 16.4623 49.223C16.2931 49.223 16.1356 49.2018 15.9898 49.1605C15.844 49.1191 15.715 49.0491 15.6036 48.9498C15.4918 48.8513 15.4045 48.7171 15.3416 48.5474C15.2785 48.3783 15.2471 48.166 15.2471 47.9102V47.5538C15.2471 47.3667 15.2704 47.1946 15.3173 47.038C15.3641 46.8814 15.4334 46.7453 15.5253 46.6304C15.6171 46.5152 15.7306 46.4248 15.8655 46.3602C16.0006 46.2952 16.158 46.2632 16.3381 46.2632C16.5253 46.2632 16.6864 46.2936 16.8215 46.3551C16.9566 46.4158 17.0682 46.5037 17.1563 46.6166C17.2448 46.7303 17.3094 46.8661 17.3508 47.0246C17.3921 47.183 17.4129 47.3575 17.4129 47.5483V47.6944Z" fill="#56514F"/>
<path d="M19.8972 47.5753C19.8972 47.226 19.8359 46.9554 19.7135 46.7627C19.5912 46.5702 19.3788 46.4739 19.0764 46.4739C18.9467 46.4739 18.8134 46.4809 18.6767 46.4953C18.5397 46.5097 18.4227 46.5261 18.3256 46.5437V48.9418C18.376 48.9527 18.4336 48.9626 18.4983 48.9716C18.5632 48.9806 18.6297 48.9876 18.6983 48.9934C18.7665 48.9984 18.8332 49.0033 18.898 49.0069C18.9628 49.0103 19.0223 49.012 19.0764 49.012C19.3751 49.012 19.5865 48.9219 19.7109 48.7423C19.8351 48.5621 19.8972 48.2919 19.8972 47.932V47.5753ZM20.1349 47.932C20.1349 48.7926 19.782 49.223 19.0764 49.223C19.0223 49.223 18.9636 49.221 18.9007 49.2173C18.8378 49.2136 18.772 49.2085 18.7035 49.2012C18.6351 49.1938 18.5685 49.1852 18.5038 49.174C18.4389 49.1634 18.3794 49.1525 18.3256 49.1419V50.1408C18.3256 50.1698 18.3174 50.194 18.3012 50.2139C18.285 50.2338 18.2625 50.2433 18.2337 50.2433H18.1797C18.1507 50.2433 18.1285 50.2338 18.1122 50.2139C18.0961 50.194 18.0879 50.1698 18.0879 50.1408V46.468C18.0879 46.4357 18.0934 46.4124 18.104 46.398C18.1148 46.3836 18.1364 46.3727 18.1688 46.3656C18.2877 46.3407 18.4299 46.3169 18.5956 46.2952C18.7613 46.2738 18.9213 46.2632 19.0764 46.2632C19.2635 46.2632 19.4237 46.2946 19.557 46.3573C19.6902 46.4207 19.8 46.5107 19.8865 46.6275C19.9729 46.7444 20.0358 46.8834 20.0755 47.0434C20.1152 47.2038 20.1349 47.3809 20.1349 47.5753V47.932Z" fill="#56514F"/>
<path d="M22.5331 49.1419C22.5186 49.1564 22.4917 49.167 22.452 49.174C22.3366 49.1888 22.2207 49.2002 22.1037 49.2092C21.9866 49.2181 21.885 49.223 21.7985 49.223C21.604 49.223 21.4393 49.1875 21.3042 49.1175C21.1693 49.0472 21.0593 48.9527 20.9748 48.8339C20.8901 48.7152 20.828 48.5765 20.7885 48.418C20.7489 48.2598 20.729 48.0921 20.729 47.916V47.5538C20.729 47.3739 20.7489 47.2055 20.7885 47.0489C20.828 46.892 20.8901 46.7556 20.9748 46.6384C21.0593 46.5212 21.1693 46.4296 21.3042 46.3631C21.4393 46.2964 21.604 46.2632 21.7985 46.2632C21.885 46.2632 21.9866 46.2673 22.1037 46.2767C22.2207 46.2855 22.3366 46.297 22.452 46.3116C22.4917 46.3189 22.5186 46.3298 22.5331 46.3439C22.5473 46.3582 22.5546 46.38 22.5546 46.4089V46.4466C22.5546 46.4972 22.5256 46.5222 22.4683 46.5222H22.4412C22.1854 46.4902 21.9713 46.4739 21.7985 46.4739C21.6437 46.4739 21.5131 46.4988 21.4069 46.5491C21.3006 46.5997 21.2153 46.6727 21.1503 46.7681C21.0854 46.8635 21.0386 46.9778 21.0099 47.111C20.981 47.2442 20.9666 47.3918 20.9666 47.5538V47.916C20.9666 48.0779 20.981 48.2262 21.0099 48.3614C21.0386 48.4964 21.0854 48.6124 21.1503 48.7097C21.2153 48.807 21.3006 48.8816 21.4069 48.9335C21.5131 48.986 21.6437 49.012 21.7985 49.012C21.9713 49.012 22.1854 48.996 22.4412 48.9636H22.4683C22.5256 48.9636 22.5546 48.9886 22.5546 49.0389V49.0769C22.5546 49.1058 22.5473 49.1276 22.5331 49.1419Z" fill="#56514F"/>
<path d="M25.0768 47.5538C25.0768 47.2227 25.0103 46.9596 24.877 46.7652C24.7436 46.5706 24.5187 46.4739 24.2018 46.4739C23.8849 46.4739 23.6599 46.5706 23.5267 46.7652C23.3934 46.9596 23.327 47.2227 23.327 47.5538V47.932C23.327 48.2633 23.3934 48.5259 23.5267 48.7203C23.6599 48.9149 23.8849 49.012 24.2018 49.012C24.5187 49.012 24.7436 48.9149 24.877 48.7203C25.0103 48.5259 25.0768 48.2633 25.0768 47.932V47.5538ZM25.3144 47.932C25.3144 48.3425 25.2216 48.66 25.0363 48.8852C24.8507 49.1103 24.5727 49.223 24.2018 49.223C23.831 49.223 23.5527 49.1103 23.3673 48.8852C23.182 48.66 23.0894 48.3425 23.0894 47.932V47.5538C23.0894 47.1436 23.182 46.8254 23.3673 46.6006C23.5527 46.3755 23.831 46.2632 24.2018 46.2632C24.5727 46.2632 24.8507 46.3755 25.0363 46.6006C25.2216 46.8254 25.3144 47.1436 25.3144 47.5538V47.932Z" fill="#56514F"/>
<path d="M26.2273 47.7536V49.0877C26.2273 49.1167 26.2175 49.1409 26.1976 49.1605C26.1777 49.1807 26.1533 49.1904 26.1247 49.1904H26.0924C26.0634 49.1904 26.0391 49.1807 26.0194 49.1605C25.9995 49.1409 25.9897 49.1167 25.9897 49.0877V46.3925C25.9897 46.3637 25.9995 46.3397 26.0194 46.3195C26.0391 46.2999 26.0634 46.29 26.0924 46.29H26.1247C26.1533 46.29 26.1777 46.2999 26.1976 46.3195C26.2175 46.3397 26.2273 46.3637 26.2273 46.3925V47.532H27.8099V46.3925C27.8099 46.3637 27.8198 46.3397 27.8396 46.3195C27.8593 46.2999 27.8836 46.29 27.9125 46.29H27.9448C27.9736 46.29 27.9979 46.2999 28.0177 46.3195C28.0376 46.3397 28.0476 46.3637 28.0476 46.3925V49.0877C28.0476 49.1167 28.0376 49.1409 28.0177 49.1605C27.9979 49.1807 27.9736 49.1904 27.9448 49.1904H27.9125C27.8836 49.1904 27.8593 49.1807 27.8396 49.1605C27.8198 49.1409 27.8099 49.1167 27.8099 49.0877V47.7536H26.2273Z" fill="#56514F"/>
<path d="M30.4458 47.6621H30.0299C29.8245 47.6621 29.6528 47.6726 29.5141 47.6944C29.3754 47.7159 29.2629 47.751 29.1764 47.7994C29.0901 47.8484 29.0278 47.9121 28.9901 47.9912C28.9524 48.0706 28.9334 48.1679 28.9334 48.283V48.3534C28.9334 48.4792 28.9488 48.5848 28.9792 48.6691C29.0099 48.7538 29.0522 48.8214 29.1062 48.8716C29.1602 48.9219 29.2224 48.9582 29.2927 48.9799C29.3629 49.0013 29.4393 49.012 29.5221 49.012C29.6735 49.012 29.8201 48.9904 29.9624 48.9473C30.1046 48.9044 30.2658 48.8339 30.4458 48.7366V47.6621ZM30.6834 49.0824C30.6834 49.1112 30.6727 49.1366 30.651 49.1584C30.6294 49.1797 30.604 49.1904 30.5755 49.1904H30.5483C30.5195 49.1904 30.4943 49.1797 30.4728 49.1584C30.4513 49.1366 30.4404 49.1112 30.4404 49.0824V48.9473C30.3071 49.0194 30.1631 49.0834 30.0083 49.139C29.8535 49.1951 29.6913 49.223 29.5221 49.223C29.4214 49.223 29.3213 49.2092 29.2224 49.1823C29.1234 49.1554 29.0352 49.1083 28.9576 49.0417C28.8802 48.9751 28.8173 48.8862 28.7687 48.7743C28.72 48.6629 28.6958 48.5223 28.6958 48.3534V48.283C28.6958 48.1427 28.7192 48.0209 28.766 47.9182C28.8128 47.8158 28.8884 47.7296 28.993 47.6592C29.0972 47.5887 29.2348 47.5369 29.406 47.5026C29.5769 47.4683 29.785 47.4511 30.0299 47.4511H30.4458V47.2567C30.4458 47.1164 30.435 46.9967 30.4134 46.8978C30.3917 46.7985 30.3547 46.7175 30.3025 46.6544C30.2503 46.5917 30.1801 46.5455 30.0919 46.517C30.0038 46.4883 29.8948 46.4739 29.7653 46.4739C29.6751 46.4739 29.5968 46.4746 29.5303 46.4764C29.4635 46.478 29.4016 46.4819 29.344 46.4873C29.2864 46.4924 29.2306 46.4979 29.1764 46.5037C29.1225 46.5088 29.0631 46.5152 28.9983 46.5222H28.9768C28.9514 46.5222 28.9281 46.516 28.9065 46.5037C28.8849 46.4905 28.8741 46.47 28.8741 46.4412V46.4089C28.8741 46.3551 28.9153 46.3224 28.9983 46.3116C29.0557 46.3045 29.1108 46.298 29.1629 46.2927C29.2151 46.2871 29.271 46.2818 29.3304 46.2767C29.3898 46.2712 29.4547 46.2673 29.5248 46.2655C29.5951 46.2638 29.6751 46.2632 29.7653 46.2632C29.9488 46.2632 30.0991 46.2871 30.2162 46.3358C30.3332 46.3845 30.427 46.4528 30.4971 46.5411C30.5673 46.6295 30.6159 46.7348 30.6429 46.8571C30.6698 46.9797 30.6834 47.1129 30.6834 47.2567V49.0824Z" fill="#56514F"/>
<path d="M32.536 46.544C32.5286 46.5155 32.5161 46.4905 32.4981 46.4684C32.4799 46.4469 32.4511 46.436 32.4117 46.436C32.372 46.436 32.3432 46.4459 32.3252 46.4658C32.3074 46.4858 32.2946 46.51 32.2875 46.5389L31.5096 49.1205C31.5025 49.1387 31.4909 49.1548 31.4746 49.1691C31.4585 49.1835 31.4411 49.1907 31.4234 49.1907H31.3532C31.299 49.1907 31.272 49.1618 31.272 49.1045C31.272 49.0827 31.2739 49.0664 31.2775 49.0555L32.0605 46.4848C32.0858 46.4018 32.128 46.3371 32.1876 46.2904C32.2472 46.2436 32.3218 46.2202 32.4117 46.2202C32.4981 46.2202 32.5708 46.2427 32.6304 46.2875C32.69 46.3327 32.7322 46.3967 32.7572 46.4793L33.5404 49.0555C33.5477 49.0773 33.5512 49.0952 33.5512 49.1096C33.5512 49.1638 33.5225 49.1907 33.4648 49.1907H33.4001C33.3569 49.1907 33.3281 49.1673 33.3137 49.1205L32.536 46.544Z" fill="#56514F"/>
<path d="M34.3772 49.0069C34.5027 49.0139 34.6106 49.0183 34.7003 49.0202C34.7899 49.0222 34.8742 49.0231 34.9532 49.0231C35.3301 49.0231 35.601 48.9726 35.7658 48.8716C35.9311 48.7713 36.0137 48.5964 36.0137 48.3479V48.2506C36.0137 48.0021 35.9311 47.8272 35.7658 47.7268C35.601 47.6258 35.3301 47.5753 34.9532 47.5753C34.8742 47.5753 34.7899 47.5763 34.7003 47.5781C34.6106 47.58 34.5027 47.5843 34.3772 47.5916V49.0069ZM34.1396 46.3925C34.1396 46.3637 34.147 46.3397 34.1617 46.3195C34.1765 46.2999 34.2005 46.29 34.2334 46.29H34.2834C34.3199 46.29 34.3449 46.2999 34.3577 46.3195C34.3708 46.3397 34.3772 46.3637 34.3772 46.3925V47.3864C34.4704 47.3793 34.5697 47.3748 34.6753 47.3729C34.781 47.371 34.8728 47.3705 34.9516 47.3705C35.145 47.3705 35.3214 47.3844 35.4809 47.4133C35.64 47.4421 35.7771 47.4907 35.8917 47.5592C36.006 47.6278 36.0946 47.7183 36.1574 47.8321C36.2199 47.9453 36.2516 48.0849 36.2516 48.2506V48.3479C36.2516 48.5134 36.2199 48.6526 36.1571 48.7663C36.0944 48.8796 36.0053 48.9709 35.8904 49.0389C35.7754 49.1074 35.6381 49.1563 35.4783 49.1852C35.3185 49.2136 35.1415 49.228 34.9478 49.228C34.8975 49.228 34.8389 49.2271 34.7726 49.2252C34.706 49.2236 34.6388 49.222 34.5706 49.2201C34.5024 49.2181 34.4368 49.2152 34.374 49.2117C34.3109 49.2084 34.2565 49.2031 34.2097 49.1957C34.163 49.1922 34.1396 49.1758 34.1396 49.1471V46.3925Z" fill="#56514F"/>
<path d="M37.1697 47.7536V49.0877C37.1697 49.1167 37.1598 49.1409 37.1399 49.1605C37.12 49.1807 37.0957 49.1904 37.0669 49.1904H37.0345C37.0057 49.1904 36.9814 49.1807 36.9615 49.1605C36.9417 49.1409 36.9321 49.1167 36.9321 49.0877V46.3925C36.9321 46.3637 36.9417 46.3397 36.9615 46.3195C36.9814 46.2999 37.0057 46.29 37.0345 46.29H37.0669C37.0957 46.29 37.12 46.2999 37.1399 46.3195C37.1598 46.3397 37.1697 46.3637 37.1697 46.3925V47.532H38.7523V46.3925C38.7523 46.3637 38.762 46.3397 38.7818 46.3195C38.8016 46.2999 38.8259 46.29 38.8548 46.29H38.8871C38.916 46.29 38.9403 46.2999 38.9602 46.3195C38.98 46.3397 38.9899 46.3637 38.9899 46.3925V49.0877C38.9899 49.1167 38.98 49.1409 38.9602 49.1605C38.9403 49.1807 38.916 49.1904 38.8871 49.1904H38.8548C38.8259 49.1904 38.8016 49.1807 38.7818 49.1605C38.762 49.1409 38.7523 49.1167 38.7523 49.0877V47.7536H37.1697Z" fill="#56514F"/>
<path d="M41.6528 47.5538C41.6528 47.2227 41.5862 46.9596 41.4529 46.7652C41.3198 46.5706 41.0947 46.4739 40.7777 46.4739C40.461 46.4739 40.2359 46.5706 40.1028 46.7652C39.9693 46.9596 39.9027 47.2227 39.9027 47.5538V47.932C39.9027 48.2633 39.9693 48.5259 40.1028 48.7203C40.2359 48.9149 40.461 49.012 40.7777 49.012C41.0947 49.012 41.3198 48.9149 41.4529 48.7203C41.5862 48.5259 41.6528 48.2633 41.6528 47.932V47.5538ZM41.8903 47.932C41.8903 48.3425 41.7975 48.66 41.6121 48.8852C41.4267 49.1103 41.1488 49.223 40.7777 49.223C40.4069 49.223 40.1286 49.1103 39.9433 48.8852C39.7579 48.66 39.665 48.3425 39.665 47.932V47.5538C39.665 47.1436 39.7579 46.8254 39.9433 46.6006C40.1286 46.3755 40.4069 46.2632 40.7777 46.2632C41.1488 46.2632 41.4267 46.3755 41.6121 46.6006C41.7975 46.8254 41.8903 47.1436 41.8903 47.5538V47.932Z" fill="#56514F"/>
<path d="M44.4125 47.5433C44.4125 47.2029 44.3494 46.9394 44.2236 46.753C44.0971 46.567 43.8813 46.4739 43.5752 46.4739C43.4237 46.4739 43.295 46.4998 43.189 46.5517C43.0828 46.6035 42.9947 46.6771 42.9243 46.772C42.8541 46.8667 42.8029 46.9797 42.7703 47.1104C42.738 47.2413 42.7219 47.3873 42.7219 47.5486V47.5753H44.4125V47.5433ZM44.6501 47.6944C44.6501 47.7232 44.6401 47.7472 44.6203 47.767C44.6005 47.787 44.5761 47.7971 44.5476 47.7971H42.7219V47.9102C42.7219 48.1372 42.7469 48.3226 42.7975 48.4667C42.8481 48.6108 42.9182 48.7232 43.0082 48.8041C43.0982 48.8852 43.2016 48.9402 43.3187 48.969C43.4356 48.9979 43.5627 49.012 43.6995 49.012C43.8183 49.012 43.9479 49.004 44.0885 48.9876C44.2287 48.9716 44.3654 48.9492 44.499 48.92C44.506 48.92 44.5114 48.9195 44.515 48.9178C44.5185 48.9159 44.5239 48.9149 44.5313 48.9149C44.5527 48.9149 44.5716 48.92 44.5879 48.9314C44.604 48.9418 44.6123 48.9617 44.6123 48.9904V49.0282C44.6123 49.0572 44.6049 49.0796 44.5906 49.0957C44.5761 49.1122 44.5492 49.1237 44.5099 49.131C44.3802 49.1596 44.2431 49.1823 44.099 49.1986C43.955 49.2146 43.8217 49.223 43.6995 49.223C43.5301 49.223 43.3728 49.2018 43.2269 49.1605C43.0812 49.1191 42.9522 49.0491 42.8407 48.9498C42.729 48.8513 42.6416 48.7171 42.5788 48.5474C42.5158 48.3783 42.4844 48.166 42.4844 47.9102V47.5538C42.4844 47.3667 42.5077 47.1946 42.5544 47.038C42.6012 46.8814 42.6703 46.7453 42.7623 46.6304C42.8541 46.5152 42.9675 46.4248 43.1026 46.3602C43.2378 46.2952 43.3952 46.2632 43.5752 46.2632C43.7626 46.2632 43.9236 46.2936 44.0587 46.3551C44.1939 46.4158 44.3052 46.5037 44.3936 46.6166C44.4817 46.7303 44.5464 46.8661 44.5879 47.0246C44.6292 47.183 44.6501 47.3575 44.6501 47.5483V47.6944Z" fill="#56514F"/>
<path d="M48.3927 47.5538C48.3927 47.2227 48.326 46.9596 48.1929 46.7652C48.0597 46.5706 47.8346 46.4739 47.5179 46.4739C47.2009 46.4739 46.9758 46.5706 46.8426 46.7652C46.7094 46.9596 46.6429 47.2227 46.6429 47.5538V47.932C46.6429 48.2633 46.7094 48.5259 46.8426 48.7203C46.9758 48.9149 47.2009 49.012 47.5179 49.012C47.8346 49.012 48.0597 48.9149 48.1929 48.7203C48.326 48.5259 48.3927 48.2633 48.3927 47.932V47.5538ZM48.6305 47.932C48.6305 48.3425 48.5377 48.66 48.3523 48.8852C48.1666 49.1103 47.8887 49.223 47.5179 49.223C47.1468 49.223 46.8689 49.1103 46.6835 48.8852C46.4981 48.66 46.4053 48.3425 46.4053 47.932V47.5538C46.4053 47.1436 46.4981 46.8254 46.6835 46.6006C46.8689 46.3755 47.1468 46.2632 47.5179 46.2632C47.8887 46.2632 48.1666 46.3755 48.3523 46.6006C48.5377 46.8254 48.6305 47.1436 48.6305 47.5538V47.932Z" fill="#56514F"/>
<path d="M51.2123 47.586C51.2123 47.2546 51.1457 46.992 51.0125 46.7974C50.8794 46.6031 50.6543 46.5058 50.3372 46.5058C50.0277 46.5058 49.8045 46.5986 49.6674 46.7839C49.5307 46.9697 49.4622 47.2206 49.4622 47.5376V47.9318C49.4622 48.2631 49.5287 48.5258 49.6623 48.7202C49.7955 48.9148 50.0203 49.0118 50.3372 49.0118C50.6543 49.0118 50.8794 48.9148 51.0125 48.7202C51.1457 48.5258 51.2123 48.2631 51.2123 47.9318V47.586ZM51.4499 47.9318C51.4499 48.3423 51.357 48.6598 51.1716 48.885C50.9863 49.1102 50.708 49.2228 50.3372 49.2228C49.9665 49.2228 49.6882 49.1102 49.5029 48.885C49.3175 48.6598 49.2246 48.3423 49.2246 47.9318V47.0623C49.2246 46.8281 49.247 46.6293 49.2921 46.4653C49.337 46.3018 49.4055 46.1657 49.4974 46.0575C49.5893 45.9496 49.7046 45.864 49.8432 45.801C49.9816 45.738 50.1448 45.687 50.3322 45.6473L50.683 45.5769C50.773 45.5586 50.8486 45.5385 50.9098 45.5147C50.9709 45.4913 51.0205 45.466 51.0583 45.4392C51.0961 45.412 51.124 45.3841 51.1418 45.3556C51.1601 45.3268 51.1726 45.2961 51.18 45.2635C51.187 45.2384 51.1969 45.2176 51.2095 45.2017C51.2222 45.1852 51.2466 45.1772 51.2824 45.1772H51.342C51.3778 45.1772 51.3987 45.1871 51.4041 45.207C51.4092 45.2265 51.4086 45.2583 51.4012 45.3014C51.3724 45.4277 51.3032 45.5284 51.1934 45.6037C51.0836 45.6792 50.9335 45.7373 50.7423 45.7765L50.375 45.8522C50.2419 45.881 50.125 45.9156 50.0241 45.955C49.9233 45.9947 49.8368 46.045 49.7647 46.1062C49.6928 46.1675 49.6341 46.2422 49.5893 46.3303C49.5442 46.4186 49.5109 46.5259 49.4895 46.6517C49.6838 46.4139 49.9665 46.2951 50.3372 46.2951C50.708 46.2951 50.9863 46.4077 51.1716 46.6328C51.357 46.858 51.4499 47.1755 51.4499 47.586V47.9318Z" fill="#56514F"/>
<path d="M53.2216 46.544C53.2143 46.5155 53.2018 46.4905 53.1835 46.4684C53.1655 46.4469 53.1368 46.436 53.097 46.436C53.0574 46.436 53.0286 46.4459 53.0106 46.4658C52.9926 46.4858 52.9802 46.51 52.9729 46.5389L52.1951 49.1205C52.188 49.1387 52.1762 49.1548 52.1602 49.1691C52.1438 49.1835 52.1266 49.1907 52.1086 49.1907H52.0386C51.9844 49.1907 51.9575 49.1618 51.9575 49.1045C51.9575 49.0827 51.9594 49.0664 51.963 49.0555L52.7461 46.4848C52.7711 46.4018 52.8137 46.3371 52.8729 46.2904C52.9325 46.2436 53.0071 46.2202 53.097 46.2202C53.1835 46.2202 53.2565 46.2427 53.3158 46.2875C53.3753 46.3327 53.4176 46.3967 53.4429 46.4793L54.226 49.0555C54.2331 49.0773 54.2366 49.0952 54.2366 49.1096C54.2366 49.1638 54.2081 49.1907 54.1505 49.1907H54.0855C54.0422 49.1907 54.0134 49.1673 53.999 49.1205L53.2216 46.544Z" fill="#56514F"/>
<path d="M56.4675 47.6621H56.0516C55.8464 47.6621 55.6745 47.6726 55.5358 47.6944C55.3972 47.7159 55.2848 47.751 55.1984 47.7994C55.1119 47.8484 55.0498 47.9121 55.012 47.9912C54.9742 48.0706 54.9553 48.1679 54.9553 48.283V48.3534C54.9553 48.4792 54.9704 48.5848 55.0011 48.6691C55.0318 48.7538 55.0741 48.8214 55.1282 48.8716C55.1823 48.9219 55.2441 48.9582 55.3145 48.9799C55.3847 49.0013 55.4612 49.012 55.5438 49.012C55.6953 49.012 55.8419 48.9904 55.9841 48.9473C56.1266 48.9044 56.2876 48.8339 56.4675 48.7366V47.6621ZM56.7052 49.0824C56.7052 49.1112 56.6945 49.1366 56.6728 49.1584C56.6513 49.1797 56.626 49.1904 56.5975 49.1904H56.5703C56.5415 49.1904 56.5162 49.1797 56.4948 49.1584C56.473 49.1366 56.4624 49.1112 56.4624 49.0824V48.9473C56.3289 49.0194 56.1848 49.0834 56.0302 49.139C55.8755 49.1951 55.7131 49.223 55.5438 49.223C55.4433 49.223 55.3434 49.2092 55.2441 49.1823C55.1452 49.1554 55.0569 49.1083 54.9796 49.0417C54.9022 48.9751 54.8391 48.8862 54.7904 48.7743C54.7421 48.6629 54.7178 48.5223 54.7178 48.3534V48.283C54.7178 48.1427 54.7411 48.0209 54.7878 47.9182C54.8346 47.8158 54.9102 47.7296 55.0148 47.6592C55.1192 47.5887 55.2566 47.5369 55.4279 47.5026C55.5989 47.4683 55.807 47.4511 56.0516 47.4511H56.4675V47.2567C56.4675 47.1164 56.4569 46.9967 56.4352 46.8978C56.4137 46.7985 56.3766 46.7175 56.3244 46.6544C56.2722 46.5917 56.2021 46.5455 56.1138 46.517C56.0257 46.4883 55.9168 46.4739 55.7871 46.4739C55.6969 46.4739 55.6188 46.4746 55.5521 46.4764C55.4855 46.478 55.4234 46.4819 55.3658 46.4873C55.3082 46.4924 55.2524 46.4979 55.1984 46.5037C55.1443 46.5088 55.085 46.5152 55.0203 46.5222H54.9985C54.9733 46.5222 54.9498 46.516 54.9284 46.5037C54.9066 46.4905 54.8961 46.47 54.8961 46.4412V46.4089C54.8961 46.3551 54.9371 46.3224 55.0203 46.3116C55.0776 46.3045 55.1327 46.298 55.1849 46.2927C55.2371 46.2871 55.2927 46.2818 55.3524 46.2767C55.4116 46.2712 55.4765 46.2673 55.5467 46.2655C55.6168 46.2638 55.6969 46.2632 55.7871 46.2632C55.9706 46.2632 56.1211 46.2871 56.2379 46.3358C56.3552 46.3845 56.4487 46.4528 56.5187 46.5411C56.5892 46.6295 56.6375 46.7348 56.6648 46.8571C56.6916 46.9797 56.7052 47.1129 56.7052 47.2567V49.0824Z" fill="#56514F"/>
<path d="M59.2708 49.1366C59.2708 49.1938 59.2365 49.223 59.168 49.223C59.1357 49.223 59.1078 49.2191 59.0844 49.2117C59.0611 49.2047 59.0349 49.1867 59.006 49.1584L57.699 47.759V49.0877C57.699 49.1167 57.6891 49.1409 57.6695 49.1605C57.6497 49.1807 57.6251 49.1904 57.5966 49.1904H57.5643C57.5351 49.1904 57.5111 49.1807 57.4912 49.1605C57.4713 49.1409 57.4614 49.1167 57.4614 49.0877V46.3925C57.4614 46.3637 57.4713 46.3397 57.4912 46.3195C57.5111 46.2999 57.5351 46.29 57.5643 46.29H57.5966C57.6251 46.29 57.6497 46.2999 57.6695 46.3195C57.6891 46.3397 57.699 46.3637 57.699 46.3925V47.5538L59.0278 46.3116C59.0636 46.2792 59.1068 46.2632 59.1575 46.2632C59.1898 46.2632 59.216 46.2731 59.2356 46.2927C59.2554 46.3125 59.2654 46.335 59.2654 46.3602C59.2654 46.3925 59.2526 46.4197 59.2275 46.4412L57.9042 47.6508L59.233 49.0552C59.2583 49.0877 59.2708 49.1147 59.2708 49.1366Z" fill="#56514F"/>
<path d="M61.5333 47.5538C61.5333 47.2227 61.4668 46.9596 61.3339 46.7652C61.2004 46.5706 60.9756 46.4739 60.6586 46.4739C60.3416 46.4739 60.1169 46.5706 59.9836 46.7652C59.8501 46.9596 59.7835 47.2227 59.7835 47.5538V47.932C59.7835 48.2633 59.8501 48.5259 59.9836 48.7203C60.1169 48.9149 60.3416 49.012 60.6586 49.012C60.9756 49.012 61.2004 48.9149 61.3339 48.7203C61.4668 48.5259 61.5333 48.2633 61.5333 47.932V47.5538ZM61.7713 47.932C61.7713 48.3425 61.6783 48.66 61.493 48.8852C61.3076 49.1103 61.0294 49.223 60.6586 49.223C60.2878 49.223 60.0096 49.1103 59.8242 48.8852C59.6388 48.66 59.5459 48.3425 59.5459 47.932V47.5538C59.5459 47.1436 59.6388 46.8254 59.8242 46.6006C60.0096 46.3755 60.2878 46.2632 60.6586 46.2632C61.0294 46.2632 61.3076 46.3755 61.493 46.6006C61.6783 46.8254 61.7713 47.1436 61.7713 47.5538V47.932Z" fill="#56514F"/>
<path d="M160.223 37.7294C159.42 35.469 158.066 33.4687 156.325 31.8893C156.459 30.767 156.53 29.6249 156.53 28.4662C156.53 12.7446 143.785 0 128.064 0C117.225 0 107.803 6.05791 102.994 14.9715C99.3557 12.5448 94.9856 11.1292 90.284 11.1292C77.6172 11.1292 67.3486 21.3975 67.3486 34.0646C67.3486 46.7311 77.6172 57 90.284 57C90.8789 57 91.4686 56.977 92.052 56.9328H145.641V56.896C145.98 56.9196 146.322 56.9328 146.667 56.9328C154.61 56.9328 161.051 50.4926 161.051 42.5486C161.051 40.8583 160.759 39.2363 160.223 37.7294Z" fill="#0091D1"/>
<path d="M81.4989 42.5554C80.3042 42.5554 79.181 42.3364 78.1302 41.8978C77.0787 41.4591 76.164 40.8582 75.385 40.0943C74.606 39.3305 73.9899 38.4267 73.5359 37.3828C73.0822 36.3393 72.8555 35.213 72.8555 34.0028C72.8555 32.8081 73.0783 31.6965 73.5246 30.6679C73.9706 29.6394 74.5796 28.7433 75.351 27.9794C76.1223 27.2159 77.0297 26.6181 78.0735 26.1872C79.1169 25.7562 80.236 25.5405 81.4313 25.5405C82.9431 25.5405 84.3235 25.8694 85.5712 26.5275C86.8194 27.1854 87.8513 28.1346 88.6681 29.3746C88.9252 29.7982 89.1522 30.2366 89.3488 30.6904C89.5451 31.144 89.6811 31.6131 89.757 32.0969H85.3785C85.0458 31.2501 84.5313 30.558 83.8359 30.0212C83.1397 29.4843 82.3387 29.2158 81.4313 29.2158C80.7653 29.2158 80.1604 29.3484 79.6161 29.6129C79.0715 29.8776 78.6066 30.2291 78.2208 30.6679C77.8353 31.1065 77.5401 31.6131 77.3358 32.1878C77.1318 32.7626 77.0297 33.3675 77.0297 34.0028C77.0297 34.638 77.1318 35.2466 77.3358 35.8291C77.5401 36.4114 77.8353 36.9292 78.2208 37.3828C78.6066 37.8366 79.0715 38.1996 79.6161 38.4722C80.1604 38.744 80.7653 38.8804 81.4313 38.8804C82.3684 38.8804 83.1699 38.6233 83.8359 38.1091C84.5011 37.5948 85.0158 36.9292 85.3785 36.1123H89.757C89.5149 37.0806 89.1329 37.9614 88.6111 38.7554C88.0895 39.5495 87.4655 40.2265 86.7399 40.7861C86.0138 41.3458 85.2046 41.7806 84.3123 42.0903C83.4196 42.4004 82.4821 42.5554 81.4989 42.5554Z" fill="#FEFEFE"/>
<path d="M90.9141 25.5405H95.2472V38.7216H100.306V42.5554H90.9141V25.5405Z" fill="#FEFEFE"/>
<path d="M109.902 29.1933C109.236 29.1933 108.628 29.3217 108.076 29.5787C107.524 29.8361 107.055 30.1838 106.67 30.6224C106.284 31.0612 105.985 31.5678 105.773 32.1425C105.561 32.7175 105.456 33.33 105.456 33.98C105.456 34.6456 105.561 35.2729 105.773 35.8629C105.985 36.4528 106.287 36.9669 106.681 37.4056C107.074 37.8446 107.551 38.1962 108.11 38.4603C108.67 38.7257 109.29 38.8576 109.97 38.8576C110.621 38.8576 111.218 38.7257 111.763 38.4603C112.307 38.1962 112.772 37.8407 113.158 37.394C113.544 36.9484 113.842 36.4339 114.054 35.8518C114.266 35.2696 114.372 34.6687 114.372 34.0479C114.372 33.4129 114.266 32.8039 114.054 32.2219C113.842 31.6398 113.54 31.1215 113.147 30.6679C112.753 30.2141 112.28 29.8549 111.729 29.59C111.176 29.3258 110.568 29.1933 109.902 29.1933ZM109.88 42.5554C108.715 42.5554 107.611 42.3438 106.567 41.9202C105.524 41.4971 104.609 40.9107 103.823 40.1621C103.036 39.4135 102.412 38.5285 101.951 37.5078C101.489 36.4867 101.259 35.3865 101.259 34.2066C101.259 32.9816 101.478 31.8172 101.917 30.7132C102.158 30.0777 102.514 29.473 102.983 28.8981C103.83 27.779 104.839 26.9396 106.012 26.3799C107.183 25.8206 108.481 25.5405 109.902 25.5405C111.097 25.5405 112.22 25.7562 113.271 26.1872C114.323 26.6181 115.241 27.2159 116.028 27.9794C116.814 28.7433 117.434 29.6432 117.888 30.6791C118.342 31.7153 118.569 32.8382 118.569 34.0479C118.569 35.2581 118.342 36.381 117.888 37.4171C117.434 38.4533 116.814 39.3529 116.028 40.1166C115.241 40.8805 114.318 41.4776 113.26 41.909C112.201 42.3403 111.075 42.5554 109.88 42.5554Z" fill="#FEFEFE"/>
<path d="M134.971 25.5405V42.5554H126.01C125.117 42.5256 124.24 42.3781 123.378 42.1132C122.516 41.8485 121.782 41.3912 121.177 40.7404C120.8 40.3324 120.497 39.9315 120.27 39.5383C120.043 39.1452 119.873 38.7405 119.76 38.3244C119.646 37.9087 119.57 37.4703 119.533 37.0086C119.495 36.5474 119.476 36.0522 119.476 35.5228V25.5405H123.809V35.5228C123.809 35.9008 123.832 36.2827 123.878 36.6685C123.923 37.0541 124.021 37.3982 124.172 37.7005C124.323 38.0034 124.547 38.2528 124.842 38.449C125.137 38.6457 125.526 38.744 126.01 38.744H131.16V25.5405H134.971Z" fill="#FEFEFE"/>
<path d="M142.276 29.3521H140.371V38.744H142.231C142.972 38.744 143.607 38.6309 144.136 38.4039C144.666 38.1769 145.1 37.8561 145.441 37.4396C145.781 37.024 146.027 36.5285 146.178 35.9536C146.329 35.3788 146.405 34.7439 146.405 34.0479C146.405 33.3675 146.326 32.7437 146.167 32.1763C146.008 31.6094 145.758 31.114 145.418 30.6904C145.078 30.2672 144.651 29.9383 144.136 29.7035C143.622 29.4693 143.002 29.3521 142.276 29.3521ZM141.981 42.5554H136.037V25.5405H141.664C142.435 25.5405 143.169 25.5823 143.864 25.6652C144.56 25.7486 145.222 25.9035 145.849 26.1304C146.477 26.3573 147.067 26.6788 147.619 27.0945C148.171 27.5107 148.689 28.0513 149.173 28.7167C149.732 29.4881 150.133 30.3239 150.375 31.2234C150.617 32.1236 150.738 33.0499 150.738 34.0028C150.738 35.3942 150.546 36.6228 150.16 37.6892C149.774 38.7554 149.207 39.6478 148.458 40.3664C147.71 41.0848 146.791 41.6295 145.702 41.9996C144.613 42.3704 143.373 42.5554 141.981 42.5554Z" fill="#FEFEFE"/>
</svg>
