<svg width="95" height="94" viewBox="0 0 95 94" fill="none" xmlns="http://www.w3.org/2000/svg">
<path d="M93.2231 55.7294C92.4194 53.469 91.0664 51.4687 89.3246 49.8893C89.459 48.767 89.5298 47.6249 89.5298 46.4662C89.5298 30.7446 76.7852 18 61.0636 18C50.2254 18 40.8025 24.0579 35.9939 32.9715C32.3556 30.5448 27.9855 29.1292 23.2839 29.1292C10.6171 29.1292 0.348572 39.3975 0.348572 52.0646C0.348572 64.7311 10.6171 75 23.2839 75C23.8788 75 24.4686 74.977 25.052 74.9328H78.641V74.896C78.9798 74.9196 79.3217 74.9328 79.6666 74.9328C87.6103 74.9328 94.0505 68.4926 94.0505 60.5486C94.0505 58.8583 93.7588 57.2363 93.2231 55.7294Z" fill="#0059F7"/>
<path d="M14.4988 60.5555C13.3041 60.5555 12.181 60.3365 11.1301 59.8979C10.0787 59.4592 9.1639 58.8583 8.38491 58.0944C7.60591 57.3306 6.98983 56.4268 6.53584 55.3829C6.08213 54.3394 5.85541 53.2131 5.85541 52.0029C5.85541 50.8082 6.07822 49.6966 6.52459 48.668C6.97058 47.6395 7.57959 46.7434 8.35096 45.9796C9.12224 45.216 10.0297 44.6182 11.0734 44.1873C12.1169 43.7563 13.236 43.5406 14.4312 43.5406C15.9431 43.5406 17.3235 43.8696 18.5711 44.5276C19.8193 45.1855 20.8512 46.1348 21.668 47.3747C21.9251 47.7983 22.1521 48.2367 22.3487 48.6905C22.545 49.1441 22.6811 49.6133 22.7569 50.097H18.3785C18.0457 49.2502 17.5312 48.5582 16.8358 48.0213C16.1397 47.4845 15.3386 47.2159 14.4312 47.2159C13.7652 47.2159 13.1604 47.3485 12.6161 47.613C12.0714 47.8777 11.6065 48.2292 11.2207 48.668C10.8353 49.1066 10.54 49.6133 10.3357 50.188C10.1318 50.7627 10.0297 51.3677 10.0297 52.0029C10.0297 52.6381 10.1318 53.2467 10.3357 53.8292C10.54 54.4115 10.8353 54.9293 11.2207 55.3829C11.6065 55.8367 12.0714 56.1998 12.6161 56.4723C13.1604 56.7441 13.7652 56.8805 14.4312 56.8805C15.3684 56.8805 16.1698 56.6234 16.8358 56.1093C17.5011 55.5949 18.0157 54.9293 18.3785 54.1124H22.7569C22.5149 55.0808 22.1329 55.9615 21.611 56.7556C21.0894 57.5496 20.4654 58.2266 19.7399 58.7863C19.0137 59.346 18.2046 59.7807 17.3122 60.0904C16.4196 60.4005 15.482 60.5555 14.4988 60.5555Z" fill="#FEFEFE"/>
<path d="M23.9141 43.5406H28.2472V56.7217H33.3063V60.5555H23.9141V43.5406Z" fill="#FEFEFE"/>
<path d="M42.9025 47.1934C42.2365 47.1934 41.6282 47.3218 41.0762 47.5789C40.5242 47.8363 40.0554 48.184 39.6696 48.6225C39.2841 49.0613 38.9851 49.5679 38.7734 50.1426C38.5615 50.7176 38.4561 51.3301 38.4561 51.9801C38.4561 52.6458 38.5615 53.273 38.7734 53.863C38.9851 54.4529 39.2873 54.967 39.6811 55.4057C40.074 55.8447 40.5508 56.1963 41.1104 56.4604C41.6698 56.7258 42.29 56.8578 42.9704 56.8578C43.621 56.8578 44.2184 56.7258 44.7628 56.4604C45.3071 56.1963 45.7723 55.8408 46.1578 55.3942C46.5436 54.9485 46.842 54.434 47.0539 53.852C47.2656 53.2697 47.3716 52.6688 47.3716 52.048C47.3716 51.413 47.2656 50.804 47.0539 50.222C46.842 49.6399 46.5398 49.1216 46.1466 48.668C45.7534 48.2142 45.2805 47.855 44.7288 47.5901C44.1765 47.3259 43.5681 47.1934 42.9025 47.1934ZM42.8798 60.5555C41.7149 60.5555 40.6109 60.3439 39.5675 59.9203C38.524 59.4973 37.6086 58.9109 36.8225 58.1622C36.0358 57.4136 35.4121 56.5286 34.9507 55.5079C34.4893 54.4868 34.2588 53.3866 34.2588 52.2067C34.2588 50.9817 34.4778 49.8173 34.9168 48.7133C35.1585 48.0779 35.5139 47.4731 35.983 46.8982C36.8299 45.7791 37.8394 44.9397 39.0116 44.38C40.1835 43.8207 41.4805 43.5406 42.9025 43.5406C44.097 43.5406 45.2203 43.7563 46.2714 44.1873C47.3226 44.6182 48.2412 45.216 49.0279 45.9796C49.814 46.7434 50.4345 47.6433 50.8882 48.6792C51.3418 49.7155 51.5689 50.8383 51.5689 52.048C51.5689 53.2582 51.3418 54.3811 50.8882 55.4172C50.4345 56.4534 49.814 57.3531 49.0279 58.1167C48.2412 58.8806 47.3184 59.4778 46.2602 59.9091C45.2014 60.3404 44.0746 60.5555 42.8798 60.5555Z" fill="#FEFEFE"/>
<path d="M67.9714 43.5406V60.5555H59.01C58.1174 60.5258 57.2404 60.3782 56.3781 60.1133C55.5162 59.8486 54.7823 59.3914 54.1775 58.7405C53.7997 58.3325 53.4971 57.9316 53.2701 57.5384C53.0431 57.1453 52.8731 56.7406 52.7597 56.3246C52.6464 55.9088 52.5705 55.4704 52.5331 55.0087C52.495 54.5475 52.4761 54.0524 52.4761 53.523V43.5406H56.8094V53.523C56.8094 53.9009 56.8321 54.2828 56.8776 54.6686C56.9228 55.0542 57.0211 55.3983 57.1725 55.7007C57.3233 56.0035 57.5468 56.2529 57.8417 56.4492C58.1365 56.6458 58.5256 56.7441 59.01 56.7441H64.1599V43.5406H67.9714Z" fill="#FEFEFE"/>
<path d="M75.2763 47.3522H73.3709V56.7441H75.2308C75.9721 56.7441 76.6069 56.631 77.1365 56.4041C77.6661 56.1771 78.1006 55.8562 78.4413 55.4397C78.7813 55.0241 79.0272 54.5287 79.1784 53.9537C79.3295 53.3789 79.4051 52.744 79.4051 52.048C79.4051 51.3677 79.3257 50.7439 79.1671 50.1764C79.0084 49.6095 78.7586 49.1141 78.4182 48.6905C78.0782 48.2674 77.6508 47.9385 77.1365 47.7037C76.6224 47.4694 76.0021 47.3522 75.2763 47.3522ZM74.9814 60.5555H69.0372V43.5406H74.6637C75.4351 43.5406 76.1687 43.5824 76.8644 43.6654C77.5598 43.7488 78.2217 43.9036 78.8495 44.1305C79.4768 44.3574 80.0668 44.679 80.6188 45.0947C81.1708 45.5108 81.6889 46.0514 82.173 46.7168C82.7324 47.4882 83.1333 48.324 83.3756 49.2235C83.6174 50.1237 83.7381 51.05 83.7381 52.0029C83.7381 53.3943 83.5457 54.6229 83.1601 55.6893C82.7743 56.7556 82.2069 57.6479 81.4584 58.3666C80.7098 59.0849 79.7908 59.6296 78.702 59.9997C77.6133 60.3706 76.3729 60.5555 74.9814 60.5555Z" fill="#FEFEFE"/>
</svg>
