<svg width="225" height="78" viewBox="0 0 225 78" fill="none" xmlns="http://www.w3.org/2000/svg">
<path d="M40.4228 38.6687C40.4228 29.985 34.6612 25.0524 26.5043 25.0524H21.5121V52.294H26.3623C33.9467 52.294 40.4228 48.1721 40.4228 38.6687ZM129.224 48.4698L92.4466 77.4289L58.8342 50.9659C53.9841 62.6173 42.2639 70.7101 28.7668 70.7101H0V6.62722H28.7668C43.8486 6.62722 54.7168 16.2177 58.8251 26.4356L92.4466 1.12481e-05L104.9 9.80113L74.0855 34.02L80.0074 38.6549L110.812 14.4498L123.283 24.2234L92.4741 48.4698L98.3868 53.1139L129.224 28.8629V6.62722H151.579V52.0055H173.878V70.7879H129.224V48.4698ZM202.196 52.0147H224.487V70.7879H179.819V6.62722H202.196V52.0147Z" fill="#007DB8"/>
</svg>
