<svg width="504" height="100" viewBox="0 0 504 100" fill="none" xmlns="http://www.w3.org/2000/svg">
<path d="M259.565 20V53.8431C259.565 63.4483 254.8 68.5757 246.139 68.5757C237.429 68.5757 232.634 63.2983 232.634 53.4333V20.04H220.647V53.8431C220.647 70.4748 229.877 80 245.979 80C262.232 80 271.552 70.2849 271.552 53.3533V20H259.565ZM303.657 20L277.625 79.0805H289.862L294.886 67.6362L295.246 66.7766H322.277L327.581 79.0805H340.147L314.365 20.3498L314.126 20H303.657ZM374.91 20L361.494 60.6497L348.438 20.03H335.682L356.27 79.1204H366.199L379.635 40.2999L393.06 79.1204H403.069L423.607 20.03H411.18L398.095 60.6497L384.679 20H374.91ZM492.183 20V79.0305H504V20H492.183ZM153 20V79.1104H164.987V55.1024H192.048V79.1104H204.035V20H192.048V43.8481H164.977V20H153ZM433.277 20.04V79.0705H477.888V68.3159H445.094V53.6732H466.9V42.9086H445.094V30.8146H476.74V20.04H433.277ZM308.741 34.9625L317.282 54.7526H317.252L317.832 56.112H299.701L300.281 54.7526L308.741 34.9625Z" fill="#232527"/>
<path d="M56.7894 0.00372537C55.0123 0.160191 50.2111 1.25172 50.2111 1.25172C39.3841 4.04575 36.8267 13.8435 36.8267 13.8435C36.3299 15.4422 36.0475 17.0994 35.9867 18.7721V20.9366C36.1323 24.2857 36.8752 26.7854 36.8752 26.7854C40.4929 42.7784 58.2678 69.0683 62.0909 74.5856C62.3597 74.8538 62.5762 74.7569 62.5762 74.7569C62.9869 74.6452 62.957 74.2503 62.957 74.2503H62.9645C68.8484 15.5609 56.7894 0.00372537 56.7894 0.00372537ZM76.2331 0.00372537C76.2331 0.00372537 64.1219 15.5683 70.0095 74.2912H70.0169C70.0617 74.6638 70.3268 74.7383 70.3268 74.7383C70.7226 74.8948 70.9242 74.5148 70.9242 74.5148V74.5185C74.8443 68.8559 92.5184 42.715 96.1174 26.7779C96.1174 26.7779 98.07 19.0664 96.1846 13.8397C96.1846 13.8397 93.5115 3.88928 82.6733 1.25917C82.6733 1.25917 79.5484 0.465671 76.2331 0V0.00372537ZM20.3623 17.6247C20.3623 17.6247 10.0505 27.3889 9.53529 37.7417H9.53902V39.3138C9.55022 39.4293 9.55395 39.5522 9.56142 39.6714C10.0094 48.02 16.3003 52.9635 16.3003 52.9635C26.444 62.8246 51.0026 75.2785 56.7072 78.1023C56.7894 78.1321 57.0806 78.229 57.2561 78.0129C57.2561 78.0129 57.3457 77.9421 57.3867 77.8192V77.5584C57.3867 77.5472 57.3755 77.5323 57.3681 77.5137C41.7474 43.4489 20.3623 17.6247 20.3623 17.6247ZM112.634 17.6247C112.634 17.6247 91.3162 43.367 75.6955 77.3647H75.703C75.703 77.3647 75.5163 77.7596 75.815 78.0129C75.815 78.0129 75.9046 78.0799 76.0278 78.106H76.2443C76.288 78.0955 76.3296 78.0779 76.3675 78.0539C82.229 75.1555 106.597 62.7799 116.689 52.9635C116.689 52.9635 123.084 47.8412 123.42 39.6193C124.159 28.1936 112.634 17.6247 112.634 17.6247ZM131.82 51.4436C131.82 51.4436 97.0694 70.0518 79.1004 82.1443L79.1041 82.1518C79.1041 82.1518 78.7793 82.3641 78.8913 82.7478C78.8913 82.7478 79.0631 83.0533 79.3132 83.0533C85.7459 83.0682 110.099 83.0943 110.711 82.9788C110.711 82.9788 113.859 82.8559 117.753 81.362C117.753 81.362 126.414 78.6164 130.913 68.8038C130.913 68.8038 132.966 64.6984 133 58.9316V58.6894C132.99 56.2271 132.594 53.7818 131.82 51.4436ZM1.16866 51.5255C-1.99356 61.2934 2.26255 69.1651 2.27002 69.1763C6.70534 78.527 15.1728 81.362 15.1728 81.362C19.0817 82.9639 22.9906 83.0757 22.9906 83.0757C23.6029 83.1874 47.3065 83.0868 53.657 83.057C53.9258 83.057 54.0752 82.7851 54.0752 82.7851C54.0927 82.7585 54.1066 82.7297 54.1162 82.6994V82.4535C54.0773 82.3459 54.0118 82.2498 53.9258 82.1741C35.9717 70.0853 1.17239 51.5255 1.17239 51.5255H1.16866ZM52.9327 86.0597L12.0516 87.4902C16.4832 95.3768 23.9501 101.505 31.7268 99.62C37.0955 98.2826 49.2553 89.8223 53.2688 86.9612L53.2538 86.95C53.5674 86.6706 53.4554 86.4434 53.4554 86.4434C53.3546 86.0783 52.9327 86.0783 52.9327 86.0783V86.0597ZM80.0076 86.0895L80.0039 86.1044C80.0039 86.1044 79.6455 86.1491 79.5447 86.4173C79.5447 86.4173 79.4588 86.7861 79.6977 86.9649C83.6067 89.7664 95.4715 98.0479 101.187 99.6535C101.187 99.6535 102.054 99.9516 103.506 100H104.379C108.206 99.8659 114.878 97.9026 120.941 87.5126L80.0076 86.0895Z" fill="#CF0A2C"/>
</svg>
