<svg width="601" height="120" viewBox="0 0 601 120" fill="none" xmlns="http://www.w3.org/2000/svg">
<path d="M275.8 86.7H289.2V17.3L275.8 29.9V86.7ZM246.2 86.7H259.6V37.6H246.2V86.7ZM246.2 29.8H259.6V17.6H246.2V29.8ZM216.1 36.1C209 35.8 202.2 39.5 198.6 45.6C196.7 39.5 190.8 35.5 184.4 36.1C177.4 36.1 170.9 39.8 167.3 45.8H167.2C167.2 43.3 167.2 37.4 167.2 37.4H155.2V86.7H168.2V61.7C168.2 52.6 173.2 46.1 179.2 46.1C184.5 46.1 187.7 50.7 187.7 56.8V86.6H200.2V62.1C200.2 52.2 204.8 46 211 46C216.5 46 219.7 50.6 219.7 59.1V86.5H232.8V57.7C232.9 45.8 228.5 36.1 216.1 36.1ZM462.7 36.1C446.6 36.1 435.6 46.2 435.6 62C435.8 76.7 448 88.5 462.7 88.3C477.1 88.1 488.7 76.5 489 62.1C489.6 48.3 478.9 36.7 465.1 36.1C464.3 36.1 463.5 36.1 462.7 36.1ZM462.2 78.8C454.3 78.8 449.5 71.7 449.5 62.1C449.5 51.6 454.5 45.2 462.3 45.2C470.2 45.2 475.3 51.5 475.3 61.6C475.3 71.8 470.4 78.8 462.2 78.8ZM526.2 36.1C519.6 35.8 513.3 39.2 510 44.9H509.8V37.3L496.8 37.2V86.6H509.6V64.4C509.4 60.5 510.1 56.6 511.7 53C513.8 49 517.8 46.5 522.3 46.3C530.9 46.3 531.7 53.6 531.7 63V86.6H544.5V58C544.5 44.9 539.5 36.1 526.2 36.1ZM425 77.3C418.7 77.3 416.9 73.6 416.9 66.2V47.4H429.6V37.4H416.9V17.5L404.6 29.1V37.3H394.8V47.3H404.4V68.7C404.4 81.7 409.6 87.5 421.1 87.5C424.2 87.6 427.4 87.2 430.4 86.3L430.1 76.5C428.4 77 426.7 77.3 425 77.3ZM600.6 62.7C600.6 45 592.8 36.1 578.3 36.1C564.7 35.7 553.3 46.4 552.9 60C552.9 60.6 552.9 61.3 552.9 61.9C552.9 78.4 564 88.2 580.5 88.2C586.2 88.3 591.9 87.2 597.2 85L597 74.5C592.5 77.2 587.3 78.6 582.1 78.5C573.1 78.5 566.5 72.9 566.3 65.4H600.5C600.5 64.5 600.6 63.6 600.6 62.7ZM566 57.3C566.8 48.6 572.1 45.2 577.8 45.2C584.2 45.2 588.6 48.5 588.6 57.3H566ZM346.6 62.7C346.6 45 338.8 36.1 324.3 36.1C310.7 35.7 299.3 46.4 298.9 60C298.9 60.6 298.9 61.3 298.9 61.9C298.9 78.4 310 88.2 326.5 88.2C332.2 88.3 337.9 87.2 343.2 85L343 74.5C338.5 77.2 333.3 78.6 328.1 78.5C319.1 78.5 312.5 72.9 312.3 65.4H346.5C346.6 64.5 346.6 63.6 346.6 62.7ZM312 57.3C312.8 48.6 318.1 45.2 323.8 45.2C330.2 45.2 334.6 48.5 334.6 57.3H312ZM376.2 57.6C369.1 55.3 366.7 53.8 366.7 50.5C366.7 47.2 370.3 45 374.6 45C378.6 45 382.6 45.9 386.2 47.6V37.7C382.3 36.4 378.1 35.8 374 35.9C362 35.9 353.8 42 353.8 51.3C353.8 58.5 358.3 61.9 367.8 65.1C375.8 67.9 377.6 69.5 377.6 73C377.6 76.5 373.5 78.6 369.1 78.6C364.3 78.5 359.6 77.5 355.2 75.4V85.7C359.9 87.2 364.8 88 369.7 87.9C381.8 87.9 390.6 82 390.6 71.9C390.8 63.6 385.1 60.5 376.2 57.6ZM61.8 120L0.600012 60L61.8 0L123 60L61.8 120Z" fill="#0099DA"/>
</svg>
