<svg width="390" height="72" viewBox="0 0 390 72" fill="none" xmlns="http://www.w3.org/2000/svg">
<path d="M165.935 13.0987C160.912 13.0987 155.694 14.4734 149.237 17.9462L152.824 26.8545C158.432 23.7102 163.065 22.3355 166.457 22.3355C170.306 22.3355 172.002 23.7765 172.002 25.6757V25.8054C172.002 27.1167 170.957 27.8372 168.414 28.0995L163.98 28.5577C152.89 29.7365 148.324 34.584 148.324 41.2645V41.7227C148.324 48.0775 153.542 53.0547 160.912 53.0547C165.765 53.0547 169.981 50.997 172.544 47.3657L173.371 52.4005H183.416V29.5405C183.416 18.733 177.219 13.0987 165.935 13.0987ZM164.956 44.3396C161.239 44.3396 159.477 42.8986 159.477 40.6708V40.5411C159.477 38.5756 160.585 37.1346 164.629 36.5466L166.391 36.2844C168.965 35.9241 170.547 35.4486 172.002 34.5638V37.4631C172.002 41.8524 169.261 44.3396 164.956 44.3396Z" fill="#F04E23"/>
<path d="M39.2528 45.7085L71.4829 13.361L58.6253 0.458237L45.7677 13.361L52.1678 19.782L19.952 52.1354L32.7953 65.0467L45.6529 52.1354L39.2528 45.7085Z" fill="#F04E23"/>
<path d="M32.9334 0.454409L0.706909 32.8157L13.5569 45.7194L45.7834 13.3582L32.9334 0.454409Z" fill="#F04E23"/>
<path d="M77.8724 19.7956L45.6459 52.1569L58.4959 65.0606L90.7224 32.6994L77.8724 19.7956Z" fill="#F04E23"/>
<path d="M201.342 0H189.928V52.3948H201.342V0Z" fill="#F04E23"/>
<path d="M129.141 13.0987C123.952 13.0987 119.785 15.4043 117.492 19.0154L116.619 13.7529H106.574V65.4848H117.988V47.5501C120.161 50.9134 124.271 53.0403 129.141 53.0403C138.273 53.0403 145.71 44.9189 145.71 33.7165V32.4052C145.71 21.2115 138.273 13.0872 129.141 13.0872M133.968 33.3937C133.968 39.2874 130.903 43.547 125.815 43.547C120.726 43.547 117.661 39.2903 117.661 33.3937V32.7395C117.661 26.8429 120.726 22.5862 125.815 22.5862C130.903 22.5862 133.968 26.8429 133.968 32.7395V33.3937Z" fill="#F04E23"/>
<path d="M355.441 13.0987C343.766 13.0987 335.546 21.2202 335.546 32.4225V33.7338C335.546 44.9333 343.766 53.0576 355.441 53.0576C367.116 53.0576 375.336 44.9361 375.336 33.7338V32.4225C375.336 21.223 367.116 13.0987 355.441 13.0987ZM363.594 33.4053C363.594 39.299 360.529 43.5585 355.441 43.5585C350.352 43.5585 347.287 39.3018 347.287 33.4053V32.751C347.287 26.8545 350.352 22.5978 355.441 22.5978C360.529 22.5978 363.594 26.8545 363.594 32.751V33.4053Z" fill="#F04E23"/>
<path d="M385.863 15.459V15.2631C385.863 14.1506 385.016 13.3638 383.515 13.3638H380.906V19.3901H382.146V17.3583H383.524L384.56 19.3901H385.929L384.654 17.0067C385.429 16.7675 385.863 16.1853 385.863 15.459ZM382.143 14.4763H383.512C384.296 14.4763 384.62 14.7385 384.62 15.3294V15.3956C384.62 15.9202 384.293 16.2458 383.512 16.2458H382.143V14.4763Z" fill="#F04E23"/>
<path d="M383.28 10.1533C379.758 10.1533 377.083 12.8393 377.083 16.3755C377.083 19.9117 379.758 22.5978 383.28 22.5978C386.801 22.5978 389.476 19.9117 389.476 16.3755C389.476 12.8393 386.801 10.1533 383.28 10.1533ZM383.28 21.7447C380.215 21.7447 377.996 19.5169 377.996 16.3726C377.996 13.2284 380.215 11.0006 383.28 11.0006C386.345 11.0006 388.563 13.2284 388.563 16.3726C388.563 19.5169 386.345 21.7447 383.28 21.7447Z" fill="#F04E23"/>
<path d="M301.993 0H290.579V52.3948H301.993V0Z" fill="#F04E23"/>
<path d="M324.445 43.547C321.118 43.547 319.878 41.91 319.878 38.3738V22.5862H333.316V13.7443H319.878V4.8994L308.464 6.60266V39.4863C308.464 48.4608 313.031 53.0461 322.163 53.0461C326.207 53.0461 330.968 51.8011 334.883 49.5733L331.623 41.4518C329.335 42.6968 326.141 43.5499 324.445 43.5499" fill="#F04E23"/>
<path d="M266.442 13.0987C261.419 13.0987 256.202 14.4734 249.744 17.9462L253.332 26.8545C258.94 23.7102 263.572 22.3355 266.964 22.3355C270.813 22.3355 272.509 23.7765 272.509 25.6757V25.8054C272.509 27.1167 271.464 27.8372 268.922 28.0995L264.488 28.5577C253.398 29.7365 248.832 34.584 248.832 41.2645V41.7227C248.832 48.0775 254.049 53.0547 261.419 53.0547C266.27 53.0547 270.489 50.997 273.052 47.3657L273.878 52.4005H283.923V29.5405C283.923 18.733 277.727 13.0987 266.442 13.0987ZM265.463 44.3396C261.744 44.3396 259.984 42.8986 259.984 40.6708V40.5411C259.984 38.5756 261.092 37.1346 265.136 36.5466L266.898 36.2844C269.473 35.9241 271.054 35.4486 272.506 34.5638V37.4631C272.506 41.8524 269.768 44.3396 265.463 44.3396Z" fill="#F04E23"/>
<path d="M226.319 13.0987C214.644 13.0987 206.425 21.2202 206.425 32.4225V33.7338C206.425 44.9333 214.644 53.0576 226.319 53.0576C237.995 53.0576 246.214 44.9361 246.214 33.7338V32.4225C246.211 21.223 237.995 13.0987 226.319 13.0987ZM234.47 33.4053C234.47 39.299 231.405 43.5585 226.317 43.5585C221.228 43.5585 218.163 39.3018 218.163 33.4053V32.751C218.163 26.8545 221.228 22.5978 226.317 22.5978C231.405 22.5978 234.47 26.8545 234.47 32.751V33.4053Z" fill="#F04E23"/>
<path d="M279.902 71.1278L275.769 65.652H275.741V71.1278H273.043V61.7036H275.97L280.017 67.0353H280.046V61.7036H282.744V71.1278H279.902Z" fill="#F04E23"/>
<path d="M289.144 67.3523V68.8222H294.884L294.597 71.1278H286.302V61.7036H294.597V63.9804H289.144V65.2773H293.449V67.3523H289.144Z" fill="#F04E23"/>
<path d="M300.624 71.1278V64.1245H297.18V61.7036H306.364L306.651 64.1245H303.207V71.1278H300.624Z" fill="#F04E23"/>
<path d="M320.427 68.2458L321.862 61.7036H324.732L322.149 71.1278H318.705L316.983 65.4214H316.696L314.974 71.1278H311.243L308.947 61.7036H311.817L313.539 68.2458L315.548 61.7036H318.418L320.14 68.2458H320.427Z" fill="#F04E23"/>
<path d="M326.741 66.4013C326.741 63.3291 328.819 61.4039 332.105 61.4039C335.391 61.4039 337.472 63.3291 337.472 66.4013C337.472 69.4735 335.394 71.3987 332.105 71.3987C328.819 71.3987 326.741 69.4706 326.741 66.4013ZM334.668 66.4013C334.668 64.7729 333.729 63.8017 332.105 63.8017C330.48 63.8017 329.542 64.7729 329.542 66.4013C329.542 68.0325 330.48 69.0008 332.09 69.0008C333.715 69.0008 334.668 68.0296 334.668 66.4013Z" fill="#F04E23"/>
<path d="M340.517 61.7036H345.99C348.484 61.7036 349.706 62.8881 349.706 65.0842C349.706 66.5915 349.089 67.6175 347.881 68.1017L350.108 71.1335H346.917L345.186 68.655H343.335V71.1335H340.517V61.7036ZM345.625 66.4445C346.564 66.4445 346.9 65.92 346.9 65.2052C346.9 64.4905 346.564 63.9804 345.625 63.9804H343.332V66.4445H345.625Z" fill="#F04E23"/>
<path d="M359.746 66.2284L363.477 71.0989V71.1278H360.32L357.45 67.4964H356.302V71.1278H353.432V61.7036H356.302V65.162H357.45L360.033 61.7036H363.477L359.746 66.2284Z" fill="#F04E23"/>
<path d="M365.773 70.4937V67.9086H365.787C367.357 68.704 368.887 69.0931 370.213 69.0931C371.22 69.0931 371.728 68.851 371.728 68.3783C371.728 67.9057 371.392 67.7846 369.38 67.4619C367.182 67.1131 365.718 66.4503 365.718 64.551C365.718 62.7873 367.262 61.4269 370.279 61.4269C371.487 61.4269 372.747 61.6834 373.915 62.182V64.7412L373.9 64.7557C372.787 64.1101 371.286 63.7037 370.078 63.7037C369.004 63.7037 368.577 63.9602 368.577 64.3896C368.577 64.943 369.234 64.9949 370.884 65.2802C373.083 65.6577 374.546 66.2774 374.546 68.2717C374.546 69.8193 373.393 71.3698 370.081 71.3698C368.445 71.3698 367.142 71.0327 365.773 70.4937Z" fill="#F04E23"/>
</svg>
