<svg xmlns="http://www.w3.org/2000/svg" xmlns:xlink="http://www.w3.org/1999/xlink" width="280.384" height="311.082" viewBox="0 0 280.384 311.082">
  <defs>
    <linearGradient id="linear-gradient" y1="0.5" x2="1" y2="0.5" gradientUnits="objectBoundingBox">
      <stop offset="0" stop-color="#1c8ef4"/>
      <stop offset="1" stop-color="#00cfdd"/>
    </linearGradient>
    <linearGradient id="linear-gradient-2" y1="0.5" x2="1" y2="0.5" gradientUnits="objectBoundingBox">
      <stop offset="0" stop-color="#f26d22"/>
      <stop offset="1" stop-color="#ff8700"/>
    </linearGradient>
    <linearGradient id="linear-gradient-3" y1="0.5" x2="1" y2="0.5" gradientUnits="objectBoundingBox">
      <stop offset="0" stop-color="#ffb902"/>
      <stop offset="1" stop-color="#ffbd67"/>
    </linearGradient>
    <linearGradient id="linear-gradient-4" y1="0.5" x2="1" y2="0.5" gradientUnits="objectBoundingBox">
      <stop offset="0" stop-color="#80ba01"/>
      <stop offset="1" stop-color="#4ab067"/>
    </linearGradient>
    <linearGradient id="linear-gradient-5" x1="0.69" y1="0.438" x2="1.119" y2="0.268" gradientUnits="objectBoundingBox">
      <stop offset="0" stop-color="#1c8ef4"/>
      <stop offset="0.995" stop-color="#00cfdd"/>
    </linearGradient>
    <linearGradient id="linear-gradient-6" x1="0.824" y1="0.195" x2="-0.057" y2="0.77" gradientUnits="objectBoundingBox">
      <stop offset="0" stop-color="#3e4795"/>
      <stop offset="1" stop-color="#273088"/>
    </linearGradient>
    <linearGradient id="linear-gradient-7" x1="0.812" y1="0.201" x2="-0.067" y2="0.761" xlink:href="#linear-gradient-6"/>
    <linearGradient id="linear-gradient-8" x1="0.506" y1="0.034" x2="0.482" y2="0.864" xlink:href="#linear-gradient-5"/>
    <linearGradient id="linear-gradient-9" x1="-0.085" y1="0.645" x2="0.973" y2="0.394" xlink:href="#linear-gradient-5"/>
    <linearGradient id="linear-gradient-10" x1="0.534" y1="0.396" x2="0.69" y2="0.717" gradientUnits="objectBoundingBox">
      <stop offset="0" stop-color="#ff8a78"/>
      <stop offset="1" stop-color="#ffa799"/>
    </linearGradient>
    <linearGradient id="linear-gradient-11" x1="0.64" y1="0.097" x2="0.452" y2="0.85" gradientUnits="objectBoundingBox">
      <stop offset="0" stop-color="#5a2d68"/>
      <stop offset="1" stop-color="#22043d"/>
    </linearGradient>
    <linearGradient id="linear-gradient-12" x1="0.494" y1="0.622" x2="0.528" y2="0.237" xlink:href="#linear-gradient-2"/>
    <linearGradient id="linear-gradient-13" x1="0.491" y1="0.104" x2="0.522" y2="0.968" xlink:href="#linear-gradient-10"/>
    <linearGradient id="linear-gradient-14" x1="0.499" y1="0.25" x2="0.528" y2="1.44" xlink:href="#linear-gradient-10"/>
    <linearGradient id="linear-gradient-15" x1="0.423" y1="0.132" x2="0.616" y2="0.772" gradientUnits="objectBoundingBox">
      <stop offset="0" stop-color="#94e69a"/>
      <stop offset="1" stop-color="#17adc9"/>
    </linearGradient>
    <linearGradient id="linear-gradient-16" x1="0.845" y1="0.229" x2="0.127" y2="0.771" gradientUnits="objectBoundingBox">
      <stop offset="0" stop-color="#235da3"/>
      <stop offset="1" stop-color="#123a76"/>
    </linearGradient>
    <linearGradient id="linear-gradient-17" x1="0.773" y1="0.21" x2="-0.151" y2="0.777" xlink:href="#linear-gradient-16"/>
    <linearGradient id="linear-gradient-18" x1="0.467" y1="0.19" x2="0.682" y2="0.907" xlink:href="#linear-gradient-15"/>
    <linearGradient id="linear-gradient-19" x1="0" y1="0.5" x2="1" y2="0.5" xlink:href="#linear-gradient-15"/>
    <linearGradient id="linear-gradient-20" x1="0.435" y1="0.681" x2="0.546" y2="0.437" xlink:href="#linear-gradient-10"/>
    <linearGradient id="linear-gradient-21" x1="0.431" y1="0.163" x2="0.661" y2="0.931" xlink:href="#linear-gradient-15"/>
    <linearGradient id="linear-gradient-22" x1="0.558" y1="0.429" x2="0.305" y2="0.659" xlink:href="#linear-gradient-10"/>
    <linearGradient id="linear-gradient-23" x1="0.597" y1="0.241" x2="0.312" y2="0.78" gradientUnits="objectBoundingBox">
      <stop offset="0" stop-color="#ffb89e"/>
      <stop offset="1" stop-color="#ffa799"/>
    </linearGradient>
    <linearGradient id="linear-gradient-24" x1="0.653" y1="0.688" x2="0.447" y2="0.386" gradientUnits="objectBoundingBox">
      <stop offset="0" stop-color="#8a4791"/>
      <stop offset="1" stop-color="#562e65"/>
    </linearGradient>
  </defs>
  <g id="Microsoft_hero" transform="translate(-8177.589 -1569.464)">
    <g id="Group_28885" data-name="Group 28885" transform="translate(8274.634 1569.465)">
      <g id="Group_28822" data-name="Group 28822" transform="translate(0)">
        <g id="Group_28821" data-name="Group 28821">
          <g id="Group_28820" data-name="Group 28820">
            <path id="Path_34655" data-name="Path 34655" d="M8817.038,2347.6l-162.027-92.921c-2.211-1.01-5.459-1.963-7.626-.642l-5.547,3.379c-1.116.68-4.785,2.936-2.33,4.271,7.219,3.926,155.826,89.788,163.158,93.777,1.387.754,3.521.162,5.544.849.905.308,3.244-.321,6-1.788l2.217-1.366c1.564-.966,2.434-2.021,2.517-3.033C8819.029,2349.139,8818.395,2348.222,8817.038,2347.6Z" transform="translate(-8638.679 -2109.447)" fill="#231f20" fill-rule="evenodd" opacity="0.04"/>
            <g id="Group_28819" data-name="Group 28819" transform="translate(0.695)">
              <path id="Path_34656" data-name="Path 34656" d="M8826.46,1803.748c-.007,2.9-1.042,4.939-2.694,5.9l-2.622,1.577c-9-3.839-5.656-49.425-6.2-62.385l2.763-68.014c-2.324-4.058-11.258-7.6-9.172-15.887l-128.839-71.249c-1.17-.8-31.938-18.614-26.416-21.955.925-.559,1.839-1.122,2.751-1.652,2.039-1.206,4.64-.461,6.547.64h0l154.935,89c5.149,2.967,9.188,10.145,9.173,15.886Z" transform="translate(-8650.375 -1569.464)" fill="#3d3d3d" fill-rule="evenodd"/>
              <path id="Path_34657" data-name="Path 34657" d="M8642.2,1583.795c.008-2.842.993-4.86,2.587-5.843,1.68-1.036,4.037-.924,6.646.582l154.935,89c5.078,2.932,9.189,10.052,9.173,15.887l-.22,128.14c-.017,5.834-4.154,8.193-9.231,5.261l-154.936-89c-5.083-2.935-9.188-10.052-9.173-15.887Z" transform="translate(-8641.98 -1575.629)" fill="#565656" fill-rule="evenodd"/>
              <path id="Path_34658" data-name="Path 34658" d="M8655.625,1611.919c.015-5.37,3.818-7.544,8.5-4.842l150.76,86.6c4.673,2.7,8.457,9.252,8.441,14.623l-.2,120.362c-.016,5.37-3.823,7.541-8.5,4.842l-150.758-86.6c-4.68-2.7-8.457-9.252-8.442-14.623Z" transform="translate(-8652.594 -1598.244)" fill="#ebecef" fill-rule="evenodd"/>
            </g>
          </g>
        </g>
      </g>
      <g id="Group_28831" data-name="Group 28831" transform="translate(33.901 44.472)">
        <g id="Group_28830" data-name="Group 28830">
          <g id="Group_28829" data-name="Group 28829">
            <path id="Path_34659" data-name="Path 34659" d="M8802.7,1781.359l1.02-.539a1.618,1.618,0,0,1,1.3.23c12.191,6.993,24.358,14.231,36.553,21.225a4.582,4.582,0,0,1,2.075,3.6l.061,48.264a1.528,1.528,0,0,1-.516,1.274c-.385.284-1.175.9-1.8.537-12.191-6.993-24.133-14.854-36.323-21.845a4.583,4.583,0,0,1-2.078-3.6Z" transform="translate(-8802.077 -1780.764)" fill="#c1c1c1" fill-rule="evenodd"/>
            <path id="Path_34660" data-name="Path 34660" d="M8799.751,1784.428c0-1.321.94-1.856,2.09-1.191,12.192,6.993,24.359,14.232,36.553,21.225a4.576,4.576,0,0,1,2.075,3.6l.061,48.264c0,1.32-.94,1.854-2.089,1.191-12.193-6.993-24.363-14.233-36.553-21.225a4.576,4.576,0,0,1-2.077-3.6Z" transform="translate(-8799.751 -1782.491)" fill="#fff" fill-rule="evenodd"/>
            <path id="Path_34661" data-name="Path 34661" d="M8810.987,1803.875c0-.465.331-.653.736-.419,4.291,2.461,8.574,5.009,12.866,7.471a1.607,1.607,0,0,1,.729,1.266l.016,13.349L8811,1817.321Z" transform="translate(-8808.622 -1798.6)" fill="#fff" fill-rule="evenodd"/>
            <g id="Group_28823" data-name="Group 28823" transform="translate(19.721 18.221)">
              <path id="Path_34662" data-name="Path 34662" d="M8893.454,1867.821c0-.439.312-.612.693-.384l8.64,4.881a1.555,1.555,0,0,1,.69,1.207v.868c0,.439-.313.611-.694.384l-8.64-4.881a1.557,1.557,0,0,1-.69-1.206Z" transform="translate(-8893.453 -1867.337)" fill="#ebecef" fill-rule="evenodd"/>
              <path id="Path_34663" data-name="Path 34663" d="M8893.453,1886.13c0-.386.275-.538.611-.338,4.9,2.767,12.925,7.285,17.822,10.053a1.371,1.371,0,0,1,.608,1.063v.765c0,.386-.275.538-.612.338-4.9-2.768-12.925-7.285-17.822-10.053a1.369,1.369,0,0,1-.607-1.063Z" transform="translate(-8893.453 -1881.838)" fill="#ebecef" fill-rule="evenodd"/>
            </g>
            <g id="Group_28824" data-name="Group 28824" transform="translate(2.365 26.942)">
              <path id="Path_34664" data-name="Path 34664" d="M8810.987,1909.2c0-.386.275-.538.612-.338,4.9,2.767,28.858,16.328,33.757,19.1a1.371,1.371,0,0,1,.606,1.063v.765c0,.386-.275.538-.611.339-4.9-2.768-28.859-16.328-33.755-19.1a1.368,1.368,0,0,1-.609-1.063Z" transform="translate(-8810.987 -1908.771)" fill="#ebecef" fill-rule="evenodd"/>
            </g>
            <g id="Group_28825" data-name="Group 28825" transform="translate(2.365 32.18)">
              <path id="Path_34665" data-name="Path 34665" d="M8810.987,1934.087c0-.387.275-.538.612-.338,4.9,2.767,28.858,16.328,33.757,19.1a1.371,1.371,0,0,1,.606,1.063v.765c0,.386-.275.538-.611.338-4.9-2.767-28.859-16.328-33.755-19.1a1.368,1.368,0,0,1-.609-1.062Z" transform="translate(-8810.987 -1933.66)" fill="#ebecef" fill-rule="evenodd"/>
            </g>
            <g id="Group_28826" data-name="Group 28826" transform="translate(2.365 37.292)">
              <path id="Path_34666" data-name="Path 34666" d="M8810.987,1958.376c0-.387.275-.538.612-.338,4.9,2.767,19.477,11.045,24.375,13.812a1.369,1.369,0,0,1,.607,1.063v.765c0,.386-.274.538-.611.338-4.9-2.767-19.478-11.045-24.373-13.813a1.368,1.368,0,0,1-.609-1.063Z" transform="translate(-8810.987 -1957.949)" fill="#ebecef" fill-rule="evenodd"/>
            </g>
            <g id="Group_28827" data-name="Group 28827" transform="translate(2.365 48.985)">
              <path id="Path_34667" data-name="Path 34667" d="M8810.987,2013.931c0-.386.275-.538.612-.338,4.9,2.767,4.755,2.7,9.652,5.465a1.363,1.363,0,0,1,.608,1.063v.765c0,.386-.276.538-.611.338-4.9-2.768-4.757-2.7-9.652-5.465a1.368,1.368,0,0,1-.609-1.063Z" transform="translate(-8810.987 -2013.505)" fill="#ebecef" fill-rule="evenodd"/>
            </g>
            <g id="Group_28828" data-name="Group 28828" transform="translate(25.723 62.145)">
              <path id="Path_34668" data-name="Path 34668" d="M8921.967,2076.46c0-.386.275-.538.611-.338,4.9,2.767,4.756,2.7,9.652,5.466a1.37,1.37,0,0,1,.608,1.063v.765c0,.386-.275.538-.612.339-4.9-2.768-4.755-2.7-9.652-5.466a1.363,1.363,0,0,1-.607-1.062Z" transform="translate(-8921.967 -2076.033)" fill="#c12222" fill-rule="evenodd"/>
            </g>
          </g>
        </g>
      </g>
      <g id="Group_28840" data-name="Group 28840" transform="translate(78.176 68.7)">
        <g id="Group_28839" data-name="Group 28839">
          <g id="Group_28838" data-name="Group 28838">
            <path id="Path_34669" data-name="Path 34669" d="M9013.059,1896.472l1.019-.539a1.621,1.621,0,0,1,1.3.23c12.19,6.993,24.357,14.231,36.551,21.225a4.586,4.586,0,0,1,2.077,3.6l.06,48.264a1.526,1.526,0,0,1-.516,1.275c-.385.284-1.174.9-1.8.537-12.194-6.993-24.135-14.854-36.325-21.846a4.582,4.582,0,0,1-2.078-3.6Z" transform="translate(-9012.439 -1895.878)" fill="#c1c1c1" fill-rule="evenodd"/>
            <path id="Path_34670" data-name="Path 34670" d="M9010.113,1899.542c0-1.321.94-1.856,2.091-1.191,12.191,6.993,24.359,14.231,36.551,21.225a4.581,4.581,0,0,1,2.077,3.6l.059,48.264c0,1.32-.939,1.854-2.09,1.191-12.192-6.993-24.361-14.233-36.551-21.225a4.573,4.573,0,0,1-2.076-3.6Z" transform="translate(-9010.113 -1897.604)" fill="#fff" fill-rule="evenodd"/>
            <path id="Path_34671" data-name="Path 34671" d="M9021.35,1918.988c0-.465.331-.653.736-.419,4.291,2.461,8.573,5.009,12.865,7.471a1.608,1.608,0,0,1,.73,1.266l.016,13.349-14.333-8.22Z" transform="translate(-9018.984 -1913.714)" fill="#fff" fill-rule="evenodd"/>
            <g id="Group_28832" data-name="Group 28832" transform="translate(19.721 18.221)">
              <path id="Path_34672" data-name="Path 34672" d="M9103.815,1982.934c0-.439.313-.611.694-.384l8.639,4.881a1.555,1.555,0,0,1,.691,1.206v.868c0,.439-.313.611-.694.384l-8.641-4.881a1.553,1.553,0,0,1-.689-1.206Z" transform="translate(-9103.815 -1982.45)" fill="#ebecef" fill-rule="evenodd"/>
              <path id="Path_34673" data-name="Path 34673" d="M9103.815,2001.244c0-.387.273-.538.61-.338,4.9,2.767,12.925,7.285,17.823,10.052a1.376,1.376,0,0,1,.608,1.063v.765c0,.386-.275.538-.614.338-4.9-2.767-12.923-7.285-17.821-10.053a1.373,1.373,0,0,1-.608-1.063Z" transform="translate(-9103.813 -1996.951)" fill="#ebecef" fill-rule="evenodd"/>
            </g>
            <g id="Group_28833" data-name="Group 28833" transform="translate(2.365 26.942)">
              <path id="Path_34674" data-name="Path 34674" d="M9021.351,2024.311c0-.386.274-.538.611-.338,4.9,2.767,28.857,16.328,33.756,19.1a1.37,1.37,0,0,1,.607,1.063v.765c0,.387-.275.538-.61.339-4.9-2.767-28.858-16.328-33.756-19.1a1.366,1.366,0,0,1-.608-1.063Z" transform="translate(-9021.35 -2023.885)" fill="#ebecef" fill-rule="evenodd"/>
            </g>
            <g id="Group_28834" data-name="Group 28834" transform="translate(2.365 32.18)">
              <path id="Path_34675" data-name="Path 34675" d="M9021.351,2049.2c0-.386.274-.538.611-.339,4.9,2.767,28.857,16.328,33.756,19.1a1.37,1.37,0,0,1,.607,1.063v.765c0,.386-.275.538-.61.339-4.9-2.768-28.858-16.329-33.756-19.1a1.365,1.365,0,0,1-.608-1.063Z" transform="translate(-9021.35 -2048.773)" fill="#ebecef" fill-rule="evenodd"/>
            </g>
            <g id="Group_28835" data-name="Group 28835" transform="translate(2.365 37.292)">
              <path id="Path_34676" data-name="Path 34676" d="M9021.351,2073.489c0-.386.274-.539.611-.339,4.9,2.768,19.477,11.046,24.374,13.813a1.363,1.363,0,0,1,.607,1.063v.765c0,.386-.275.538-.611.338-4.9-2.768-19.477-11.045-24.374-13.812a1.365,1.365,0,0,1-.608-1.063Z" transform="translate(-9021.35 -2073.062)" fill="#ebecef" fill-rule="evenodd"/>
            </g>
            <g id="Group_28836" data-name="Group 28836" transform="translate(2.365 48.985)">
              <path id="Path_34677" data-name="Path 34677" d="M9021.351,2129.045c0-.387.274-.538.611-.338,4.9,2.767,4.754,2.7,9.652,5.465a1.367,1.367,0,0,1,.607,1.063V2136c0,.387-.275.538-.611.339-4.9-2.768-4.755-2.7-9.652-5.466a1.365,1.365,0,0,1-.608-1.063Z" transform="translate(-9021.35 -2128.618)" fill="#ebecef" fill-rule="evenodd"/>
            </g>
            <g id="Group_28837" data-name="Group 28837" transform="translate(25.723 62.145)">
              <path id="Path_34678" data-name="Path 34678" d="M9132.33,2191.573c0-.386.274-.538.61-.338,4.9,2.767,4.755,2.7,9.653,5.465a1.373,1.373,0,0,1,.608,1.063v.765c0,.386-.275.538-.612.338-4.9-2.767-4.754-2.7-9.653-5.465a1.368,1.368,0,0,1-.606-1.063Z" transform="translate(-9132.329 -2191.147)" fill="#c12222" fill-rule="evenodd"/>
            </g>
          </g>
        </g>
      </g>
      <g id="Group_28849" data-name="Group 28849" transform="translate(78.176 126.76)">
        <g id="Group_28848" data-name="Group 28848">
          <g id="Group_28847" data-name="Group 28847">
            <path id="Path_34679" data-name="Path 34679" d="M9013.059,2172.333l1.019-.539a1.621,1.621,0,0,1,1.3.23c12.19,6.993,24.357,14.232,36.551,21.225a4.586,4.586,0,0,1,2.077,3.6l.06,48.264a1.526,1.526,0,0,1-.516,1.275c-.385.284-1.174.9-1.8.537-12.194-6.993-24.135-14.854-36.325-21.845a4.583,4.583,0,0,1-2.078-3.6Z" transform="translate(-9012.439 -2171.738)" fill="#c1c1c1" fill-rule="evenodd"/>
            <path id="Path_34680" data-name="Path 34680" d="M9010.113,2175.4c0-1.321.94-1.856,2.091-1.191,12.191,6.993,24.359,14.231,36.551,21.225a4.581,4.581,0,0,1,2.077,3.6l.059,48.264c0,1.321-.939,1.854-2.09,1.191-12.192-6.993-24.361-14.233-36.551-21.225a4.573,4.573,0,0,1-2.076-3.6Z" transform="translate(-9010.113 -2173.465)" fill="#fff" fill-rule="evenodd"/>
            <path id="Path_34681" data-name="Path 34681" d="M9021.35,2194.849c0-.466.331-.653.736-.419,4.291,2.461,8.573,5.01,12.865,7.471a1.609,1.609,0,0,1,.73,1.266l.016,13.349-14.333-8.22Z" transform="translate(-9018.984 -2189.574)" fill="#fff" fill-rule="evenodd"/>
            <g id="Group_28841" data-name="Group 28841" transform="translate(19.721 18.221)">
              <path id="Path_34682" data-name="Path 34682" d="M9103.815,2258.8c0-.439.313-.612.694-.384l8.639,4.881a1.556,1.556,0,0,1,.691,1.207v.868c0,.439-.313.611-.694.384l-8.641-4.881a1.553,1.553,0,0,1-.689-1.207Z" transform="translate(-9103.815 -2258.311)" fill="#ebecef" fill-rule="evenodd"/>
              <path id="Path_34683" data-name="Path 34683" d="M9103.815,2277.1c0-.387.273-.539.61-.338,4.9,2.767,12.925,7.285,17.823,10.052a1.376,1.376,0,0,1,.608,1.063v.765c0,.386-.275.538-.614.338-4.9-2.768-12.923-7.285-17.821-10.053a1.373,1.373,0,0,1-.608-1.063Z" transform="translate(-9103.813 -2272.812)" fill="#ebecef" fill-rule="evenodd"/>
            </g>
            <g id="Group_28842" data-name="Group 28842" transform="translate(2.365 26.942)">
              <path id="Path_34684" data-name="Path 34684" d="M9021.351,2300.172c0-.386.274-.539.611-.338,4.9,2.767,28.857,16.328,33.756,19.1a1.369,1.369,0,0,1,.607,1.063v.765c0,.386-.275.538-.61.338-4.9-2.767-28.858-16.328-33.756-19.1a1.365,1.365,0,0,1-.608-1.063Z" transform="translate(-9021.35 -2299.745)" fill="#ebecef" fill-rule="evenodd"/>
            </g>
            <g id="Group_28843" data-name="Group 28843" transform="translate(2.365 32.18)">
              <path id="Path_34685" data-name="Path 34685" d="M9021.351,2325.061c0-.387.274-.538.611-.338,4.9,2.767,28.857,16.328,33.756,19.1a1.37,1.37,0,0,1,.607,1.063v.765c0,.386-.275.538-.61.338-4.9-2.768-28.858-16.328-33.756-19.1a1.365,1.365,0,0,1-.608-1.063Z" transform="translate(-9021.35 -2324.635)" fill="#ebecef" fill-rule="evenodd"/>
            </g>
            <g id="Group_28844" data-name="Group 28844" transform="translate(2.365 37.292)">
              <path id="Path_34686" data-name="Path 34686" d="M9021.351,2349.35c0-.387.274-.538.611-.338,4.9,2.767,19.477,11.045,24.374,13.813a1.363,1.363,0,0,1,.607,1.063v.765c0,.386-.275.538-.611.338-4.9-2.768-19.477-11.045-24.374-13.812a1.365,1.365,0,0,1-.608-1.063Z" transform="translate(-9021.35 -2348.923)" fill="#ebecef" fill-rule="evenodd"/>
            </g>
            <g id="Group_28845" data-name="Group 28845" transform="translate(2.365 48.985)">
              <path id="Path_34687" data-name="Path 34687" d="M9021.351,2404.905c0-.386.274-.538.611-.338,4.9,2.767,4.754,2.7,9.652,5.465a1.367,1.367,0,0,1,.607,1.063v.765c0,.386-.275.538-.611.338-4.9-2.767-4.755-2.7-9.652-5.465a1.365,1.365,0,0,1-.608-1.063Z" transform="translate(-9021.35 -2404.479)" fill="#ebecef" fill-rule="evenodd"/>
            </g>
            <g id="Group_28846" data-name="Group 28846" transform="translate(25.723 62.145)">
              <path id="Path_34688" data-name="Path 34688" d="M9132.33,2467.434c0-.387.274-.538.61-.338,4.9,2.767,4.755,2.7,9.653,5.465a1.372,1.372,0,0,1,.608,1.063v.765c0,.386-.275.538-.612.338-4.9-2.767-4.754-2.7-9.653-5.466a1.367,1.367,0,0,1-.606-1.062Z" transform="translate(-9132.329 -2467.007)" fill="#c12222" fill-rule="evenodd"/>
            </g>
          </g>
        </g>
      </g>
      <g id="Group_28858" data-name="Group 28858" transform="translate(124.461 153.362)">
        <g id="Group_28857" data-name="Group 28857">
          <g id="Group_28856" data-name="Group 28856">
            <path id="Path_34689" data-name="Path 34689" d="M9232.971,2298.724l1.02-.539a1.62,1.62,0,0,1,1.3.23c12.191,6.993,24.358,14.232,36.552,21.225a4.576,4.576,0,0,1,2.075,3.6l.061,48.264a1.523,1.523,0,0,1-.517,1.274c-.382.284-1.174.9-1.8.537-12.192-6.993-24.134-14.854-36.325-21.846a4.583,4.583,0,0,1-2.077-3.6Z" transform="translate(-9232.352 -2298.129)" fill="#c1c1c1" fill-rule="evenodd"/>
            <path id="Path_34690" data-name="Path 34690" d="M9230.026,2301.793c0-1.321.939-1.856,2.09-1.191,12.192,6.992,24.359,14.231,36.552,21.225a4.584,4.584,0,0,1,2.077,3.6l.06,48.264c0,1.32-.941,1.854-2.09,1.191-12.193-6.993-24.362-14.233-36.552-21.225a4.58,4.58,0,0,1-2.077-3.6Z" transform="translate(-9230.026 -2299.856)" fill="#fff" fill-rule="evenodd"/>
            <path id="Path_34691" data-name="Path 34691" d="M9241.263,2321.24c0-.465.33-.653.736-.419,4.291,2.462,8.574,5.01,12.865,7.471a1.612,1.612,0,0,1,.731,1.266l.015,13.35-14.333-8.221Z" transform="translate(-9238.897 -2315.966)" fill="#fff" fill-rule="evenodd"/>
            <g id="Group_28850" data-name="Group 28850" transform="translate(19.721 18.221)">
              <path id="Path_34692" data-name="Path 34692" d="M9323.728,2385.186c0-.438.312-.611.694-.384l8.639,4.881a1.552,1.552,0,0,1,.69,1.207v.868c0,.439-.312.611-.694.384l-8.639-4.881a1.552,1.552,0,0,1-.69-1.206Z" transform="translate(-9323.728 -2384.702)" fill="#ebecef" fill-rule="evenodd"/>
              <path id="Path_34693" data-name="Path 34693" d="M9323.728,2403.5c0-.386.275-.538.611-.338,4.9,2.767,12.924,7.285,17.822,10.052a1.371,1.371,0,0,1,.608,1.063v.765c0,.386-.276.538-.613.338-4.9-2.768-12.924-7.286-17.822-10.053a1.369,1.369,0,0,1-.606-1.063Z" transform="translate(-9323.728 -2399.204)" fill="#ebecef" fill-rule="evenodd"/>
            </g>
            <g id="Group_28851" data-name="Group 28851" transform="translate(2.365 26.942)">
              <path id="Path_34694" data-name="Path 34694" d="M9241.263,2426.563c0-.386.275-.538.612-.338,4.9,2.767,28.858,16.328,33.756,19.1a1.37,1.37,0,0,1,.607,1.063v.765c0,.386-.276.538-.612.338-4.9-2.767-28.857-16.328-33.756-19.1a1.37,1.37,0,0,1-.607-1.063Z" transform="translate(-9241.263 -2426.137)" fill="#ebecef" fill-rule="evenodd"/>
            </g>
            <g id="Group_28852" data-name="Group 28852" transform="translate(2.365 32.18)">
              <path id="Path_34695" data-name="Path 34695" d="M9241.263,2451.452c0-.386.275-.538.612-.338,4.9,2.767,28.858,16.328,33.756,19.1a1.37,1.37,0,0,1,.607,1.063v.765c0,.386-.276.538-.612.338-4.9-2.768-28.857-16.329-33.756-19.1a1.369,1.369,0,0,1-.607-1.063Z" transform="translate(-9241.263 -2451.025)" fill="#ebecef" fill-rule="evenodd"/>
            </g>
            <g id="Group_28853" data-name="Group 28853" transform="translate(2.365 37.292)">
              <path id="Path_34696" data-name="Path 34696" d="M9241.263,2475.74c0-.386.275-.538.612-.338,4.9,2.768,19.477,11.045,24.374,13.813a1.368,1.368,0,0,1,.608,1.063v.765c0,.386-.276.538-.611.338-4.9-2.767-19.478-11.045-24.376-13.813a1.368,1.368,0,0,1-.607-1.062Z" transform="translate(-9241.263 -2475.314)" fill="#ebecef" fill-rule="evenodd"/>
            </g>
            <g id="Group_28854" data-name="Group 28854" transform="translate(2.365 48.985)">
              <path id="Path_34697" data-name="Path 34697" d="M9241.263,2531.3c0-.386.275-.538.612-.338,4.9,2.767,4.754,2.7,9.652,5.465a1.369,1.369,0,0,1,.607,1.063v.765c0,.386-.275.538-.611.339-4.9-2.768-4.755-2.7-9.653-5.466a1.368,1.368,0,0,1-.607-1.062Z" transform="translate(-9241.263 -2530.87)" fill="#ebecef" fill-rule="evenodd"/>
            </g>
            <g id="Group_28855" data-name="Group 28855" transform="translate(25.723 62.145)">
              <path id="Path_34698" data-name="Path 34698" d="M9352.242,2593.825c0-.386.274-.538.611-.338,4.9,2.767,4.756,2.7,9.652,5.465a1.372,1.372,0,0,1,.609,1.063v.765c0,.386-.276.538-.612.338-4.9-2.767-4.756-2.7-9.653-5.465a1.367,1.367,0,0,1-.607-1.063Z" transform="translate(-9352.242 -2593.398)" fill="#c12222" fill-rule="evenodd"/>
            </g>
          </g>
        </g>
      </g>
      <g id="Group_28867" data-name="Group 28867" transform="translate(33.314 100.999)">
        <g id="Group_28866" data-name="Group 28866">
          <g id="Group_28865" data-name="Group 28865">
            <path id="Path_34699" data-name="Path 34699" d="M8799.908,2049.934l1.019-.539a1.621,1.621,0,0,1,1.3.23c12.191,6.993,24.359,14.231,36.552,21.225a4.579,4.579,0,0,1,2.076,3.6l.061,48.264a1.526,1.526,0,0,1-.517,1.274c-.384.284-1.175.9-1.8.537-12.192-6.993-24.134-14.854-36.325-21.845a4.58,4.58,0,0,1-2.076-3.6Z" transform="translate(-8799.289 -2049.34)" fill="#c1c1c1" fill-rule="evenodd"/>
            <path id="Path_34700" data-name="Path 34700" d="M8796.962,2053c0-1.321.939-1.856,2.09-1.191,12.192,6.993,24.359,14.231,36.552,21.225a4.581,4.581,0,0,1,2.077,3.6l.06,48.264c0,1.32-.941,1.854-2.09,1.191-12.193-6.994-24.362-14.233-36.552-21.225a4.583,4.583,0,0,1-2.078-3.6Z" transform="translate(-8796.962 -2051.066)" fill="#fff" fill-rule="evenodd"/>
            <path id="Path_34701" data-name="Path 34701" d="M8808.2,2072.45c0-.465.33-.653.736-.419,4.292,2.461,8.573,5.01,12.865,7.471a1.612,1.612,0,0,1,.731,1.266l.015,13.349-14.333-8.22Z" transform="translate(-8805.834 -2067.176)" fill="#fff" fill-rule="evenodd"/>
            <g id="Group_28859" data-name="Group 28859" transform="translate(19.721 18.221)">
              <path id="Path_34702" data-name="Path 34702" d="M8890.664,2136.4c0-.439.312-.612.694-.385l8.64,4.881a1.556,1.556,0,0,1,.689,1.207v.868c0,.439-.312.611-.694.384l-8.64-4.881a1.554,1.554,0,0,1-.689-1.207Z" transform="translate(-8890.664 -2135.913)" fill="#ebecef" fill-rule="evenodd"/>
              <path id="Path_34703" data-name="Path 34703" d="M8890.663,2154.706c0-.386.275-.538.612-.338,4.9,2.767,12.924,7.285,17.822,10.052a1.37,1.37,0,0,1,.607,1.063v.765c0,.386-.275.538-.611.338-4.9-2.767-12.925-7.285-17.823-10.052a1.372,1.372,0,0,1-.607-1.063Z" transform="translate(-8890.663 -2150.414)" fill="#ebecef" fill-rule="evenodd"/>
            </g>
            <g id="Group_28860" data-name="Group 28860" transform="translate(2.365 26.942)">
              <path id="Path_34704" data-name="Path 34704" d="M8808.2,2177.774c0-.387.273-.539.611-.338,4.9,2.767,28.857,16.328,33.757,19.1a1.366,1.366,0,0,1,.605,1.063v.765c0,.386-.275.538-.611.338-4.9-2.768-28.857-16.328-33.756-19.1a1.367,1.367,0,0,1-.607-1.063Z" transform="translate(-8808.199 -2177.347)" fill="#ebecef" fill-rule="evenodd"/>
            </g>
            <g id="Group_28861" data-name="Group 28861" transform="translate(2.365 32.18)">
              <path id="Path_34705" data-name="Path 34705" d="M8808.2,2202.663c0-.387.273-.539.611-.338,4.9,2.767,28.857,16.328,33.757,19.1a1.367,1.367,0,0,1,.605,1.063v.766c0,.386-.275.538-.611.338-4.9-2.768-28.857-16.329-33.756-19.1a1.365,1.365,0,0,1-.607-1.062Z" transform="translate(-8808.199 -2202.236)" fill="#ebecef" fill-rule="evenodd"/>
            </g>
            <g id="Group_28862" data-name="Group 28862" transform="translate(2.365 37.292)">
              <path id="Path_34706" data-name="Path 34706" d="M8808.2,2226.951c0-.386.273-.538.611-.338,4.9,2.767,19.477,11.045,24.374,13.812a1.367,1.367,0,0,1,.607,1.063v.765c0,.386-.275.538-.611.338-4.9-2.768-19.477-11.045-24.375-13.812a1.366,1.366,0,0,1-.607-1.063Z" transform="translate(-8808.199 -2226.525)" fill="#ebecef" fill-rule="evenodd"/>
            </g>
            <g id="Group_28863" data-name="Group 28863" transform="translate(2.365 48.985)">
              <path id="Path_34707" data-name="Path 34707" d="M8808.2,2282.507c0-.386.273-.538.611-.338,4.9,2.767,4.754,2.7,9.652,5.465a1.37,1.37,0,0,1,.607,1.063v.765c0,.387-.275.538-.611.338-4.9-2.768-4.755-2.7-9.653-5.465a1.367,1.367,0,0,1-.607-1.063Z" transform="translate(-8808.199 -2282.081)" fill="#ebecef" fill-rule="evenodd"/>
            </g>
            <g id="Group_28864" data-name="Group 28864" transform="translate(25.723 62.145)">
              <path id="Path_34708" data-name="Path 34708" d="M8919.178,2345.036c0-.387.274-.539.611-.338,4.9,2.767,4.756,2.7,9.652,5.465a1.368,1.368,0,0,1,.609,1.063v.765c0,.387-.275.538-.612.339-4.9-2.768-4.756-2.7-9.653-5.466a1.367,1.367,0,0,1-.607-1.063Z" transform="translate(-8919.178 -2344.609)" fill="#c12222" fill-rule="evenodd"/>
            </g>
          </g>
        </g>
      </g>
      <g id="Group_28868" data-name="Group 28868" transform="translate(7.348 41.075)">
        <path id="Path_34709" data-name="Path 34709" d="M8673.592,1765.105c0-.439.312-.611.693-.384l12.136,6.79a1.555,1.555,0,0,1,.69,1.207v.868c0,.439-.313.611-.7.384l-12.135-6.79a1.554,1.554,0,0,1-.689-1.206Z" transform="translate(-8673.592 -1764.621)" fill="#fff" fill-rule="evenodd"/>
        <path id="Path_34710" data-name="Path 34710" d="M8673.592,1800.873c0-.387.274-.538.61-.339,4.9,2.768,12.924,7.285,17.822,10.053a1.37,1.37,0,0,1,.608,1.063l0,.765c0,.387-.274.538-.61.338-4.9-2.767-12.924-7.285-17.823-10.053a1.369,1.369,0,0,1-.606-1.063Z" transform="translate(-8673.591 -1792.906)" fill="#fff" fill-rule="evenodd"/>
      </g>
      <g id="Group_28869" data-name="Group 28869" transform="translate(5.278 56.382)">
        <path id="Path_34711" data-name="Path 34711" d="M8663.758,1859.186c0-.535.381-.745.847-.468,6.779,3.831,17.89,10.084,24.67,13.915a1.9,1.9,0,0,1,.842,1.471v5.088c0,.535-.382.745-.847.468-6.78-3.831-17.892-10.085-24.671-13.915a1.889,1.889,0,0,1-.841-1.471Z" transform="translate(-8663.758 -1854.125)" fill="#d92727" fill-rule="evenodd"/>
        <path id="Path_34712" data-name="Path 34712" d="M8673.592,1837.837c0-.439.312-.611.693-.384l12.136,6.79a1.555,1.555,0,0,1,.69,1.207v.868c0,.439-.313.611-.7.384l-12.135-6.79a1.553,1.553,0,0,1-.689-1.206Z" transform="translate(-8671.522 -1837.353)" fill="#fff" fill-rule="evenodd"/>
        <path id="Path_34713" data-name="Path 34713" d="M8673.592,1875.243c0-.387.274-.538.61-.339,4.9,2.768,12.924,7.285,17.822,10.053a1.37,1.37,0,0,1,.608,1.063l0,.765c0,.387-.274.538-.61.338-4.9-2.767-12.924-7.285-17.823-10.053a1.368,1.368,0,0,1-.606-1.063Z" transform="translate(-8671.521 -1866.931)" fill="#fff" fill-rule="evenodd"/>
      </g>
      <g id="Group_28870" data-name="Group 28870" transform="translate(7.348 71.938)">
        <path id="Path_34714" data-name="Path 34714" d="M8673.592,1911.746c0-.439.312-.611.693-.384l12.136,6.79a1.555,1.555,0,0,1,.69,1.207v.868c0,.439-.313.611-.7.384l-12.135-6.79a1.554,1.554,0,0,1-.689-1.206Z" transform="translate(-8673.592 -1911.262)" fill="#fff" fill-rule="evenodd"/>
        <path id="Path_34715" data-name="Path 34715" d="M8673.592,1947.515c0-.387.274-.538.61-.339,4.9,2.767,12.924,7.285,17.822,10.053a1.371,1.371,0,0,1,.608,1.063l0,.765c0,.386-.274.538-.61.338-4.9-2.768-12.924-7.285-17.823-10.053a1.367,1.367,0,0,1-.606-1.063Z" transform="translate(-8673.591 -1939.548)" fill="#fff" fill-rule="evenodd"/>
      </g>
      <g id="Group_28871" data-name="Group 28871" transform="translate(7.348 87.246)">
        <path id="Path_34716" data-name="Path 34716" d="M8673.592,1984.479c0-.439.312-.611.693-.384l12.136,6.79a1.555,1.555,0,0,1,.69,1.207v.868c0,.439-.313.611-.7.384l-12.135-6.79a1.553,1.553,0,0,1-.689-1.206Z" transform="translate(-8673.592 -1983.994)" fill="#fff" fill-rule="evenodd"/>
        <path id="Path_34717" data-name="Path 34717" d="M8673.592,2020.247c0-.386.274-.538.61-.338,4.9,2.767,12.924,7.285,17.822,10.053a1.37,1.37,0,0,1,.608,1.063l0,.765c0,.386-.274.538-.61.338-4.9-2.767-12.924-7.285-17.823-10.053a1.368,1.368,0,0,1-.606-1.063Z" transform="translate(-8673.591 -2012.28)" fill="#fff" fill-rule="evenodd"/>
      </g>
      <path id="Path_34718" data-name="Path 34718" d="M8664.831,1606.919l150.759,86.6s7.374,2.866,8.4,13.585l.042,6.376-167.71-93.979.023-8.223S8656.7,1602.6,8664.831,1606.919Z" transform="translate(-8652.609 -1598.086)" fill="#fff"/>
      <path id="Path_34719" data-name="Path 34719" d="M9407.242,2051.359c.95.548,1.722.108,1.725-.983a3.777,3.777,0,0,0-1.714-2.967c-.948-.548-1.72-.108-1.724.983A3.774,3.774,0,0,0,9407.242,2051.359Z" transform="translate(-9244.131 -1946.63)" fill="#f25022" fill-rule="evenodd"/>
      <path id="Path_34720" data-name="Path 34720" d="M9383.242,2039.367c.949.548,1.721.108,1.724-.983a3.779,3.779,0,0,0-1.713-2.967c-.949-.548-1.722-.108-1.725.983A3.775,3.775,0,0,0,9383.242,2039.367Z" transform="translate(-9225.181 -1937.162)" fill="#ffb902" fill-rule="evenodd"/>
      <path id="Path_34721" data-name="Path 34721" d="M9358.242,2023.945c.948.548,1.722.108,1.723-.983a3.771,3.771,0,0,0-1.713-2.967c-.948-.548-1.722-.108-1.723.983A3.771,3.771,0,0,0,9358.242,2023.945Z" transform="translate(-9205.443 -1924.986)" fill="#80ba01" fill-rule="evenodd"/>
      <g id="Artwork_4" data-name="Artwork 4" transform="translate(7.7 10.712)">
        <g id="Group_28884" data-name="Group 28884">
          <g id="Group_28872" data-name="Group 28872" transform="translate(12.226 9.62)">
            <path id="Path_34722" data-name="Path 34722" d="M8736.05,1667.614a4.744,4.744,0,0,1,2.366,4.1,2.172,2.172,0,0,1-.624,1.825,1.432,1.432,0,0,1-1.629-.127l-1.448-.837-.007,2.089-1.354-.783.021-7.813Zm.646,4.43a1.205,1.205,0,0,0,.363-1.024,2.757,2.757,0,0,0-.4-1.407,2.714,2.714,0,0,0-.992-1.033l-.943-.545-.009,3.337,1.039.6a.827.827,0,0,0,.938.072" transform="translate(-8733.354 -1666.07)" fill="#d82727"/>
          </g>
          <g id="Group_28873" data-name="Group 28873" transform="translate(18.045 12.98)">
            <path id="Path_34723" data-name="Path 34723" d="M8763.7,1683.575a4.739,4.739,0,0,1,2.367,4.1,2.166,2.166,0,0,1-.624,1.825,1.432,1.432,0,0,1-1.629-.126l-1.447-.836-.007,2.089-1.355-.782.021-7.813Zm.647,4.431a1.2,1.2,0,0,0,.365-1.024,2.778,2.778,0,0,0-.4-1.407,2.732,2.732,0,0,0-1-1.033l-.941-.544-.01,3.337,1.038.6a.83.83,0,0,0,.939.072" transform="translate(-8761 -1682.032)" fill="#d82727"/>
          </g>
          <g id="Group_28874" data-name="Group 28874" transform="translate(33.686 19.997)">
            <path id="Path_34724" data-name="Path 34724" d="M8835.316,1716.731l0-1.359,1.327.767,0,1.359Z" transform="translate(-8835.316 -1715.372)" fill="#d82727"/>
          </g>
          <g id="Group_28875" data-name="Group 28875" transform="translate(33.668 21.997)">
            <path id="Path_34725" data-name="Path 34725" d="M8835.247,1724.873l1.327.766-.016,5.724-1.328-.767Z" transform="translate(-8835.23 -1724.873)" fill="#d82727"/>
          </g>
          <g id="Group_28876" data-name="Group 28876" transform="translate(35.489 21.529)">
            <path id="Path_34726" data-name="Path 34726" d="M8846.051,1723.413l0,2,1.3.749,0,1.194-1.3-.75-.009,2.6a1.38,1.38,0,0,0,.21.707,1.845,1.845,0,0,0,.635.6l.394.228,0,1.117-1.24-.716a2.627,2.627,0,0,1-.952-1.013,2.5,2.5,0,0,1-.3-.781,4.722,4.722,0,0,1-.065-.823l.007-2.674-.846-.489,0-1.193.847.489.006-2Z" transform="translate(-8843.878 -1722.652)" fill="#d82727"/>
          </g>
          <g id="Group_28877" data-name="Group 28877" transform="translate(28.972 17.244)">
            <path id="Path_34727" data-name="Path 34727" d="M8812.917,1702.574a5.9,5.9,0,0,1,2.7-.225l1.38,1.519a5.8,5.8,0,0,0-3.145.239q-.062-.113-.126-.227Q8813.333,1703.2,8812.917,1702.574Z" transform="translate(-8812.917 -1702.289)" fill="#d82727"/>
          </g>
          <g id="Group_28878" data-name="Group 28878" transform="translate(24.527 17.905)">
            <path id="Path_34728" data-name="Path 34728" d="M8796.3,1706.866l.038.069a9.983,9.983,0,0,0-4.543,5.311c.021-.249.384-4.984,3.608-6.812C8795.712,1705.88,8796.013,1706.359,8796.3,1706.866Z" transform="translate(-8791.797 -1705.434)" fill="#d82727"/>
          </g>
          <g id="Group_28879" data-name="Group 28879" transform="translate(0 7.501)">
            <path id="Path_34729" data-name="Path 34729" d="M8683.457,1657.177c-5.327-.977-8.051,2.233-8.194,2.4l.938-3.152c.4-.092.779-.167,1.14-.227,3.055-.51,4.716.05,5.511.507A2.187,2.187,0,0,1,8683.457,1657.177Z" transform="translate(-8675.263 -1655.998)" fill="#d82727"/>
          </g>
          <g id="Group_28880" data-name="Group 28880" transform="translate(0 3.607)">
            <path id="Path_34730" data-name="Path 34730" d="M8677.341,1641.6c-.36.06-.741.135-1.14.227l-.938,3.152c.029-.38.586-7.6,6.378-7.473a17.28,17.28,0,0,1,1.076,1.472A7.077,7.077,0,0,0,8677.341,1641.6Z" transform="translate(-8675.263 -1637.5)" fill="#d82727"/>
          </g>
          <g id="Group_28881" data-name="Group 28881" transform="translate(22.445 13.188)">
            <path id="Path_34731" data-name="Path 34731" d="M8789.239,1688.669l.127.227c2.171,3.91,2.838,7.812,1.478,8.783-.516.369-1.249.264-2.088-.22l-.041-.025a1.336,1.336,0,0,0,1.233-.1c1.249-.892.612-4.506-1.416-8.094l-.039-.07c-.29-.506-.59-.985-.9-1.432a11.17,11.17,0,0,0-3.212-3.283,1.749,1.749,0,0,0-1.895-.2,1.637,1.637,0,0,0-.581,1.093,2.443,2.443,0,0,1,.7-2.106,1.929,1.929,0,0,1,2.092.219,12.712,12.712,0,0,1,3.731,3.9C8788.708,1687.776,8788.979,1688.212,8789.239,1688.669Z" transform="translate(-8781.907 -1683.022)" fill="#d82727"/>
          </g>
          <g id="Group_28882" data-name="Group 28882" transform="translate(1.521)">
            <path id="Path_34732" data-name="Path 34732" d="M8685.281,1620.8a14.422,14.422,0,0,1,4.538,5.2c2.273,3.987,2.991,8.021,1.606,9.011a1.928,1.928,0,0,1-2.089-.22l-.042-.025a1.349,1.349,0,0,0,1.235-.1c1.255-.9.6-4.553-1.457-8.164-.212-.371-.429-.728-.653-1.067a17.454,17.454,0,0,0-1.075-1.472,9.36,9.36,0,0,0-2.382-2.175,1.746,1.746,0,0,0-1.893-.2,1.638,1.638,0,0,0-.582,1.093,2.442,2.442,0,0,1,.7-2.107A1.927,1.927,0,0,1,8685.281,1620.8Z" transform="translate(-8682.487 -1620.36)" fill="#d82727"/>
          </g>
          <g id="Group_28883" data-name="Group 28883" transform="translate(39.628 26.241)">
            <path id="Path_34733" data-name="Path 34733" d="M8867.743,1746.99a3.584,3.584,0,0,1,.718,2.318c0,.3-.03.624-.242.746-.155.088-.347.021-.549-.1l-2.963-1.71a5.439,5.439,0,0,0,.065.847,1.864,1.864,0,0,0,1.027,1.291l2.491,1.439,0,.994-2.83-1.633a3.424,3.424,0,0,1-1.555-1.64,5.607,5.607,0,0,1-.358-2.344c0-1.095.054-1.873.613-2.1s1.424.269,1.905.546A5.392,5.392,0,0,1,8867.743,1746.99Zm-.7,1.612c.222.128.25-.044.25-.2a1.809,1.809,0,0,0-.323-.973,2.779,2.779,0,0,0-.962-.821l-.046-.027c-.3-.172-.729-.411-1.021-.2-.232.165-.224.49-.234.872l2.337,1.349" transform="translate(-8863.545 -1745.037)" fill="#d82727"/>
          </g>
        </g>
      </g>
    </g>
    <g id="Group_28887" data-name="Group 28887" transform="translate(8223.652 1669.484)">
      <g id="Group_28886" data-name="Group 28886" transform="translate(0)">
        <path id="Path_34734" data-name="Path 34734" d="M8437.9,2048.5c0-.971.759-1.761.422-2.385-.363-.675-1.863-1.09-2.509-1.3a4.165,4.165,0,0,0-3.313.6l-30.687,17.6a11.836,11.836,0,0,0-5.363,9.293l.128,36.424a3.792,3.792,0,0,0,1.532,3.427,6.212,6.212,0,0,0,2.994.85c.56-.1.249-.839.874-1.2l30.686-17.6a11.829,11.829,0,0,0,5.364-9.292Z" transform="translate(-8396.447 -2044.682)" fill="#c1c1c1" fill-rule="evenodd"/>
        <path id="Path_34735" data-name="Path 34735" d="M8444.23,2050.785c-.012-3.413-2.428-4.794-5.4-3.077l-30.686,17.6a11.833,11.833,0,0,0-5.364,9.292l.127,36.424c.011,3.413,2.431,4.792,5.4,3.077l30.685-17.6a11.828,11.828,0,0,0,5.366-9.292Z" transform="translate(-8401.447 -2046.488)" fill-rule="evenodd" fill="url(#linear-gradient)"/>
      </g>
    </g>
    <g id="Group_28889" data-name="Group 28889" transform="translate(8223.652 1614.868)">
      <g id="Group_28888" data-name="Group 28888" transform="translate(0)">
        <path id="Path_34736" data-name="Path 34736" d="M8437.9,1789.006c0-.971.759-1.761.422-2.385-.363-.675-1.863-1.09-2.509-1.3a4.166,4.166,0,0,0-3.313.6l-30.687,17.6a11.835,11.835,0,0,0-5.363,9.292l.128,36.424a3.793,3.793,0,0,0,1.532,3.427,6.217,6.217,0,0,0,2.994.85c.56-.1.249-.839.874-1.2l30.686-17.6a11.827,11.827,0,0,0,5.364-9.292Z" transform="translate(-8396.447 -1785.19)" fill="#c1c1c1" fill-rule="evenodd"/>
        <path id="Path_34737" data-name="Path 34737" d="M8444.23,1791.293c-.012-3.413-2.428-4.794-5.4-3.077l-30.686,17.6a11.833,11.833,0,0,0-5.364,9.293l.127,36.423c.011,3.413,2.431,4.792,5.4,3.078l30.685-17.6a11.828,11.828,0,0,0,5.366-9.292Z" transform="translate(-8401.447 -1786.996)" fill-rule="evenodd" fill="url(#linear-gradient-2)"/>
      </g>
    </g>
    <g id="Group_28891" data-name="Group 28891" transform="translate(8177.589 1695.482)">
      <g id="Group_28890" data-name="Group 28890" transform="translate(0 0)">
        <path id="Path_34738" data-name="Path 34738" d="M8219.039,2172.024c0-.971.759-1.761.422-2.385-.363-.675-1.864-1.09-2.508-1.3a4.165,4.165,0,0,0-3.313.6l-30.686,17.6a11.835,11.835,0,0,0-5.364,9.293l.128,36.423a3.792,3.792,0,0,0,1.531,3.427,6.217,6.217,0,0,0,3,.85c.559-.1.248-.839.874-1.2l30.685-17.6a11.827,11.827,0,0,0,5.364-9.292Z" transform="translate(-8177.589 -2168.209)" fill="#c1c1c1" fill-rule="evenodd"/>
        <path id="Path_34739" data-name="Path 34739" d="M8225.372,2174.312c-.011-3.413-2.428-4.794-5.4-3.077l-30.687,17.6a11.836,11.836,0,0,0-5.365,9.293l.129,36.423c.009,3.412,2.43,4.792,5.4,3.077l30.684-17.6a11.822,11.822,0,0,0,5.365-9.292Z" transform="translate(-8182.588 -2170.015)" fill-rule="evenodd" fill="url(#linear-gradient-3)"/>
      </g>
    </g>
    <g id="Group_28893" data-name="Group 28893" transform="translate(8177.589 1640.867)">
      <g id="Group_28892" data-name="Group 28892" transform="translate(0)">
        <path id="Path_34740" data-name="Path 34740" d="M8219.039,1912.532c0-.97.759-1.761.422-2.385-.363-.675-1.864-1.089-2.508-1.3a4.164,4.164,0,0,0-3.313.6l-30.686,17.6a11.834,11.834,0,0,0-5.364,9.293l.128,36.423a3.793,3.793,0,0,0,1.531,3.427,6.22,6.22,0,0,0,3,.85c.559-.1.248-.839.874-1.2l30.685-17.6a11.826,11.826,0,0,0,5.364-9.292Z" transform="translate(-8177.589 -1908.717)" fill="#c1c1c1" fill-rule="evenodd"/>
        <path id="Path_34741" data-name="Path 34741" d="M8225.372,1914.82c-.011-3.413-2.428-4.794-5.4-3.077l-30.687,17.6a11.837,11.837,0,0,0-5.365,9.293l.129,36.423c.009,3.412,2.43,4.792,5.4,3.077l30.684-17.6a11.822,11.822,0,0,0,5.365-9.293Z" transform="translate(-8182.588 -1910.523)" fill-rule="evenodd" fill="url(#linear-gradient-4)"/>
      </g>
    </g>
    <g id="Group_28913" data-name="Group 28913" transform="translate(8380.469 1669.983)">
      <g id="Group_28912" data-name="Group 28912" transform="translate(0 0)">
        <path id="Path_34742" data-name="Path 34742" d="M9211.823,2209.065c.53-4.043,3.587-5.807,6.827-3.931l28.635,16.737-4.51,36.169-3.4,2.2L9213.307,2245c-3.241-1.875-5.436-6.679-4.906-10.722Z" transform="translate(-9194.263 -2171.271)" fill="#231f20" fill-rule="evenodd" opacity="0.04"/>
        <g id="Group_28911" data-name="Group 28911">
          <g id="Group_28907" data-name="Group 28907" transform="translate(0 74.689)">
            <path id="Path_34743" data-name="Path 34743" d="M9144.208,2917.444l28.354-16.148c3.091-1.412,7.515-2.536,10.664-.9,2.869,1.493,7.6,4.549,9.687,5.741,1.587.905,7.1,4.207,3.666,6.074-10.1,5.491-20.091,11.666-30.345,17.243a14.373,14.373,0,0,1-7.751,1.188,20.535,20.535,0,0,1-8.4-2.5l-5.027-2.927c-2.225-1.3-3.4-2.826-3.52-4.242C9141.421,2919.592,9142.311,2918.311,9144.208,2917.444Z" transform="translate(-9141.526 -2794.843)" fill="#231f20" fill-rule="evenodd" opacity="0.04"/>
            <g id="Group_28906" data-name="Group 28906" transform="translate(12.032)">
              <g id="Group_28895" data-name="Group 28895" transform="translate(10.518)">
                <g id="Group_28894" data-name="Group 28894" transform="translate(15.08)">
                  <path id="Path_34744" data-name="Path 34744" d="M9321.961,2420.061a1.519,1.519,0,0,1-.331-1.808c.365-.671,1.86-1.521,1.977-1.641.185-.192.4-2.009,1.591-1.481a13.405,13.405,0,0,1-.56,2.129C9324.188,2417.858,9322.629,2420.24,9321.961,2420.061Z" transform="translate(-9321.221 -2412.275)" fill="#ffa698" fill-rule="evenodd"/>
                  <path id="Path_34745" data-name="Path 34745" d="M9323.734,2406.849c-1.225.9-2.9.584-3.2,2a15.814,15.814,0,0,0-.226,1.925,5.237,5.237,0,0,0,2.448,1.306,1.731,1.731,0,0,1,.258-.491,6.579,6.579,0,0,1,2.475-1.638c1.479-.735,1.659-.944,2.011-3.952.26-2.2.387-3.417-.535-3.891C9324.817,2401,9325.015,2405.065,9323.734,2406.849Z" transform="translate(-9320.313 -2401.92)" fill="#ffa698" fill-rule="evenodd"/>
                  <path id="Path_34746" data-name="Path 34746" d="M9328.276,2413.492c-.075.357-.134.693-.179,1.019a4.067,4.067,0,0,0,.81.24,1.71,1.71,0,0,1,.257-.492,6.585,6.585,0,0,1,2.475-1.637c1.479-.735,1.659-.945,2.012-3.953a8.607,8.607,0,0,0,.065-3.177c-.108-.323-.675-.233-.731.237-.254,2.1-.126,3.617-.956,5.1C9331.675,2411.463,9328.578,2412.074,9328.276,2413.492Z" transform="translate(-9326.459 -2404.589)" fill="#ff9281" fill-rule="evenodd"/>
                  <path id="Path_34747" data-name="Path 34747" d="M9327.993,2425.415c.117.407.648.5.289.609-1.9.6-2.463,1.137-2.625,2.637a5.149,5.149,0,0,1,3.179-2.45l1.045.248C9329.143,2426.014,9328.681,2425.825,9327.993,2425.415Z" transform="translate(-9324.532 -2420.47)" fill="#ff9281" fill-rule="evenodd"/>
                </g>
                <path id="Path_34748" data-name="Path 34748" d="M9249.488,2462.613c.755-.952,2.545-1.546,3.738-2.429a72.683,72.683,0,0,1,6.311-4.661c-.021-1.528,3.038-10.412,3.775-12.085a6.255,6.255,0,0,1,3.361,1.111c-.679,3.444-.6,7.927-1.536,10.955a12.2,12.2,0,0,1-.427,2.163,16.814,16.814,0,0,1-2.511,3.21,61.605,61.605,0,0,1-7.236,6.931c-1.976,1.42-3.043,1.159-4.048.57C9248.574,2467,9247.985,2464.506,9249.488,2462.613Z" transform="translate(-9248.662 -2434.685)" fill-rule="evenodd" fill="url(#linear-gradient-5)"/>
              </g>
              <g id="Group_28900" data-name="Group 28900" transform="translate(0 51.406)">
                <g id="Group_28897" data-name="Group 28897" transform="translate(0 49.114)">
                  <path id="Path_34749" data-name="Path 34749" d="M9217.095,2879.514a13.058,13.058,0,0,1-1.081,4.468c-.3.325-.67.521-.844.892-.934,1.987-1.139,3.9-.489,14.1l2.392.051.308-3.6c.3-1.46,1.116-3.6,1.448-4.919.722-2.882.791-4.326,1.233-6.448Z" transform="translate(-9211.019 -2879.514)" fill="#ffa698" fill-rule="evenodd"/>
                  <g id="Group_28896" data-name="Group 28896" transform="translate(0 4.199)">
                    <path id="Path_34750" data-name="Path 34750" d="M9199.748,2933.789a3.791,3.791,0,0,1-.81-.118c-.124-.137-.357-.814-.188-.941C9199.053,2932.53,9199.666,2933.593,9199.748,2933.789Z" transform="translate(-9198.69 -2925.708)" fill="#1f202b" fill-rule="evenodd"/>
                    <path id="Path_34751" data-name="Path 34751" d="M9203.615,2918.489a4.657,4.657,0,0,1-.408,2.736c-1,3.305-1.588,3.491-1.162,4.987a6.677,6.677,0,0,0,1.462,2.625,8.425,8.425,0,0,0,1.678,1.845c1.253.866,2.368,1.271,2.1-.467a8.29,8.29,0,0,0-.41-1.612c-.888-2.063-1.922-2.968-1.361-5.543.416-1.912,1.077-3.172.218-4.46Z" transform="translate(-9201.228 -2914.484)" fill="#161a40" fill-rule="evenodd"/>
                    <path id="Path_34752" data-name="Path 34752" d="M9201.5,2901.406a10.771,10.771,0,0,1-2.525,5.079c.2-.053.711.468.99,1.045,2.068-2.378,3.075-3.534,3.712-2.51a32.43,32.43,0,0,1-.64,3.628,3.619,3.619,0,0,0,.069,1.885c.813,1.95,2.3,4.8,1.733,5.729a3.369,3.369,0,0,0,.423-1.862c0-1.346-.232-3.169-.262-4.29-.038-1.513.534-2.827.626-4.889a16.693,16.693,0,0,0,0-1.727c-.087-1.458-.245-3.392-1.271-3.94a2.634,2.634,0,0,0-1.8.2A2.155,2.155,0,0,0,9201.5,2901.406Z" transform="translate(-9198.911 -2899.463)" fill="#161f69" fill-rule="evenodd"/>
                  </g>
                </g>
                <path id="Path_34753" data-name="Path 34753" d="M9234.565,2675.484l7.3-21.151.239-5.809a5.483,5.483,0,0,0-.758-2.362c-3.848,1.133-6,2.355-10.134,2.209-1.24,1.844-2.939,5.294-3,7.9-.123,5.079.276,8.467-1.276,16.958-4.611,15.526-2.22,14.987-3.983,25.3-.149,1.1,3.239,1.976,4.394,1.29Z" transform="translate(-9217.841 -2646.162)" fill-rule="evenodd" fill="url(#linear-gradient-6)"/>
                <path id="Path_34754" data-name="Path 34754" d="M9253.144,2675.484l7.3-21.151.237-5.809a5.431,5.431,0,0,0-.758-2.362c-.777.229-1.486.462-2.154.686l-4.293,6.86c-1.648,3.362-2.065,7.7-3.257,8.7,1.356,3.285.771,9.889.285,13.515-1.388-.465-2.662-.66-4.029-1.17.938.78,2.664,1.56,3.625,2.543a106.826,106.826,0,0,0-3.176,19.149Z" transform="translate(-9236.416 -2646.162)" fill="#1e2353" fill-rule="evenodd" opacity="0.3" style="mix-blend-mode: multiply;isolation: isolate"/>
                <g id="Group_28899" data-name="Group 28899" transform="translate(16.834 57.613)">
                  <path id="Path_34755" data-name="Path 34755" d="M9284.787,2919.9c-.059,1.623-1.6,3.194-1.779,4.247-.415,2.419,1.337,1.161,3.32,4.27.794-.007,2.543,2.855,4.911,3.006a1.273,1.273,0,0,0,.439-2.218c-.479-.278-.906-.072-1.3-.415-.819-.726-1.787-6.686-1.6-8.4Z" transform="translate(-9282.048 -2919.896)" fill="#ffa698" fill-rule="evenodd"/>
                  <g id="Group_28898" data-name="Group 28898" transform="translate(0 2.391)">
                    <path id="Path_34756" data-name="Path 34756" d="M9280.51,2931.256c1.923.236,3.716,4.929,5.2,6.969.722.99,2.252-.031,1.631-.3a16.045,16.045,0,0,1,2.338.022c1.205.194.782,1.4-.037,1.968-1.825,1.26-3.443,1.97-5.1,1.136a7.93,7.93,0,0,1-1.016-.676,5.048,5.048,0,0,1-.674-.547,18.464,18.464,0,0,1-1.231-2.554c-.161-.291-.294-.354-.4-.274a32.972,32.972,0,0,0,.106,5.345c-.054.242-.876.433-1.04.249l-1.527-7.495a2.67,2.67,0,0,1,.2-1.92A16.665,16.665,0,0,1,9280.51,2931.256Z" transform="translate(-9278.672 -2931.256)" fill="#161f69" fill-rule="evenodd"/>
                    <path id="Path_34757" data-name="Path 34757" d="M9295.567,2962.555a3.451,3.451,0,0,1-.979-.326,7.844,7.844,0,0,1-1.014-.675,5.039,5.039,0,0,1-.675-.547c-.581-.7-.864-1.986-1.508-2.871.215-.132.775-.119,1.339.808.847,1.555,1.426,2.7,2.542,3.454A1.782,1.782,0,0,0,9295.567,2962.555Z" transform="translate(-9288.715 -2952.431)" fill="#161a40" fill-rule="evenodd"/>
                  </g>
                </g>
                <path id="Path_34758" data-name="Path 34758" d="M9289.013,2684.938a41.327,41.327,0,0,0,.69-12.958c-.139-2.361.106-3.521-.671-5.809a13.82,13.82,0,0,0-1.126-2.362c-3.672,1.134-6.409,2.246-10.564,2.1a11.909,11.909,0,0,0-1.431,6.918c.671,5.078,2.416,9.232,2.979,17.941-1.428,10.149-.38,17-.172,26.831.025,1.1,3.55,1.976,4.6,1.29C9285.5,2707.363,9286.848,2696.2,9289.013,2684.938Z" transform="translate(-9259.596 -2660.094)" fill-rule="evenodd" fill="url(#linear-gradient-7)"/>
              </g>
              <path id="Path_34759" data-name="Path 34759" d="M9252.136,2540.065c-4.3-.486-4.307,6.6-2.812,9.933,3.889,8.677,1.374,10.018,1.73,13.972l-.08,1.593c3.7,5.5,14.4,5.072,15.7,1.1-.07-.248-.123-1.292-.218-1.552.255-3.488-1.419-6.235-1.095-8.611.544-3.992,2.716-5.4,1.547-8.809a19.625,19.625,0,0,0-5.576-4.376A28.983,28.983,0,0,0,9252.136,2540.065Z" transform="translate(-9237.957 -2510.971)" fill-rule="evenodd" fill="url(#linear-gradient-8)"/>
              <g id="Group_28902" data-name="Group 28902" transform="translate(24.512 11.14)">
                <g id="Group_28901" data-name="Group 28901" transform="translate(19.263)">
                  <path id="Path_34760" data-name="Path 34760" d="M9410.519,2459.465c-1.318.756-2.943.257-3.4,1.633a15.55,15.55,0,0,0-.438,1.887,5.234,5.234,0,0,0,2.288,1.572,1.674,1.674,0,0,1,.31-.46,6.58,6.58,0,0,1,2.642-1.352c1.553-.565,1.754-.754,2.439-3.7.5-2.16.765-3.353-.1-3.927C9412.246,2453.773,9411.99,2457.836,9410.519,2459.465Z" transform="translate(-9406.68 -2454.847)" fill="#ffa698" fill-rule="evenodd"/>
                  <path id="Path_34761" data-name="Path 34761" d="M9417.563,2464.535c-1.316.756-2.964.4-3.421,1.777-.114.346-.21.673-.292.992a4.094,4.094,0,0,0,.779.329,1.7,1.7,0,0,1,.31-.46,6.582,6.582,0,0,1,2.642-1.352c1.553-.564,1.754-.753,2.44-3.7a8.6,8.6,0,0,0,.419-3.149c-.071-.334-.646-.307-.752.154C9419.127,2461.492,9419.034,2462.905,9417.563,2464.535Z" transform="translate(-9412.34 -2457.924)" fill="#ff9281" fill-rule="evenodd"/>
                  <path id="Path_34762" data-name="Path 34762" d="M9416.989,2457.719a9.564,9.564,0,0,1-1.6,3.458c-.306.429-.347.81-.816,1.055-.2.1-.507-.184-.9-.479.069.417.294.748-.076.82-2.415.471-2.682,1.052-2.97,3.46l0,0c.908-1.791,1.825-1.758,3.217-2.452l.842-.711A11.607,11.607,0,0,0,9416.989,2457.719Z" transform="translate(-9409.798 -2457.115)" fill="#ff9281" fill-rule="evenodd"/>
                </g>
                <path id="Path_34763" data-name="Path 34763" d="M9316.022,2507.126c.965-.737,2.846-.875,4.221-1.439a72.521,72.521,0,0,1,7.26-2.975c.353-1.486,5.494-9.351,6.618-10.792a6.258,6.258,0,0,1,2.987,1.9c-1.5,3.173-2.525,7.539-4.173,10.245a12.068,12.068,0,0,1-.943,1.993,16.784,16.784,0,0,1-3.22,2.5,61.466,61.466,0,0,1-8.713,4.947c-2.264.893-2.333-.926-3.164-1.744C9315.816,2509.449,9314.1,2508.594,9316.022,2507.126Z" transform="translate(-9315.156 -2484.117)" fill-rule="evenodd" fill="url(#linear-gradient-9)"/>
              </g>
              <path id="Path_34764" data-name="Path 34764" d="M9252.136,2540.065c-4.3-.486-4.307,6.6-2.812,9.933,3.889,8.677,1.374,10.018,1.73,13.973l-.08,1.592c3.7,5.5,14.4,5.072,15.7,1.1-.064-.227-.115-1.124-.2-1.471-3.9,3.726-9.54,2.74-12.874.752a4.477,4.477,0,0,1,.08-2.711c2.683-2.889,9.313-1.852,10.924-9.781a8.149,8.149,0,0,0-1.363-6.694c-.708-.876-2.4-.792-3.351-2.114-1.551.366-4.437-.147-4.782-.78-.122-.22.489-2.158.392-2.394C9252.85,2540.294,9253.7,2540.241,9252.136,2540.065Z" transform="translate(-9237.957 -2510.971)" fill="#4165f3" fill-rule="evenodd" opacity="0.35" style="mix-blend-mode: multiply;isolation: isolate"/>
              <g id="Group_28905" data-name="Group 28905" transform="translate(1.362 12.201)">
                <g id="Group_28904" data-name="Group 28904" transform="translate(9.496 0.763)">
                  <g id="Group_28903" data-name="Group 28903">
                    <path id="Path_34765" data-name="Path 34765" d="M9260.031,2516.846c0,1.45,5.365,1.751,6.908.6l-.043-.341c-.207-2.153-.494-3.852-.048-5.51.879.152,2.863-.21,2.973-.525-6.282-2.976-13.2-4.64-13.493-2.321.888,1.421,2.5,2.2,3.414,3.045a3.272,3.272,0,0,1,.681,1.3h0A15.379,15.379,0,0,1,9260.031,2516.846Z" transform="translate(-9255.055 -2498.367)" fill-rule="evenodd" fill="url(#linear-gradient-10)"/>
                    <path id="Path_34766" data-name="Path 34766" d="M9265.021,2476.248c-.386.4-3.875.091-4.133.166-2.49.719-5.247,1.152-5.923.527-.912-.846-2.524-1.625-3.412-3.045-1.42-2.271-1.913-5.093-.113-7.563,3.129-4.294,9.867-3.276,11.648.332.729,1.48.313,1.716.635,2.747a16.676,16.676,0,0,1,1.182,4.218C9265.111,2474.812,9265.276,2475.98,9265.021,2476.248Z" transform="translate(-9250.278 -2463.515)" fill="#ffa698" fill-rule="evenodd"/>
                  </g>
                  <path id="Path_34767" data-name="Path 34767" d="M9272.338,2540.452c.142,1.284,3.756,2.189,5.948,1.679.234-.055.382-.1.466-.249a4.712,4.712,0,0,1,1.3,2.076c-1.895,1.827-7.883.756-8.61-1.383A1.61,1.61,0,0,1,9272.338,2540.452Z" transform="translate(-9266.894 -2524.259)" fill="#06c0e1" fill-rule="evenodd"/>
                </g>
                <path id="Path_34768" data-name="Path 34768" d="M9208.287,2475.308c-2.983,3.6-4.124,9.094-2.124,11.6,1.813,2.271,5.487,3,4.686,4.893-.664,1.561-2.511,3.4.278,5.028,1.437.838,4.986,3.156,11.026.133,5.887-2.947,11.509-9.627,5.467-14.111-6.358-4.719-3.387-6.774-1-12.194,1.262-2.865,1.971-8.116.276-9.616-2.907-2.573-4.163.056-6.664-.512a8.025,8.025,0,0,0-9.755,5.053C9209.065,2468.969,9210.659,2472.449,9208.287,2475.308Z" transform="translate(-9205.161 -2459.89)" fill-rule="evenodd" fill="url(#linear-gradient-11)"/>
              </g>
            </g>
          </g>
          <g id="Group_28910" data-name="Group 28910" transform="translate(17.309)">
            <path id="Path_34769" data-name="Path 34769" d="M9236.051,2051.735c.184-1.41-.2-2.262.5-3.059a8.277,8.277,0,0,1,2.44-1.383,4.5,4.5,0,0,1,3.885.511l40.189,23.489c3.234,1.874,5.434,6.679,4.9,10.722l-7.029,55.017a6.17,6.17,0,0,1-1.7,3.793,6.614,6.614,0,0,1-2.933,1.451c-.919.115-1.162-.715-2.2-1.313l-40.187-23.49c-3.24-1.876-5.435-6.679-4.905-10.722Z" transform="translate(-9227.852 -2047.054)" fill="#c1c1c1" fill-rule="evenodd"/>
            <path id="Path_34770" data-name="Path 34770" d="M9230.873,2054.8c.53-4.044,3.588-5.807,6.826-3.931l40.189,23.49c3.236,1.874,5.435,6.679,4.9,10.722l-7.027,55.017c-.531,4.042-3.592,5.8-6.827,3.931l-40.188-23.49c-3.24-1.876-5.435-6.679-4.9-10.722Z" transform="translate(-9223.766 -2049.471)" fill="#fff" fill-rule="evenodd"/>
            <path id="Path_34771" data-name="Path 34771" d="M9256.644,2054.8c.529-4.044,3.586-5.807,6.826-3.932l40.188,23.49c3.236,1.874,5.436,6.679,4.9,10.722l-.259,1.906a10.239,10.239,0,0,0-1.084-.724l-50.813-29.7Z" transform="translate(-9249.536 -2049.471)" fill-rule="evenodd" fill="url(#linear-gradient-12)"/>
            <g id="Group_28908" data-name="Group 28908" transform="translate(4.631 24.854)">
              <path id="Path_34772" data-name="Path 34772" d="M9336.07,2166.375c.141-1.079.954-1.537,1.816-1.021l26.243,14.879a3.138,3.138,0,0,1,1.306,2.889l-.274,2.134c-.143,1.079-.957,1.536-1.818,1.021L9337.1,2171.4a3.137,3.137,0,0,1-1.306-2.89Z" transform="translate(-9316.83 -2165.142)" fill="#ebecef" fill-rule="evenodd"/>
              <path id="Path_34773" data-name="Path 34773" d="M9331.735,2205.569c.084-.637.563-.907,1.073-.6l15.5,8.786a1.852,1.852,0,0,1,.771,1.707l-.163,1.26c-.083.637-.563.907-1.072.6l-15.5-8.786a1.855,1.855,0,0,1-.772-1.706Z" transform="translate(-9313.504 -2196.485)" fill="#ebecef" fill-rule="evenodd"/>
              <path id="Path_34774" data-name="Path 34774" d="M9258.068,2221.647c.083-.637.563-.907,1.074-.6l41.052,22.752a1.856,1.856,0,0,1,.771,1.706l-.161,1.26c-.084.637-.565.908-1.074.6l-41.053-22.752a1.853,1.853,0,0,1-.771-1.707Z" transform="translate(-9255.34 -2209.18)" fill="#ebecef" fill-rule="evenodd"/>
              <path id="Path_34775" data-name="Path 34775" d="M9252.326,2253.419c.083-.637.563-.907,1.074-.6l41.053,22.751a1.857,1.857,0,0,1,.77,1.707l-.161,1.26c-.084.637-.565.907-1.074.6l-41.053-22.752a1.848,1.848,0,0,1-.771-1.707Z" transform="translate(-9250.808 -2234.265)" fill="#ebecef" fill-rule="evenodd"/>
              <path id="Path_34776" data-name="Path 34776" d="M9245.943,2286.656c.084-.637.563-.908,1.073-.6l18.862,10.515a1.854,1.854,0,0,1,.771,1.706l-.161,1.26c-.085.637-.565.907-1.073.6l-18.862-10.515a1.853,1.853,0,0,1-.772-1.707Z" transform="translate(-9245.768 -2260.506)" fill="#ebecef" fill-rule="evenodd"/>
            </g>
            <g id="Group_28909" data-name="Group 28909" transform="translate(42.453 22.417)">
              <path id="Path_34777" data-name="Path 34777" d="M9427.176,2153.6a2.31,2.31,0,0,1,1.529,2.373c-.047,1.106-.807,1.837-1.7,1.633a2.31,2.31,0,0,1-1.53-2.372C9425.522,2154.124,9426.282,2153.392,9427.176,2153.6Z" transform="translate(-9425.474 -2153.563)" fill="#fff" fill-rule="evenodd"/>
              <path id="Path_34778" data-name="Path 34778" d="M9446.477,2164.683a2.311,2.311,0,0,1,1.53,2.372c-.048,1.106-.809,1.838-1.7,1.634a2.312,2.312,0,0,1-1.529-2.372C9444.823,2165.21,9445.585,2164.479,9446.477,2164.683Z" transform="translate(-9440.712 -2162.315)" fill="#fff" fill-rule="evenodd"/>
              <path id="Path_34779" data-name="Path 34779" d="M9467.362,2176.859a2.313,2.313,0,0,1,1.53,2.373c-.047,1.106-.808,1.837-1.7,1.633a2.311,2.311,0,0,1-1.531-2.373C9465.709,2177.386,9466.47,2176.655,9467.362,2176.859Z" transform="translate(-9457.201 -2171.929)" fill="#fff" fill-rule="evenodd"/>
            </g>
          </g>
        </g>
      </g>
    </g>
    <g id="Group_28927" data-name="Group 28927" transform="translate(8253.908 1671.831)">
      <path id="Path_34780" data-name="Path 34780" d="M8542.422,2533.944l23.538-13.406c2.565-1.172,6.238-2.106,8.853-.745,2.384,1.24,6.307,3.777,8.041,4.767,1.319.752,5.895,3.492,3.044,5.042-8.382,4.558-16.678,9.684-25.189,14.315a11.941,11.941,0,0,1-6.437.987,17.03,17.03,0,0,1-6.971-2.076l-4.175-2.43c-1.847-1.075-2.824-2.346-2.923-3.522C8540.108,2535.727,8540.847,2534.663,8542.422,2533.944Z" transform="translate(-8540.194 -2421.612)" fill="#231f20" fill-rule="evenodd" opacity="0.04"/>
      <g id="Group_28926" data-name="Group 28926" transform="translate(3.084)">
        <g id="Group_28917" data-name="Group 28917" transform="translate(21.454 15.77)">
          <g id="Group_28915" data-name="Group 28915" transform="translate(27.312 9.23)">
            <path id="Path_34781" data-name="Path 34781" d="M8792.986,2176.857a3.927,3.927,0,0,1-.555-.131c.2-.028.369-.055.485-.078a16.607,16.607,0,0,0,2.255-1.434c-.679-1.372-2.36.052-2.688.079-.13.01-1.006-.146-1.857-.185a3.11,3.11,0,0,0-2.809,1.121c-.388.271-.822.6-1.266.953a5.832,5.832,0,0,0,.95,3.1,2.213,2.213,0,0,1,.657-.183,8.578,8.578,0,0,1,3.586.738c1.927.64,2.269.619,5.243-1.521,2.178-1.568,3.365-2.446,2.993-3.6C8799.11,2173.023,8795.672,2176.481,8792.986,2176.857Z" transform="translate(-8786.552 -2174.619)" fill="#ffa698" fill-rule="evenodd"/>
            <g id="Group_28914" data-name="Group 28914" transform="translate(0.465 1.112)">
              <path id="Path_34782" data-name="Path 34782" d="M8794.486,2185.8c-1.852-.294-3.146-1.828-4.664-.931-.383.226-.73.449-1.06.675a4.587,4.587,0,0,0,.485.87,2.2,2.2,0,0,1,.657-.184,8.593,8.593,0,0,1,3.586.738c1.927.64,2.268.62,5.242-1.521a10.389,10.389,0,0,0,2.876-2.518c.193-.353-.376-.752-.842-.418C8798.37,2184.223,8797.172,2185.423,8794.486,2185.8Z" transform="translate(-8788.763 -2181.861)" fill-rule="evenodd" fill="url(#linear-gradient-13)"/>
              <path id="Path_34783" data-name="Path 34783" d="M8804.935,2179.9c-.813.619-5.082,2.588-6.083,2.387-.27-.053-.227-.573-.254-1.214-.205.426.049,1.382-.36,1.174-2.289-1.164-3.278-1.379-4.6-.539a4.745,4.745,0,0,1,2.617.188c.8.268,1.537.738,2.382.968A15.077,15.077,0,0,0,8804.935,2179.9Z" transform="translate(-8792.608 -2179.901)" fill-rule="evenodd" fill="url(#linear-gradient-14)"/>
            </g>
          </g>
          <g id="Group_28916" data-name="Group 28916">
            <path id="Path_34784" data-name="Path 34784" d="M8666.291,2152.955c-.461-.451-.9-.931-1.2-1.21-2.325-2.158-6.15-9.16-8.306-19.588a11.9,11.9,0,0,1,3.5-1.313,4.3,4.3,0,0,1,3.87,1.221c.964,1.138,1.948,3.216,2.551,6.535.408,2.238,2.075,5.229,3.2,7.995.05.122.1.243.146.364a52.41,52.41,0,0,1,4.957-2.244c2.243-.9,4.8-1.741,7.571-2.545.329-.1.636.122.963.028.182-.078,1-.366,1.14-.434a5.823,5.823,0,0,0,1.356,4.016c-.167.057-1.06.469-1.242.536a3.928,3.928,0,0,0-.8.762c-2.082,2.151-8.091,5.371-13.622,7.062C8668.5,2154.712,8667.085,2154.4,8666.291,2152.955Z" transform="translate(-8656.783 -2130.766)" fill-rule="evenodd" fill="url(#linear-gradient-15)"/>
            <path id="Path_34785" data-name="Path 34785" d="M8666.291,2153.8c-.461-.451-.9-.931-1.2-1.21-2.325-2.157-6.15-9.159-8.306-19.588,4.633-3.77,9.068,2.456,9.827,6.632.984,5.41,1.945,10.026,2,15.616A2.621,2.621,0,0,1,8666.291,2153.8Z" transform="translate(-8656.783 -2131.614)" fill="#3469c0" fill-rule="evenodd" opacity="0.35" style="mix-blend-mode: multiply;isolation: isolate"/>
          </g>
        </g>
        <g id="Group_28918" data-name="Group 28918" transform="translate(8.003 45.605)">
          <path id="Path_34786" data-name="Path 34786" d="M8594.449,2557.166a10.1,10.1,0,0,1-.285,1.461,16.976,16.976,0,0,0-.751,2.347c-.384,1.635.145,3.826-.375,6.14a2.532,2.532,0,0,0,.367,2.484c.6.8,1.736,2.084,3.216,2.036a2.219,2.219,0,0,0,1.559-.757,3.721,3.721,0,0,0,.932-2.743,23.083,23.083,0,0,1-.245-3.156c.04-1.133.246-1.757.221-3-.028-1.313-.129-3.122-.149-3.969Z" transform="translate(-8592.875 -2497.257)" fill="#193161" fill-rule="evenodd"/>
          <path id="Path_34787" data-name="Path 34787" d="M8659.662,2520.42a7.607,7.607,0,0,0-.729,3.285c.263.858.866,1.206,1.54,1.8l.475.1c1.177.637,1.606,2.869,2.7,3.885a8.473,8.473,0,0,0,3.826,1.4c1.626.314,3.171-.151,2.747-1.429-1.052-3.177-5.6-6.766-5.7-10.316Z" transform="translate(-8645.03 -2467.241)" fill="#193161" fill-rule="evenodd"/>
          <path id="Path_34788" data-name="Path 34788" d="M8651.58,2303.053c-.117,6.087-1.445,17.479-1.24,23.477a4,4,0,0,1-5.681-.519c-.633-5.52-1.368-13.36-1.441-16.389a23.5,23.5,0,0,1,.81-7.1c-.9-6.66-4.75-15.748-3.834-22.014.4-2.752,2.206-5.715,2.73-7.986,4.536,5.589,7.993,2.91,9.871,2.425-.01,1.932.136,1.674.073,3.7-.213,6.863-.532,14.192-.908,21.313A9.746,9.746,0,0,1,8651.58,2303.053Z" transform="translate(-8630.124 -2272.521)" fill-rule="evenodd" fill="url(#linear-gradient-16)"/>
          <path id="Path_34789" data-name="Path 34789" d="M8643.612,2315.4c-.212-2.4-.363-4.483-.395-5.773a23.5,23.5,0,0,1,.81-7.1c-.9-6.66-4.75-15.748-3.834-22.014.4-2.752,2.206-5.715,2.73-7.986,4.536,5.589,7.993,2.91,9.871,2.425,0,.216,0,.4,0,.571l-5.945,4.393,1.466-.331c-.057,7.909-1.035,15.119-1.182,22.919a118.506,118.506,0,0,0-3.5,12.759Z" transform="translate(-8630.124 -2272.521)" fill="#1e2353" fill-rule="evenodd" opacity="0.3" style="mix-blend-mode: multiply;isolation: isolate"/>
          <path id="Path_34790" data-name="Path 34790" d="M8608.492,2313.629c-1.094,6.087-4.283,20.857-5.043,26.856-1.964,1.091-4.472.521-5.166-1.074-.021-5.52,0-15.446.413-18.474a37.959,37.959,0,0,1,2.243-8.673c-.4-14.221-1.991-18.011-.07-24.278.844-2.752,3.051-5.407,3.94-7.678,1.218,1.87,3.1,4.524,7.121,4.2.395-.032,3.75-2.429,4.858-2.7-1.4,8.461-5.451,19.512-7.421,28.74A10.679,10.679,0,0,1,8608.492,2313.629Z" transform="translate(-8597.141 -2278.668)" fill-rule="evenodd" fill="url(#linear-gradient-17)"/>
        </g>
        <path id="Path_34791" data-name="Path 34791" d="M8605.843,2129.865a3.357,3.357,0,0,1,1.257.423c2.993,1.662,4.039,6.555,4.52,10.841a64.877,64.877,0,0,1-.018,10.206c-.095,2.714.255,5.225.134,7.794-.036.761-.325,1.586-.4,2.4,0,.579-.2,1.156-.2,1.6-1.5,5.716-15.666,6.189-17.729,2.319a11.585,11.585,0,0,0,.363-1.731c-1.334-1.215-.562-4.176-.775-6.244a16.658,16.658,0,0,0-.839-4.269c-1.927-4.746-4.617-8.4-5.151-12.043-.368-2.51,2.839-5.634,7.067-8.165C8598.142,2130.559,8603.665,2129.23,8605.843,2129.865Z" transform="translate(-8580.215 -2114.16)" fill-rule="evenodd" fill="url(#linear-gradient-18)"/>
        <g id="Group_28922" data-name="Group 28922" transform="translate(9.834 26.1)">
          <g id="Group_28921" data-name="Group 28921" transform="translate(0.545)">
            <g id="Group_28919" data-name="Group 28919" transform="translate(0 0.269)">
              <path id="Path_34792" data-name="Path 34792" d="M8625.2,2181.853c-1.5,1.525-10.774,10.385-21.038,8.108l.105-.7c10.818,2.4,20.588-8.111,20.615-8.141l.265.252c.014.116.026.233.039.349C8625.192,2181.766,8625.2,2181.809,8625.2,2181.853Z" transform="translate(-8604.162 -2181.121)" fill-rule="evenodd" fill="url(#linear-gradient-19)"/>
              <path id="Path_34793" data-name="Path 34793" d="M8631.906,2206.783c-2.538,2.391-10.43,8.972-19.258,7.695-.062-.261-.129-.511-.205-.748,9.4,1.53,17.834-6.341,19.487-8C8631.926,2206.085,8631.917,2206.435,8631.906,2206.783Z" transform="translate(-8610.7 -2200.553)" fill="#70b4f5" fill-rule="evenodd"/>
            </g>
            <path id="Path_34794" data-name="Path 34794" d="M8611.335,2192.657l1.823-3.8,2.445,4.124,2.105-5.021,2.895,3.872,1.5-5.394,3.058,3.3,1.392-6.138,2.28,3.442,1.913-7.2c.037.292.074.582.105.87.011.1.022.2.032.306l-1.872,7.046-2.254-3.4-1.351,5.952-3.086-3.33-1.524,5.495-2.967-3.967-2.146,5.118-2.47-4.167-1.666,3.463c-.049-.153-.1-.3-.159-.44C8611.37,2192.744,8611.354,2192.7,8611.335,2192.657Z" transform="translate(-8609.825 -2179.845)" fill="#70b4f5" fill-rule="evenodd"/>
            <g id="Group_28920" data-name="Group 28920" transform="translate(0.732 3.9)">
              <path id="Path_34795" data-name="Path 34795" d="M8619.451,2237.563a.4.4,0,0,1,.359.4.337.337,0,0,1-.359.349.4.4,0,0,1-.36-.4A.338.338,0,0,1,8619.451,2237.563Z" transform="translate(-8616.681 -2229.314)" fill="#70b4f5" fill-rule="evenodd"/>
              <path id="Path_34796" data-name="Path 34796" d="M8629.78,2227.076a.4.4,0,0,1,.36.4.338.338,0,0,1-.36.349.4.4,0,0,1-.36-.4A.338.338,0,0,1,8629.78,2227.076Z" transform="translate(-8624.836 -2221.035)" fill="#70b4f5" fill-rule="evenodd"/>
              <path id="Path_34797" data-name="Path 34797" d="M8641.849,2234.846a.4.4,0,0,1,.358.4.337.337,0,0,1-.358.349.4.4,0,0,1-.36-.4A.338.338,0,0,1,8641.849,2234.846Z" transform="translate(-8634.364 -2227.169)" fill="#70b4f5" fill-rule="evenodd"/>
              <path id="Path_34798" data-name="Path 34798" d="M8652.063,2221.32a.4.4,0,0,1,.36.4.338.338,0,0,1-.36.349.4.4,0,0,1-.359-.4A.337.337,0,0,1,8652.063,2221.32Z" transform="translate(-8642.43 -2216.49)" fill="#70b4f5" fill-rule="evenodd"/>
              <path id="Path_34799" data-name="Path 34799" d="M8664.861,2226.39a.4.4,0,0,1,.36.4.338.338,0,0,1-.36.349.4.4,0,0,1-.359-.4A.338.338,0,0,1,8664.861,2226.39Z" transform="translate(-8652.534 -2220.493)" fill="#70b4f5" fill-rule="evenodd"/>
              <path id="Path_34800" data-name="Path 34800" d="M8672.5,2211.444a.4.4,0,0,1,.359.4.337.337,0,0,1-.359.349.4.4,0,0,1-.361-.4A.338.338,0,0,1,8672.5,2211.444Z" transform="translate(-8658.561 -2208.693)" fill="#70b4f5" fill-rule="evenodd"/>
              <path id="Path_34801" data-name="Path 34801" d="M8685.406,2214.615a.4.4,0,0,1,.359.4.338.338,0,0,1-.359.349.4.4,0,0,1-.361-.4A.338.338,0,0,1,8685.406,2214.615Z" transform="translate(-8668.754 -2211.196)" fill="#70b4f5" fill-rule="evenodd"/>
              <path id="Path_34802" data-name="Path 34802" d="M8692.254,2198.378a.4.4,0,0,1,.359.4.337.337,0,0,1-.359.349.4.4,0,0,1-.36-.4A.338.338,0,0,1,8692.254,2198.378Z" transform="translate(-8674.162 -2198.377)" fill="#70b4f5" fill-rule="evenodd"/>
              <path id="Path_34803" data-name="Path 34803" d="M8703.256,2200.093a.343.343,0,0,1,.09.018q0,.365,0,.726a.339.339,0,0,1-.093.006.4.4,0,0,1-.36-.4A.337.337,0,0,1,8703.256,2200.093Z" transform="translate(-8682.848 -2199.731)" fill="#70b4f5" fill-rule="evenodd"/>
              <path id="Path_34804" data-name="Path 34804" d="M8608,2227.425a.4.4,0,0,1,.359.4.337.337,0,0,1-.359.349.4.4,0,0,1-.36-.4A.338.338,0,0,1,8608,2227.425Z" transform="translate(-8607.64 -2221.31)" fill="#70b4f5" fill-rule="evenodd"/>
            </g>
          </g>
          <path id="Path_34805" data-name="Path 34805" d="M8605.424,2190.266a19.11,19.11,0,0,1-1.586,10.507,33.258,33.258,0,0,0-2.264-4.811C8601.656,2195.736,8604.756,2186.647,8605.424,2190.266Z" transform="translate(-8601.574 -2187.401)" fill="#3469c0" fill-rule="evenodd" opacity="0.35" style="mix-blend-mode: multiply;isolation: isolate"/>
        </g>
        <g id="Group_28923" data-name="Group 28923" transform="translate(0 23.487)">
          <path id="Path_34806" data-name="Path 34806" d="M8605.77,2298.347c.655.341,1.826.638,2.306.884.248.127,2.032,1.083,3.037,1.669,1.076.626,1.432,1.607,2.119,2.677a7.039,7.039,0,0,1,.823,1.969c.095.464-1.035,1.441-1.548,1.362-1.165-.18-2.428-1.514-2.741-1.651-2.658-1.167-3.9-1.219-4.9-2.22-.425-.427-.754-1.737-1.649-2.875l1.484-1.529Z" transform="translate(-8593.039 -2270.793)" fill-rule="evenodd" fill="url(#linear-gradient-20)"/>
          <path id="Path_34807" data-name="Path 34807" d="M8561.421,2169.2c-2.368,3.793-4.074,10.693-6.177,15.367a2.987,2.987,0,0,0-.272.993c-.39,1.16.219,2.13,1.022,3.162a34.056,34.056,0,0,0,7.6,7.824,2.44,2.44,0,0,0,1.06.313c.256.184.616.522.886.714-.346-.39,1.432-2.61,2.308-2.529-.242-.261-.488-.546-.739-.848a2.7,2.7,0,0,0-.25-.975,41.162,41.162,0,0,0-5.366-7.105c.942-1.226,1.739-2.653,2.4-3.659a60.592,60.592,0,0,0,3.132-5.416c.366-.714.573-1.068.927-1.8C8570.571,2169.785,8564.293,2164.6,8561.421,2169.2Z" transform="translate(-8554.851 -2167.429)" fill-rule="evenodd" fill="url(#linear-gradient-21)"/>
        </g>
        <g id="Group_28925" data-name="Group 28925" transform="translate(15.812)">
          <g id="Group_28924" data-name="Group 28924">
            <path id="Path_34808" data-name="Path 34808" d="M8640.4,2117.658c.041-.229.1-.458.146-.7.139-.7-.041-2.058.145-3.66l-6.066-2.563c-.1,3.407-.658,4.109-1.286,6.885.067,2.73,6.847,3.951,6.989.745A4.849,4.849,0,0,1,8640.4,2117.658Z" transform="translate(-8632.631 -2099.178)" fill="#ffa698" fill-rule="evenodd"/>
            <path id="Path_34809" data-name="Path 34809" d="M8644.663,2117.658c.042-.229.1-.458.146-.7.139-.7-.043-2.058.145-3.66l-6.068-2.563c-.021.773-.069,1.41-.134,1.965-.215,2.257,1.946,6.187,5.838,5.665A4.849,4.849,0,0,1,8644.663,2117.658Z" transform="translate(-8636.895 -2099.178)" fill-rule="evenodd" fill="url(#linear-gradient-22)"/>
            <path id="Path_34810" data-name="Path 34810" d="M8641.769,2082.565c-.743-.491-2.778-1.727-3.444-2.216-1.459-1.07-1.283-2.435-1.705-4.574a3.839,3.839,0,0,1-1.943-2.623,6.337,6.337,0,0,1,2.477-5.534,5.514,5.514,0,0,1,4.773-.975c3.48.763,4.914,3.4,5.1,6.408a1.988,1.988,0,0,1-.1.748,9.561,9.561,0,0,0-.321,1.119c-.185.894.419,1.217.179,2.326a16.8,16.8,0,0,1-2.092,4.948A5.362,5.362,0,0,1,8641.769,2082.565Z" transform="translate(-8633.652 -2064.238)" fill="#ffa698" fill-rule="evenodd"/>
            <path id="Path_34811" data-name="Path 34811" d="M8667.664,2091.471a10.078,10.078,0,0,1,.168,1.313,2.03,2.03,0,0,1-.1.748,9.546,9.546,0,0,0-.321,1.118c-.184.894.42,1.217.179,2.327a18.074,18.074,0,0,1-.941,2.774c-2.241,1.7-4.2-.377-4.5-.764-1.406-1.811-1.514-4.521-.45-7.052A8.605,8.605,0,0,0,8667.664,2091.471Z" transform="translate(-8654.459 -2083.971)" fill-rule="evenodd" fill="url(#linear-gradient-23)"/>
            <path id="Path_34812" data-name="Path 34812" d="M8630.027,2063.77a17.369,17.369,0,0,0,1.677,5.2c.706,1.136.4-.256.771-1.034.286-.6,1.213-.667,1.493-1.284a1.941,1.941,0,0,0,.658,1.219c.215.117.65.278.668-.34.059-2.136,1.069-2.284.75-3.564-.239-.96-.182-1.372.054-1.719.7.1,1.146.812,1.963,1.164a7.144,7.144,0,0,0,4.854-.462,2.625,2.625,0,0,0,.436-4.384,25.853,25.853,0,0,0-2.969-1.785,5.476,5.476,0,0,0-7.047.746C8630.166,2058.173,8629.82,2061.2,8630.027,2063.77Z" transform="translate(-8629.979 -2055.837)" fill="#562e65" fill-rule="evenodd"/>
            <path id="Path_34813" data-name="Path 34813" d="M8641,2101.588c-1.312-.6-1.476.972-1.358,1.944.081.668.625.672.771,1.207a1.237,1.237,0,0,0,1.03,1c.829.058.437-1.22.386-1.718C8642,2103.23,8641.833,2101.966,8641,2101.588Z" transform="translate(-8637.583 -2091.855)" fill="#ffa698" fill-rule="evenodd"/>
          </g>
          <path id="Path_34814" data-name="Path 34814" d="M8663.285,2071.922c-.129.892,1.02,1.941,2.633,2.03,1.5.082,3.525-.272,4.275-2.09a2.073,2.073,0,0,0-.786-2.244,1.878,1.878,0,0,0-1.794.009c-1.106.486-2.028,1.722-2.821,2.026A11.064,11.064,0,0,1,8663.285,2071.922Z" transform="translate(-8656.268 -2066.541)" fill-rule="evenodd" fill="url(#linear-gradient-24)"/>
        </g>
      </g>
    </g>
    <g id="Group_28932" data-name="Group 28932" transform="translate(8310.138 1677.044)">
      <g id="Group_28931" data-name="Group 28931" transform="translate(0)">
        <g id="Group_28928" data-name="Group 28928" transform="translate(9.427 10.752)">
          <path id="Path_34815" data-name="Path 34815" d="M8852.435,2131.705a.331.331,0,0,1,.08.076c.375.483.761.953,1.123,1.447.342.463.658.949.984,1.427a1.073,1.073,0,0,1,.225.672c-.017.5-.006,1.013-.008,1.521,0,.252-.044.272-.27.142l-.786-.452-.428-.244c-.119-.069-.238-.139-.356-.215a.937.937,0,0,1-.246-.263c-.181-.279-.343-.571-.52-.851-.088-.138-.113-.227-.035-.3a1.139,1.139,0,0,0,.164-.186c.028-.034.054-.041.082-.026a.256.256,0,0,1,.08.105l.01.016a1.456,1.456,0,0,0,.606.706c.046.026.093.05.14.071.067.03.134.066.2.105.118.068.235.144.352.211.15.086.167.076.167-.1,0-.246,0-.5.006-.738a.663.663,0,0,0-.11-.363q-.746-1.268-1.485-2.539a.405.405,0,0,1-.063-.19C8852.362,2131.691,8852.395,2131.683,8852.435,2131.705Z" transform="translate(-8852.151 -2131.693)" fill="#3a73b6"/>
        </g>
        <g id="Group_28929" data-name="Group 28929" transform="translate(8.508 8.252)">
          <path id="Path_34816" data-name="Path 34816" d="M8849.595,2119.868l.428.249.424.244.635.367a.354.354,0,0,1,.224.393c0,.312,0,.622,0,.932s0,.62,0,.931a.228.228,0,0,1-.114.23,4.425,4.425,0,0,0-.478.307.1.1,0,0,1-.12.01.336.336,0,0,1-.1-.1c-.084-.118-.169-.232-.256-.346s-.073-.154-.012-.183l.019-.011c.265-.053.335-.3.3-.671a6.336,6.336,0,0,1,0-.667.272.272,0,0,0-.15-.265l-.126-.072-.123-.072c-.054-.032-.109-.065-.166-.1-.09-.052-.18-.1-.271-.149a.264.264,0,0,0-.235-.017c-.5.281-.986.575-1.477.867-.033.019-.062.05-.1.026a.171.171,0,0,1-.056-.058.189.189,0,0,1-.019-.223,4.051,4.051,0,0,1,1.09-1.336,4.186,4.186,0,0,1,.411-.313C8849.388,2119.791,8849.481,2119.8,8849.595,2119.868Z" transform="translate(-8847.786 -2119.811)" fill="#3a73b6"/>
        </g>
        <g id="Group_28930" data-name="Group 28930">
          <path id="Path_34817" data-name="Path 34817" d="M8820.5,2097.562c0,.193,0,.385,0,.578,0,.311-.121.38-.394.223l-5.064-2.923-.073-.041c-.019-.011-.037-.022-.056-.035-.124-.074-.16-.039-.157.085,0,.4,0,.8,0,1.2l0,1.007c0,.071,0,.119-.068.081-1.416-1.1-2.794-2.165-4.171-3.232q-1.487-1.152-2.971-2.3a.353.353,0,0,1-.171-.32q.025-5.559.035-11.124c0-.122.008-.184.144-.131.78.306,1.561.595,2.339.889l3.378,1.276c.485.184.973.374,1.458.56.016.006.033.018.067.036v.281c0,.735,0,1.472-.009,2.2a.274.274,0,0,0,.167.289q1.4.807,2.813,1.62l2.277,1.316a1.348,1.348,0,0,1,.165.108.746.746,0,0,1,.322.637Zm-.368.187.021-7.856c0-.219,0-.221-.189-.33l-4.947-2.857-.043-.023-.021-.014a.233.233,0,0,0-.029-.018c-.07-.042-.1-.02-.1.085.007.172.006.341,0,.5a.206.206,0,0,0,.118.212l.175.1c.087.05.174.1.261.157a.45.45,0,0,1,.14.135c.2.329.4.661.6,1,.029.049.054.148.034.172a3.361,3.361,0,0,1-.259.316.925.925,0,0,1-.082-.122,1.623,1.623,0,0,0-.676-.782,1.742,1.742,0,0,0-.165-.083c-.105-.048-.149-.051-.148.083.006.474,0,.941,0,1.407a.649.649,0,0,0,.107.357q.5.843.994,1.69a.293.293,0,0,1,.038.181c-.016.036-.041.039-.071.021a.329.329,0,0,1-.079-.075c-.219-.272-.441-.536-.661-.808-.1-.125-.2-.259-.328-.426l0,.681c0,.567,0,1.133,0,1.7a.342.342,0,0,0,.054.17c.067.042.135.089.2.127a.318.318,0,0,0,.338.043c.479-.3.973-.584,1.461-.875.03-.017.063-.038.1-.018a.15.15,0,0,1,.051.06.2.2,0,0,1,0,.161c-.242.321-.478.651-.741.942a8.4,8.4,0,0,1-.717.637.283.283,0,0,1-.359.011c-.017-.01-.035-.021-.054-.034s-.06-.04-.091-.057l-.074-.041-.075-.041-.031-.019c-.084-.048-.114-.02-.114.069,0,.125,0,.247,0,.371,0,.194,0,.194.173.293l5.024,2.9c.175.1.175.1.177-.1m-8.119-6.212c0-.267.006-.53,0-.8a.3.3,0,0,0-.091-.153c-.349-.23-.7-.453-1.052-.671a.237.237,0,0,1-.138-.235c.008-.262.01-.529,0-.8,0-.12.033-.13.128-.076.143.086.282.166.419.246.156.089.308.178.463.27.105.061.134.034.131-.079-.008-.226-.008-.449,0-.665a.217.217,0,0,0-.129-.23l-.013-.008c-.16-.089-.318-.181-.478-.273l-.4-.23a.186.186,0,0,1-.121-.189c0-.278,0-.56,0-.842,0-.083.026-.1.1-.058.2.11.4.214.6.323.111.06.223.13.334.183.036.017.094,0,.1-.025.008-.3.007-.606.007-.92-.035-.024-.062-.044-.089-.059-.551-.271-1.095-.534-1.635-.81-.128-.065-.157-.033-.157.1,0,1.187,0,2.369-.007,3.553,0,.34,0,.683-.006,1.02a.235.235,0,0,0,.115.246l.021.011.032.017c.074.043.149.1.224.155.246.169.493.339.741.506s.512.344.769.514l.035.022c.049.028.089.037.091-.047" transform="translate(-8807.362 -2080.606)" fill="#3a73b6"/>
        </g>
      </g>
    </g>
    <g id="Group_28944" data-name="Group 28944" transform="translate(8355.747 1646.589)">
      <g id="Group_28943" data-name="Group 28943" transform="translate(0)">
        <g id="Group_28933" data-name="Group 28933" transform="translate(2.482 4.276)">
          <path id="Path_34818" data-name="Path 34818" d="M9038.786,1957.844l.021.013a.341.341,0,0,1,.2.329c0,.016,0,.033,0,.052-.007.075-.011.154-.011.233,0,.1,0,.207.008.311v.026c0,.117-.049.128-.149.072l-.479-.278-.185-.107-.093-.053-.492-.284-.493-.284-.22-.127,0,1.384c0,.466,0,.466.406.7q.661.382,1.319.763c.231.134.231.135.231.407v.031c0,.091,0,.181,0,.272,0,.061,0,.122,0,.184,0,.016,0,.032,0,.046,0,.132-.05.157-.177.088-.189-.112-.354-.208-.521-.3l-.33-.191c-.251-.145-.5-.292-.757-.441a.505.505,0,0,0-.052-.027c-.1-.044-.131,0-.132.132q0,.552,0,1.1c0,.367,0,.734,0,1.1,0,.273,0,.274-.23.143l-.075-.042c-.049-.028-.1-.057-.146-.085l-.189-.111c-.062-.036-.125-.072-.187-.106l-.023-.013a.444.444,0,0,1-.062-.043.318.318,0,0,1-.108-.278c0-.218,0-.437,0-.657,0-.366,0-.734,0-1.1q0-2.133.013-4.264c0-.269.008-.267.237-.135q.667.386,1.335.773T9038.786,1957.844Z" transform="translate(-9035.855 -1956.218)" fill="#fff"/>
        </g>
        <g id="Group_28934" data-name="Group 28934">
          <path id="Path_34819" data-name="Path 34819" d="M9031.654,1938.7c.033.019.07.043.109.066l-.041,14.793c-.166-.126-.32-.239-.473-.358-.914-.707-1.83-1.413-2.744-2.125-1.072-.834-2.141-1.676-3.211-2.512-.326-.256-.656-.5-.986-.749-.238-.181-.246-.2-.246-.473q.009-3.125.018-6.248c0-1.659.014-3.315.008-4.977,0-.216.059-.255.232-.187.762.3,1.523.578,2.283.862.826.31,1.656.615,2.486.926s1.672.633,2.508.951A.46.46,0,0,1,9031.654,1938.7Zm-1.955,3.5c0-.018,0-.036,0-.052a.34.34,0,0,0-.2-.329l-.018-.009q-.677-.385-1.344-.77l-1.336-.773c-.229-.132-.236-.134-.236.122-.006,1.434-.01,2.855-.014,4.277,0,.366,0,.734,0,1.1,0,.22,0,.439,0,.657a.32.32,0,0,0,.107.277.469.469,0,0,0,.064.043l.021.013c.064.034.125.069.188.106s.127.073.189.111l.148.085c.023.014.049.028.074.042.229.131.23.13.23-.143l.006-1.1q0-.551,0-1.1c0-.136.033-.176.131-.132l.047.024c.258.153.51.3.762.445l.33.19c.166.1.33.192.5.29.15.083.2.058.2-.074a.379.379,0,0,0,0-.046c0-.062,0-.123,0-.184,0-.091,0-.181,0-.272v-.031c0-.272,0-.273-.23-.406-.439-.255-.881-.509-1.32-.763-.408-.236-.408-.236-.406-.7l0-1.384.219.127.494.284.492.284.094.053.184.107.461.269c.117.065.166.055.166-.062v-.026c-.006-.1-.008-.209-.008-.311a2.272,2.272,0,0,1,.012-.233" transform="translate(-9024.063 -1935.901)" fill="#008272"/>
        </g>
        <g id="Group_28935" data-name="Group 28935" transform="translate(9.506 15.053)">
          <path id="Path_34820" data-name="Path 34820" d="M9071.646,2008.71l.04.025a.324.324,0,0,1,.153.315v.016c-.008.564,0,.568-.5.284l-.828-.479-.612-.355-.266-.153-.06-.034-.062-.035-.123-.069-.012-.005a.487.487,0,0,1-.047-.032.23.23,0,0,1-.094-.152.421.421,0,0,1-.008-.09c0-.079,0-.148,0-.208,0-.419.058-.387.523-.117l.673.389.268.156.135.078.1.058.3.173q.2.115.4.228Z" transform="translate(-9069.23 -2007.421)" fill="#008272"/>
        </g>
        <g id="Group_28936" data-name="Group 28936" transform="translate(8.479 5.364)">
          <path id="Path_34821" data-name="Path 34821" d="M9069.076,1965.071q-.009,4.783-.026,9.561c0,.59-.346.776-.915.453-.532-.3-1.062-.605-1.594-.912l-.53-.307-.751-.434-.749-.432c-.177-.1-.161-.214-.161-.345l.016-5.559.017-5.477c0-.281,0-.282.24-.144q1.786,1.031,3.57,2.065A1.742,1.742,0,0,1,9069.076,1965.071Zm-.818,3.543c.155.086.2.038.2-.142q0-.548,0-1.094,0-.91,0-1.819c0-.057-.009-.121-.015-.182-.016-.017-.032-.035-.05-.052a2.511,2.511,0,0,1-.254.23.455.455,0,0,0-.154.409v.019c0,.216,0,.431,0,.646s0,.429,0,.644c0,.143,0,.286,0,.431v.015a.3.3,0,0,1-.015.109c-.018.041-.053.045-.117.016-.015-.007-.032-.015-.05-.026-.2-.115-.385-.227-.575-.337l-.476-.276-.094-.055-.131-.075-.261-.149q-.325-.186-.65-.37l-.021-.012a.314.314,0,0,1-.177-.319v-.016c0-.416.007-.832.007-1.25s0-.836,0-1.256v-.015c0-.147.04-.187.163-.123l.026.015c.244.145.478.281.711.416l.118.067.35.2.468.269c.366.212.489.185.639-.151-.049-.034-.094-.07-.138-.1l-1.32-.761q-.659-.381-1.319-.765a.379.379,0,0,0-.077-.037c-.079-.024-.1.024-.105.121v.04q0,.89,0,1.78t-.008,1.776v.034a.348.348,0,0,0,.147.3.8.8,0,0,0,.069.045l.92.527.608.351.1.059.122.07c.161.094.321.187.484.281l.849.494.021.012m.186-3.626a.134.134,0,0,0,.048-.1c0-.083-.08-.172-.137-.267a.392.392,0,0,0-.1-.123.1.1,0,0,0-.038-.015.1.1,0,0,0-.087.04c-.194.2-.4.386-.6.579-.253.241-.5.484-.774.744-.259-.491-.5-.943-.731-1.393a.606.606,0,0,0-.144-.207.031.031,0,0,1-.01-.007.113.113,0,0,0-.03-.011.1.1,0,0,0-.075.014l-.009,0c-.06.038-.133.053-.134.137a.443.443,0,0,0,.071.2c.321.584.629,1.177.935,1.77a.422.422,0,0,0,.126.169.093.093,0,0,0,.021.009c.033.007.067-.01.106-.048q.773-.757,1.562-1.494m-3.479,2.667c0,.22,0,.44,0,.658s0,.437,0,.656c0,.266,0,.269.231.4l1.5.869,1.5.866c.059.033.116.059.2.1,0-.386,0-.761,0-1.133,0-.169,0-.337,0-.5a.2.2,0,0,0-.112-.192.279.279,0,0,0-.027-.016l-.015-.009-1.244-.718-.155-.09-.777-.449c-.311-.18-.623-.36-.933-.541-.131-.075-.176-.051-.174.1m3.433,4.786v-.015a.282.282,0,0,0-.135-.271l-.044-.028-.016-.009c-.1-.057-.206-.115-.308-.174l-.23-.133-.077-.044-.092-.054-.277-.161-.37-.214-.854-.493q-.425-.246-.854-.491l-.05-.031a.177.177,0,0,1-.018-.01l-.018-.009c-.042-.022-.08-.028-.092.024a.361.361,0,0,0,0,.041c0,.168,0,.336,0,.5,0,.371,0,.744,0,1.127l3.434,1.982c0-.294,0-.585,0-.874,0-.224,0-.447.007-.668" transform="translate(-9064.35 -1961.387)" fill="#008272"/>
        </g>
        <g id="Group_28941" data-name="Group 28941" transform="translate(9.065 6.693)" style="isolation: isolate">
          <g id="Group_28937" data-name="Group 28937" transform="translate(0.449 5.527)">
            <path id="Path_34822" data-name="Path 34822" d="M9071.739,1995.331a.227.227,0,0,1,.135.2v.07c0,.084,0,.156,0,.218,0,.37-.054.367-.425.153-.01-.005-.017-.01-.028-.016l-.072-.042-.789-.456-.3-.175-.226-.131-.076-.044-.126-.073q-.187-.108-.377-.213l-.013-.008c-.019-.011-.037-.023-.054-.034a.313.313,0,0,1-.064-.06.058.058,0,0,1-.013-.017.257.257,0,0,1-.041-.136v-.013a.3.3,0,0,1,0-.041c.006-.061.007-.125.007-.19,0-.083,0-.168,0-.252v-.012c0-.115.048-.126.147-.069.385.225.772.448,1.159.672S9071.353,1995.11,9071.739,1995.331Z" transform="translate(-9069.27 -1993.959)" fill="#008272"/>
          </g>
          <g id="Group_28938" data-name="Group 28938" transform="translate(0.028 4.799)">
            <path id="Path_34823" data-name="Path 34823" d="M9070.706,1992.558c0,.167,0,.335,0,.5,0,.371,0,.746,0,1.133-.083-.043-.141-.069-.2-.1l-1.5-.866-1.5-.869c-.231-.133-.231-.136-.23-.4,0-.218,0-.436,0-.655s0-.438,0-.658c0-.151.044-.174.175-.1q.464.272.933.541l.776.45.156.09,1.243.718.016.009.027.016A.2.2,0,0,1,9070.706,1992.558Zm-.837.685c.372.214.426.216.426-.153,0-.062,0-.134,0-.218v-.07a.228.228,0,0,0-.136-.2q-.579-.332-1.158-.667t-1.16-.671c-.1-.057-.148-.046-.147.069a.048.048,0,0,0,0,.012c0,.084,0,.169,0,.252,0,.065,0,.129-.007.19,0,.014,0,.028,0,.041s0,.009,0,.013a.248.248,0,0,0,.041.136.129.129,0,0,0,.012.017.323.323,0,0,0,.065.06.6.6,0,0,0,.053.034l.015.008.376.214.126.073.074.043.227.131.3.175.789.456.073.042.027.016" transform="translate(-9067.267 -1990.501)" fill="#fff"/>
          </g>
          <g id="Group_28939" data-name="Group 28939">
            <path id="Path_34824" data-name="Path 34824" d="M9067.326,1967.74c.442.26.883.514,1.322.768l1.319.762a1.623,1.623,0,0,1,.138.1c-.148.336-.271.363-.638.151l-.468-.269-.351-.2-.117-.067c-.232-.135-.468-.271-.7-.409l-.037-.021c-.123-.064-.162-.024-.163.123a.04.04,0,0,0,0,.015q0,.63,0,1.256t-.008,1.25v.016a.314.314,0,0,0,.177.319l.015.008.657.374.26.15.131.075.094.055.475.276.571.333c.023.014.041.023.055.029.063.029.1.025.118-.016a.308.308,0,0,0,.014-.109v-.015c0-.144,0-.287,0-.431,0-.215,0-.429,0-.644s0-.43,0-.646v-.019a.453.453,0,0,1,.154-.409,2.6,2.6,0,0,0,.255-.23l.049.052a1.3,1.3,0,0,1,.015.181q0,.911,0,1.819c0,.364,0,.728,0,1.093,0,.18-.043.229-.2.142l-.016-.008c-.289-.168-.57-.333-.854-.5l-.483-.281-.121-.07-.1-.058-.609-.351q-.457-.262-.915-.523a.8.8,0,0,1-.073-.048.343.343,0,0,1-.147-.3c0-.011,0-.023,0-.035q.007-.887.009-1.777t0-1.78v-.04c0-.1.026-.145.1-.121A.383.383,0,0,1,9067.326,1967.74Z" transform="translate(-9067.135 -1967.7)" fill="#fff"/>
          </g>
          <g id="Group_28940" data-name="Group 28940" transform="translate(0.687 1.507)">
            <path id="Path_34825" data-name="Path 34825" d="M9073.021,1975.131a.375.375,0,0,1,.108.127c.058.1.136.184.137.267a.13.13,0,0,1-.048.1q-.788.735-1.562,1.494c-.04.037-.072.055-.105.047a.083.083,0,0,1-.022-.009.414.414,0,0,1-.125-.169c-.307-.593-.613-1.186-.936-1.77a.443.443,0,0,1-.071-.2c0-.084.075-.1.134-.137l.009,0a.1.1,0,0,1,.076-.014.1.1,0,0,1,.028.011l.011.007a.608.608,0,0,1,.144.207c.234.451.473.9.732,1.393.269-.26.521-.5.773-.744.2-.192.4-.379.6-.579a.1.1,0,0,1,.086-.04A.083.083,0,0,1,9073.021,1975.131Z" transform="translate(-9070.397 -1974.861)" fill="#fff"/>
          </g>
        </g>
        <g id="Group_28942" data-name="Group 28942" transform="translate(9.086 14.266)">
          <path id="Path_34826" data-name="Path 34826" d="M9070.674,2005.82v.015q0,.332-.007.668c0,.288,0,.579,0,.874l-3.433-1.982c0-.382,0-.756,0-1.127,0-.168,0-.336,0-.5a.234.234,0,0,1,0-.041c.014-.052.051-.046.095-.024l.016.009.017.01.052.032.854.491.854.493.369.214.276.161.093.053.078.044c.075.045.152.089.229.133l.309.174.016.009.044.027A.286.286,0,0,1,9070.674,2005.82Zm-.412.3v-.016a.326.326,0,0,0-.153-.315.444.444,0,0,0-.041-.025l-.011-.006-.4-.228-.3-.173-.1-.058-.135-.078-.269-.156-.672-.389c-.467-.269-.522-.3-.524.117,0,.06,0,.129,0,.208a.42.42,0,0,0,.008.09.234.234,0,0,0,.092.152l.05.032.01.006.123.069.062.035.06.033c.079.045.157.089.234.135.216.124.43.25.645.375l.827.477c.5.285.488.281.5-.283" transform="translate(-9067.233 -2003.683)" fill="#fff"/>
        </g>
      </g>
    </g>
    <g id="Group_28948" data-name="Group 28948" transform="translate(8356.196 1700.619)">
      <g id="Group_28947" data-name="Group 28947" transform="translate(0 0)">
        <g id="Group_28945" data-name="Group 28945" transform="translate(0.044 5.371)">
          <path id="Path_34827" data-name="Path 34827" d="M9026.438,2218.135c.233.3.428.545.621.794.629.808,1.251,1.627,1.891,2.423.222.276.243.428.165.646-.76,2.1-1.508,4.218-2.259,6.33-.027.073-.047.153-.068.231l.051.064,8.36-5c.009.181.016.266.016.344,0,1.482-.014,2.96-.012,4.445,0,.206-.045.3-.215.307-2.777.116-5.552.243-8.327.366a2.047,2.047,0,0,1-.253-.019Z" transform="translate(-9026.408 -2218.135)" fill="#0b2859"/>
        </g>
        <g id="Group_28946" data-name="Group 28946">
          <path id="Path_34828" data-name="Path 34828" d="M9026.21,2192.614c2.873,3.457,5.682,6.834,8.52,10.245a1.186,1.186,0,0,1-.171.083c-.827.2-1.656.4-2.48.612a.3.3,0,0,1-.24-.03.819.819,0,0,1-.189-.168q-2.616-2.987-5.242-5.965a.869.869,0,0,1-.2-.391C9026.2,2195.564,9026.205,2194.135,9026.21,2192.614Z" transform="translate(-9026.201 -2192.614)" fill="#0b2859"/>
        </g>
      </g>
    </g>
    <g id="Group_28951" data-name="Group 28951" transform="translate(8409.09 1693.447)">
      <g id="Group_28950" data-name="Group 28950" transform="translate(0 0)">
        <g id="Group_28949" data-name="Group 28949">
          <path id="Path_34829" data-name="Path 34829" d="M9286.532,2161.507a.73.73,0,0,1,.185.158q1.632,2,3.259,4.012a.311.311,0,0,1,.095.29q-1.1,5.252-2.185,10.514c-.024.107-.066.119-.171.069-1.242-.6-2.484-1.19-3.727-1.788a.692.692,0,0,1-.205-.172q-3.026-3.894-6.052-7.791a.441.441,0,0,1-.069-.117l6.558,6.348c.648-3.124,1.293-6.231,1.943-9.358l-.837-.465q-1.866-1.03-3.736-2.065c-.131-.074-.172-.047-.2.075-.411,2-.83,3.992-1.238,5.99-.028.138-.084.168-.215.123-.755-.264-1.507-.514-2.26-.769l-.165-.062c.015-.07.025-.12.035-.17q.8-3.832,1.588-7.67c.027-.134.084-.142.2-.093q3.573,1.46,7.144,2.915A.48.48,0,0,1,9286.532,2161.507Z" transform="translate(-9277.514 -2158.541)" fill="#dc3918"/>
        </g>
      </g>
    </g>
    <g id="Group_28957" data-name="Group 28957" transform="translate(8312.46 1623.114)">
      <g id="Group_28956" data-name="Group 28956" transform="translate(0)">
        <g id="Group_28952" data-name="Group 28952" transform="translate(0.014)">
          <path id="Path_34830" data-name="Path 34830" d="M8823.028,1826.286c.024.015.024.03.024.087,0,.558,0,1.117,0,1.676l-.009,3.23c0,.089,0,.089-.077.045q-.939-.538-1.881-1.073-.855-.49-1.712-.978c-.3-.174-.606-.346-.912-.519l.013-4.389.661.28,1.211.509,1.082.454q.568.24,1.138.479c.141.061.284.121.427.18Z" transform="translate(-8818.459 -1824.367)" fill="#00adef"/>
        </g>
        <g id="Group_28953" data-name="Group 28953" transform="translate(0 4.907)">
          <path id="Path_34831" data-name="Path 34831" d="M8818.405,1847.683l1.9,1.111,1.473.86,1.134.664c.067.04.067.04.067.122l0,.767q0,2.071,0,4.144c0,.067,0,.084-.03.067a.484.484,0,0,1-.049-.034l-1.129-.832c-.428-.312-.851-.624-1.277-.938s-.836-.616-1.256-.925l-.8-.585a.5.5,0,0,1-.042-.033Z" transform="translate(-8818.394 -1847.683)" fill="#00adef"/>
        </g>
        <g id="Group_28954" data-name="Group 28954" transform="translate(5.127 7.951)">
          <path id="Path_34832" data-name="Path 34832" d="M8842.823,1862.169l1.471.851,1.5.869c.342.2.684.4,1.025.594l.513.3c.482.278.963.56,1.443.838a.1.1,0,0,1,.062.107q-.009,2.973-.019,5.948c0,.053,0,.066-.028.051l-.036-.025q-.716-.53-1.433-1.061l-1.232-.913-1.429-1.055q-.817-.607-1.638-1.213c-.077-.057-.156-.116-.232-.17a.09.09,0,0,1-.043-.08c0-.02,0-.04,0-.06q0-2.389.011-4.78c0-.053,0-.1,0-.158C8842.757,1862.134,8842.759,1862.133,8842.823,1862.169Z" transform="translate(-8842.752 -1862.146)" fill="#00adef"/>
        </g>
        <g id="Group_28955" data-name="Group 28955" transform="translate(5.143 2.167)">
          <path id="Path_34833" data-name="Path 34833" d="M8848.876,1837.117c.039.02.048.038.046.069v.043l-.017,5.928c0,.11,0,.1-.088.048-.424-.24-.846-.481-1.269-.72l-1.173-.668-.17-.1-.342-.2v.023l-1.25-.723-.625-.36c-.365-.211-.731-.416-1.1-.624-.061-.036-.061-.036-.061-.108q.006-2.508.013-5.016c0-.057.021-.061.063-.044.521.215,1.04.427,1.56.641l1.791.732q1.083.443,2.159.886C8848.569,1836.992,8848.724,1837.056,8848.876,1837.117Z" transform="translate(-8842.831 -1834.662)" fill="#00adef"/>
        </g>
      </g>
    </g>
  </g>
</svg>
