<svg width="160" height="57" viewBox="0 0 160 57" fill="none" xmlns="http://www.w3.org/2000/svg">
<path d="M1.73548 37.2886C1.77136 38.212 2.00066 39.0262 2.42328 39.7322C2.84554 40.4383 3.52451 40.9362 4.45983 41.2252C4.71131 41.3163 4.98551 41.3931 5.28235 41.4561C5.57909 41.5199 5.87989 41.5691 6.18611 41.6057C6.27564 41.6057 6.36536 41.6102 6.45544 41.6191C6.54543 41.6284 6.63514 41.6329 6.72549 41.6329C6.81503 41.6329 6.90953 41.6329 7.00862 41.6329C7.10718 41.6329 7.20149 41.6236 7.29193 41.6057C7.88506 41.5513 8.4515 41.4069 8.99089 41.1712C9.53037 40.9362 9.97066 40.5923 10.3126 40.1396C10.4743 39.9225 10.6092 39.6692 10.7172 39.3794C10.8252 39.09 10.8968 38.7916 10.9328 38.4836C10.9507 38.4112 10.96 38.3433 10.96 38.2799C10.96 38.2164 10.96 38.1486 10.96 38.0759C10.96 37.9856 10.9552 37.8996 10.9466 37.8185C10.9371 37.7369 10.9328 37.651 10.9328 37.5605C10.8968 37.3251 10.8385 37.0946 10.7577 36.8682C10.6768 36.6418 10.5731 36.4382 10.4475 36.2574C10.1055 35.8048 9.66526 35.4521 9.12569 35.1986C8.5863 34.9453 8.02888 34.7371 7.45342 34.5741C7.21962 34.5196 6.99041 34.4652 6.7658 34.4112C6.54083 34.3567 6.32091 34.3022 6.10504 34.2482C6.03282 34.2302 5.96077 34.2124 5.88909 34.1937C5.81714 34.1761 5.74509 34.1579 5.67332 34.1393C5.63716 34.1393 5.60145 34.1354 5.56566 34.126C5.5295 34.1172 5.49343 34.1034 5.45763 34.0851C5.34961 34.0676 5.24195 34.0404 5.13402 34.0036C5.026 33.9677 4.90887 33.9404 4.78326 33.9226C4.0639 33.7234 3.3714 33.4701 2.7065 33.1625C2.04106 32.8547 1.51042 32.3479 1.11521 31.6418C0.989242 31.4069 0.876621 31.1534 0.777977 30.8815C0.679062 30.6102 0.611436 30.3297 0.575639 30.0402C0.557515 29.9498 0.54426 29.8595 0.535153 29.7684C0.525956 29.6783 0.521898 29.5877 0.521898 29.497C0.521898 29.3886 0.525956 29.2756 0.535153 29.1578C0.54426 29.0403 0.557515 28.927 0.575639 28.8184C0.647413 28.2754 0.809175 27.7553 1.06129 27.2574C1.31286 26.7596 1.63647 26.3477 2.03222 26.0221C2.46377 25.6419 2.97602 25.3391 3.56959 25.1123C4.16281 24.8866 4.77407 24.7371 5.40389 24.6648C5.5295 24.6648 5.65528 24.6603 5.78152 24.651C5.90685 24.642 6.03282 24.6372 6.15896 24.6372C6.24877 24.6372 6.343 24.6372 6.44218 24.6372C6.54083 24.6372 6.63514 24.6468 6.72549 24.6648C7.24667 24.7009 7.75459 24.7826 8.24934 24.909C8.74347 25.0358 9.19755 25.2167 9.61134 25.4521C10.3843 25.8685 10.9686 26.4658 11.3646 27.2437C11.7598 28.0222 11.9848 28.8366 12.0388 29.6871C12.0565 29.7238 12.0658 29.7645 12.0658 29.8095C12.0658 29.8547 12.0658 29.9045 12.0658 29.9585H10.4475C10.3935 29.1985 10.2001 28.4973 9.86769 27.8546C9.53451 27.2124 9 26.746 8.2626 26.4564C8.06459 26.3844 7.85359 26.3207 7.62889 26.2663C7.40374 26.212 7.17462 26.167 6.94109 26.1306C6.77914 26.1128 6.62171 26.0947 6.46914 26.0763C6.31604 26.0585 6.1678 26.0492 6.02416 26.0492C5.95194 26.0492 5.88476 26.0492 5.82173 26.0492C5.75862 26.0492 5.69099 26.0585 5.61958 26.0763C5.16982 26.1128 4.72456 26.2079 4.28436 26.3614C3.84344 26.5153 3.46175 26.7371 3.13787 27.0266C2.86844 27.2802 2.64798 27.5832 2.4772 27.936C2.30615 28.2891 2.20282 28.6555 2.16711 29.0355C2.14899 29.0899 2.14006 29.1486 2.14006 29.2118C2.14006 29.2756 2.14006 29.3342 2.14006 29.3886C2.14006 29.4611 2.1443 29.5424 2.15359 29.6328C2.16242 29.7238 2.17595 29.8141 2.19398 29.9045C2.22987 30.0673 2.27486 30.2303 2.32897 30.3929C2.38289 30.5557 2.44564 30.7099 2.51769 30.8547C2.78747 31.2891 3.16925 31.6285 3.66391 31.8727C4.15849 32.117 4.68444 32.3117 5.24195 32.456C5.49343 32.5105 5.74509 32.5651 5.9972 32.6191C6.24877 32.6734 6.49151 32.728 6.72549 32.782C6.79691 32.8007 6.86453 32.814 6.92765 32.8226C6.99041 32.832 7.04911 32.8458 7.10294 32.8635C7.24667 32.8999 7.39481 32.9404 7.54801 32.9856C7.7004 33.0311 7.85801 33.0718 8.01986 33.108C8.7753 33.3251 9.51242 33.6193 10.2316 33.9901C10.9507 34.3616 11.5263 34.8998 11.9579 35.6054C12.1196 35.859 12.2412 36.135 12.3221 36.4335C12.403 36.7321 12.4611 37.0353 12.4973 37.343C12.5151 37.4341 12.5243 37.5242 12.5243 37.6145C12.5243 37.7055 12.5243 37.7958 12.5243 37.8861C12.5243 37.9946 12.5196 38.099 12.511 38.1982C12.5015 38.2981 12.4973 38.4019 12.4973 38.5104C12.4252 39.072 12.2724 39.6195 12.0388 40.1534C11.805 40.687 11.4994 41.135 11.1218 41.4971C10.672 41.9136 10.1325 42.2393 9.50331 42.4743C8.87385 42.7094 8.22644 42.8723 7.56145 42.963C7.39959 42.9808 7.22854 42.9946 7.04911 43.0039C6.86913 43.0125 6.68907 43.0174 6.50972 43.0174C6.45544 43.0174 6.39692 43.0174 6.33416 43.0174C6.27113 43.0174 6.2036 43.0174 6.13182 43.0174C5.64627 42.9987 5.16531 42.9402 4.68895 42.8409C4.21232 42.7413 3.76715 42.619 3.35391 42.4743C2.20282 42.0039 1.38499 41.3117 0.899344 40.3972C0.413876 39.4838 0.171143 38.447 0.171143 37.2886H1.73548Z" fill="#FEFEFE"/>
<path d="M15.464 29.9584H16.8126V32.049C17.28 31.2711 17.8377 30.678 18.4849 30.2709C19.1322 29.8634 19.9051 29.6599 20.8044 29.6599C21.6495 29.6599 22.3959 29.8681 23.0432 30.2843C23.6906 30.7008 24.1308 31.3161 24.3648 32.1307C24.8321 31.3161 25.4032 30.7008 26.0775 30.2843C26.7519 29.8681 27.5294 29.6599 28.4107 29.6599C28.4645 29.6599 28.5227 29.6645 28.5859 29.6736C28.6486 29.6827 28.7161 29.687 28.7882 29.687C28.824 29.687 28.8555 29.6918 28.8827 29.7006C28.9096 29.7099 28.9407 29.7143 28.977 29.7143C29.013 29.7143 29.0486 29.7143 29.0848 29.7143C29.1207 29.7143 29.1566 29.7143 29.1928 29.7143C30.3972 29.8409 31.238 30.2709 31.7146 31.0038C32.1909 31.7366 32.4294 32.6558 32.4294 33.7595V42.5555H30.946V33.8952C30.946 33.8773 30.9414 33.8639 30.9325 33.8546C30.9231 33.8453 30.9191 33.8319 30.9191 33.8137C30.9191 33.7961 30.9097 33.7774 30.8919 33.7595C30.8919 32.8364 30.6762 32.1352 30.2447 31.6553C29.813 31.1761 29.1389 30.9359 28.2217 30.9359H27.8712C26.8821 31.0084 26.1043 31.4111 25.5381 32.1442C24.9716 32.8771 24.6885 33.7234 24.6885 34.6825V42.5555H23.2318V34.0307C23.2318 33.1444 23.0204 32.4157 22.5983 31.8454C22.1754 31.2752 21.5146 30.9903 20.6157 30.9903H20.184C19.1769 31.0628 18.3857 31.4699 17.8107 32.212C17.2349 32.9542 16.9293 33.8047 16.8937 34.7636V42.5555H15.464V29.9584Z" fill="#FEFEFE"/>
<path d="M43.5418 39.3658C43.7752 38.6508 43.8922 37.8497 43.8922 36.9628V35.9584C43.4785 36.0848 43.0604 36.18 42.638 36.2437C42.2153 36.3071 41.7884 36.3654 41.3571 36.4197C41.303 36.438 41.2534 36.4471 41.2086 36.4471C41.1636 36.4471 41.1143 36.4563 41.0603 36.4742C40.6646 36.5284 40.2644 36.5875 39.8601 36.6506C39.4555 36.7143 39.0643 36.8091 38.6866 36.936C38.165 37.0807 37.6977 37.3883 37.2841 37.8587C36.8704 38.3296 36.6639 38.8273 36.6639 39.3519C36.6639 39.443 36.6724 39.5377 36.6909 39.637C36.7084 39.7369 36.7355 39.8406 36.7717 39.9491C36.8255 40.0759 36.8974 40.2069 36.9874 40.3427C37.0771 40.4787 37.1763 40.6006 37.2841 40.7096C37.5358 40.9631 37.8371 41.162 38.1879 41.3067C38.5384 41.4518 38.9027 41.5331 39.2802 41.5511C39.3162 41.5511 39.3518 41.5511 39.388 41.5511C39.4237 41.5511 39.4596 41.5511 39.4959 41.5511C39.5856 41.5511 39.6801 41.5468 39.7793 41.5375C39.8776 41.5283 39.9721 41.5238 40.0624 41.5238C40.3678 41.4876 40.6598 41.429 40.9391 41.3473C41.2177 41.2661 41.4649 41.1893 41.6806 41.1166C42.6873 40.6644 43.3076 40.0807 43.5418 39.3658ZM42.3412 41.8904C41.6847 42.2432 41.0062 42.4923 40.3052 42.6368C40.0713 42.6912 39.8465 42.7319 39.6308 42.759C39.4151 42.7863 39.1991 42.7998 38.9835 42.7998C38.318 42.7998 37.684 42.655 37.0819 42.3656C36.4794 42.0761 35.9895 41.5965 35.612 40.9267C35.5216 40.7457 35.4456 40.5649 35.3826 40.3837C35.3196 40.2031 35.27 40.0218 35.2341 39.8406C35.2162 39.7503 35.2026 39.6597 35.1939 39.569C35.1848 39.4787 35.1806 39.3885 35.1806 39.2976C35.1806 38.6284 35.3645 37.9991 35.7334 37.4107C36.1015 36.8229 36.6006 36.3839 37.2301 36.0941C37.7518 35.841 38.3046 35.6597 38.889 35.5508C39.473 35.4426 40.0624 35.3519 40.6556 35.2796C40.7276 35.2616 40.7995 35.2524 40.8717 35.2524C40.9432 35.2524 41.0151 35.2438 41.087 35.2252C41.4108 35.1893 41.7254 35.1532 42.0311 35.1167C42.3368 35.0807 42.6425 35.0354 42.9482 34.9808C43.3076 34.9088 43.5592 34.7324 43.7033 34.4517C43.8474 34.1711 43.9193 33.8679 43.9193 33.542C43.9193 33.4517 43.9149 33.3655 43.9059 33.2842C43.8964 33.2025 43.883 33.1171 43.8653 33.0262C43.8114 32.7188 43.717 32.4248 43.5821 32.1441C43.4473 31.8636 43.2809 31.6509 43.0831 31.5059C42.8311 31.3251 42.5436 31.1847 42.2201 31.085C41.8965 30.9858 41.5727 30.918 41.2489 30.8813C41.177 30.8636 41.1007 30.8545 41.0199 30.8545C40.9391 30.8545 40.8536 30.8545 40.7635 30.8545C39.9183 30.8545 39.1453 31.0987 38.444 31.5875C37.7426 32.0762 37.3557 32.7818 37.2841 33.705H35.8277C35.8817 32.4559 36.3849 31.4834 37.3382 30.7867C38.291 30.09 39.3429 29.7051 40.4938 29.6326C40.5478 29.6326 40.606 29.6326 40.669 29.6326C40.732 29.6326 40.7995 29.6326 40.8717 29.6326C42.0044 29.6326 43.0382 29.9496 43.9734 30.5828C44.908 31.2165 45.3759 32.1757 45.3759 33.4606V40.1665C45.3759 40.6735 45.4433 41.0214 45.5782 41.2116C45.713 41.4019 45.9599 41.4969 46.3199 41.4969C46.3556 41.4969 46.3915 41.4924 46.4275 41.4832C46.4634 41.4742 46.5086 41.4697 46.5627 41.4697C46.5983 41.4697 46.6253 41.4697 46.6435 41.4697C46.661 41.4518 46.688 41.4425 46.7246 41.4425C46.7602 41.4425 46.7873 41.4425 46.8054 41.4425V42.5554C46.7513 42.5554 46.6928 42.5554 46.6301 42.5554C46.5668 42.5554 46.5086 42.5554 46.4546 42.5554C46.3286 42.5734 46.2074 42.5827 46.0906 42.5827C45.9732 42.5827 45.8612 42.5827 45.7534 42.5827C45.2318 42.5827 44.796 42.47 44.4454 42.2432C44.0946 42.0172 43.9193 41.5511 43.9193 40.8453L43.9734 40.7096C43.5417 41.1437 42.9975 41.5375 42.3412 41.8904Z" fill="#FEFEFE"/>
<path d="M49.3135 29.9584H50.716V32.1848C51.1295 31.2798 51.6601 30.633 52.3074 30.2436C52.9544 29.8546 53.7637 29.6599 54.7348 29.6599V31.1533C53.3142 31.1533 52.3074 31.5604 51.7139 32.3751C51.1206 33.1893 50.8238 34.2663 50.8238 35.6053V42.5555H49.3135V29.9584Z" fill="#FEFEFE"/>
<path d="M59.1579 29.9585H61.4775V31.1534H59.1579V40.3022C59.1579 40.8276 59.2298 41.1942 59.3739 41.402C59.5177 41.6102 59.7334 41.7143 60.0212 41.7143C60.1647 41.7143 60.3447 41.6869 60.5608 41.6329C60.7764 41.5784 61.001 41.524 61.2348 41.4698C61.2525 41.4698 61.2707 41.4698 61.2889 41.4698C61.3248 41.452 61.3562 41.4382 61.3833 41.4292C61.4103 41.4203 61.4415 41.4155 61.4775 41.4155V42.5556C61.3158 42.5736 61.154 42.6007 60.9924 42.637C60.8305 42.6734 60.6593 42.7094 60.4796 42.7459C60.3536 42.7637 60.2277 42.7773 60.102 42.7865C59.976 42.7951 59.8501 42.8 59.7244 42.8C59.5625 42.8 59.4051 42.7865 59.2524 42.7592C59.0994 42.7321 58.9512 42.7007 58.8073 42.6642C58.3038 42.5195 57.9937 42.2528 57.877 41.8635C57.7596 41.4744 57.7013 41.0536 57.7013 40.6008C57.7013 40.5468 57.7013 40.4972 57.7013 40.4518C57.7013 40.4069 57.7013 40.3566 57.7013 40.3022V31.1534H56.0024V29.9585H57.7013V26.375H59.1579V29.9585Z" fill="#FEFEFE"/>
<path d="M2.63995 45.3988H1.49166V49.0878C1.49166 49.1168 1.48372 49.141 1.46758 49.1606C1.45144 49.1808 1.42908 49.1905 1.4005 49.1905H1.34694C1.31808 49.1905 1.29572 49.1808 1.27985 49.1606C1.26371 49.141 1.2556 49.1168 1.2556 49.0878V45.3988H0.101981C0.0339034 45.3988 0 45.3719 0 45.3177V45.2694C0 45.2083 0.0339034 45.1775 0.101981 45.1775H2.63995C2.70794 45.1775 2.74193 45.2083 2.74193 45.2694V45.3177C2.74193 45.3719 2.70794 45.3988 2.63995 45.3988Z" fill="#FEFEFE"/>
<path d="M4.82383 48.3479C4.82383 48.2112 4.79714 48.1045 4.74367 48.0289C4.69011 47.9538 4.62131 47.8987 4.53782 47.8645C4.45396 47.8302 4.36118 47.8107 4.25974 47.8052C4.15785 47.7994 4.05902 47.7971 3.96272 47.7971H3.198V49.0069C3.32289 49.0139 3.42983 49.0183 3.519 49.0202C3.608 49.0222 3.69177 49.0231 3.77012 49.0231C4.1445 49.0231 4.41384 48.9735 4.57767 48.8745C4.74169 48.7753 4.82383 48.6124 4.82383 48.3853V48.3479ZM4.79714 46.9897C4.79714 46.8785 4.77208 46.789 4.72212 46.7207C4.67226 46.6529 4.60184 46.6 4.51086 46.5622C4.42006 46.5248 4.31132 46.5004 4.18472 46.4899C4.05821 46.479 3.91989 46.4739 3.77012 46.4739C3.73099 46.4739 3.68555 46.4746 3.63397 46.4764C3.5823 46.478 3.52964 46.4799 3.47599 46.4819C3.42279 46.4838 3.37086 46.4855 3.32108 46.4873C3.27104 46.4892 3.23001 46.4902 3.198 46.4902V47.5753H3.96272C4.05893 47.5753 4.15614 47.5718 4.25424 47.5647C4.35225 47.5576 4.44152 47.5369 4.52168 47.5029C4.60184 47.4686 4.66775 47.4142 4.71951 47.3391C4.77099 47.2637 4.79714 47.1578 4.79714 47.0219V46.9897ZM5.02256 47.0229C5.02256 47.1523 4.98947 47.2798 4.92338 47.4059C4.85738 47.5314 4.74944 47.6233 4.59967 47.6806C4.69228 47.7167 4.7691 47.7606 4.82996 47.8132C4.89047 47.8654 4.93754 47.9224 4.97162 47.9839C5.00534 48.0449 5.02879 48.1071 5.04114 48.1705C5.05376 48.2335 5.05989 48.2919 5.05989 48.346V48.3842C5.05989 48.5428 5.02879 48.6754 4.96648 48.7822C4.9039 48.8883 4.81554 48.9748 4.70129 49.0414C4.58714 49.1083 4.45063 49.1561 4.29193 49.1852C4.13314 49.2136 3.95731 49.2281 3.76471 49.2281C3.71485 49.2281 3.65687 49.2272 3.59078 49.2252C3.52468 49.2236 3.45805 49.222 3.39006 49.2201C3.32235 49.2181 3.25715 49.2153 3.19476 49.2117C3.13227 49.2085 3.0779 49.2031 3.03146 49.1957C2.98503 49.1922 2.96185 49.1758 2.96185 49.1471V46.3439C2.96185 46.3189 2.9816 46.3029 3.02073 46.2952C3.10648 46.2847 3.21856 46.2767 3.35778 46.2712C3.49718 46.2655 3.63271 46.2632 3.76471 46.2632C3.92161 46.2632 4.07598 46.2702 4.22782 46.2847C4.37939 46.299 4.51383 46.332 4.63177 46.3843C4.74944 46.4364 4.84412 46.5101 4.91526 46.6054C4.98677 46.7006 5.02256 46.829 5.02256 46.9905V47.0229Z" fill="#FEFEFE"/>
<path d="M7.63015 47.5538C7.63015 47.2227 7.56406 46.9596 7.43178 46.7652C7.29941 46.5706 7.0757 46.4739 6.76102 46.4739C6.44615 46.4739 6.22244 46.5706 6.09043 46.7652C5.95798 46.9596 5.8917 47.2227 5.8917 47.5538V47.932C5.8917 48.2633 5.95798 48.5259 6.09043 48.7203C6.22244 48.9149 6.44615 49.012 6.76102 49.012C7.0757 49.012 7.29941 48.9149 7.43178 48.7203C7.56406 48.5259 7.63015 48.2633 7.63015 47.932V47.5538ZM7.86648 47.932C7.86648 48.3425 7.77415 48.66 7.58994 48.8852C7.40563 49.1103 7.12944 49.223 6.76102 49.223C6.3925 49.223 6.11613 49.1103 5.93192 48.8852C5.7477 48.66 5.65564 48.3425 5.65564 47.932V47.5538C5.65564 47.1436 5.7477 46.8254 5.93192 46.6006C6.11613 46.3755 6.3925 46.2632 6.76102 46.2632C7.12944 46.2632 7.40563 46.3755 7.58994 46.6006C7.77415 46.8254 7.86648 47.1436 7.86648 47.5538V47.932Z" fill="#FEFEFE"/>
<path d="M10.3723 47.5433C10.3723 47.2029 10.3095 46.9394 10.1846 46.753C10.0591 46.567 9.84445 46.4739 9.54049 46.4739C9.39018 46.4739 9.26214 46.4998 9.15682 46.5517C9.05132 46.6035 8.96368 46.6771 8.89389 46.772C8.82419 46.8667 8.77324 46.9797 8.74087 47.1104C8.70868 47.2413 8.69263 47.3873 8.69263 47.5486V47.5753H10.3723V47.5433ZM10.6084 47.6944C10.6084 47.7232 10.5984 47.7472 10.5787 47.767C10.559 47.787 10.5348 47.7971 10.5065 47.7971H8.69263V47.9102C8.69263 48.1372 8.71761 48.3226 8.76774 48.4667C8.81797 48.6108 8.88767 48.7232 8.97703 48.8041C9.06638 48.8852 9.16936 48.9402 9.28567 48.969C9.40181 48.9979 9.52795 49.012 9.66375 49.012C9.78178 49.012 9.91081 49.004 10.0502 48.9876C10.1897 48.9716 10.3257 48.9492 10.4581 48.92C10.4581 48.92 10.4706 48.9195 10.4742 48.9178C10.4776 48.9159 10.483 48.9149 10.4903 48.9149C10.5117 48.9149 10.5305 48.92 10.5465 48.9314C10.5626 48.9418 10.5708 48.9617 10.5708 48.9904V49.0282C10.5708 49.0572 10.5635 49.0796 10.5494 49.0957C10.5348 49.1122 10.5081 49.1237 10.4687 49.131C10.3401 49.1596 10.204 49.1823 10.061 49.1986C9.91775 49.2146 9.78539 49.223 9.66375 49.223C9.49576 49.223 9.33932 49.2018 9.19433 49.1605C9.04952 49.1191 8.92157 49.0491 8.81057 48.9498C8.69976 48.8513 8.61292 48.7171 8.55044 48.5474C8.48795 48.3783 8.45648 48.166 8.45648 47.9102V47.5538C8.45648 47.3667 8.47984 47.1946 8.52645 47.038C8.57271 46.8814 8.6416 46.7453 8.73285 46.6304C8.82419 46.5152 8.93672 46.4248 9.07098 46.3602C9.20515 46.2952 9.36159 46.2632 9.54049 46.2632C9.72642 46.2632 9.88655 46.2936 10.0207 46.3551C10.1549 46.4158 10.2657 46.5037 10.3534 46.6166C10.441 46.7303 10.5054 46.8661 10.5465 47.0246C10.5876 47.183 10.6084 47.3575 10.6084 47.5483V47.6944Z" fill="#FEFEFE"/>
<path d="M14.2409 46.8301C14.2409 46.7223 14.2174 46.6423 14.1712 46.59C14.1245 46.5378 14.0387 46.5119 13.9135 46.5119H12.9905C12.8651 46.5119 12.7804 46.5378 12.7356 46.59C12.6908 46.6423 12.6686 46.7223 12.6686 46.8301V49.088C12.6686 49.1169 12.6606 49.1412 12.6445 49.1608C12.6283 49.1809 12.606 49.1906 12.5774 49.1906H12.5237C12.4952 49.1906 12.4727 49.1809 12.4567 49.1608C12.4406 49.1412 12.4325 49.1169 12.4325 49.088V46.8301C12.4325 46.7117 12.4486 46.6168 12.4808 46.5468C12.5129 46.4766 12.556 46.4224 12.6096 46.3848C12.6631 46.3469 12.7231 46.3217 12.7892 46.3092C12.8555 46.2966 12.9226 46.2903 12.9905 46.2903H13.908C13.9759 46.2903 14.044 46.2966 14.112 46.3092C14.1798 46.3217 14.2409 46.3469 14.2945 46.3848C14.348 46.4224 14.3919 46.4766 14.4259 46.5468C14.4598 46.6168 14.477 46.7117 14.477 46.8301V49.088C14.477 49.1169 14.469 49.1412 14.4527 49.1608C14.4368 49.1809 14.4142 49.1906 14.3856 49.1906H14.332C14.3033 49.1906 14.2811 49.1809 14.2649 49.1608C14.2489 49.1412 14.2409 49.1169 14.2409 49.088V46.8301Z" fill="#FEFEFE"/>
<path d="M17.0633 47.5433C17.0633 47.2029 17.0006 46.9394 16.8754 46.753C16.7502 46.567 16.5355 46.4739 16.2315 46.4739C16.0813 46.4739 15.9533 46.4998 15.8478 46.5517C15.7422 46.6035 15.6546 46.6771 15.5849 46.772C15.5152 46.8667 15.4643 46.9797 15.4321 47.1104C15.3999 47.2413 15.3837 47.3873 15.3837 47.5486V47.5753H17.0633V47.5433ZM17.2993 47.6944C17.2993 47.7232 17.2893 47.7472 17.2698 47.767C17.2503 47.787 17.226 47.7971 17.1974 47.7971H15.3837V47.9102C15.3837 48.1372 15.4085 48.3226 15.4588 48.4667C15.509 48.6108 15.5787 48.7232 15.668 48.8041C15.7575 48.8852 15.8603 48.9402 15.9765 48.969C16.093 48.9979 16.2191 49.012 16.3548 49.012C16.473 49.012 16.6018 49.004 16.7412 48.9876C16.8808 48.9716 17.0166 48.9492 17.1491 48.92C17.1563 48.92 17.1616 48.9195 17.165 48.9178C17.1686 48.9159 17.1741 48.9149 17.1813 48.9149C17.2027 48.9149 17.2215 48.92 17.2376 48.9314C17.2537 48.9418 17.2619 48.9617 17.2619 48.9904V49.0282C17.2619 49.0572 17.2546 49.0796 17.2402 49.0957C17.226 49.1122 17.1991 49.1237 17.1598 49.131C17.0311 49.1596 16.895 49.1823 16.7519 49.1986C16.6089 49.2146 16.4766 49.223 16.3548 49.223C16.1868 49.223 16.0303 49.2018 15.8854 49.1605C15.7406 49.1191 15.6125 49.0491 15.5018 48.9498C15.3907 48.8513 15.304 48.7171 15.2414 48.5474C15.1788 48.3783 15.1476 48.166 15.1476 47.9102V47.5538C15.1476 47.3667 15.1708 47.1946 15.2174 47.038C15.2638 46.8814 15.3327 46.7453 15.4239 46.6304C15.5152 46.5152 15.6279 46.4248 15.762 46.3602C15.8962 46.2952 16.0526 46.2632 16.2315 46.2632C16.4174 46.2632 16.5776 46.2936 16.7117 46.3551C16.846 46.4158 16.9568 46.5037 17.0444 46.6166C17.1323 46.7303 17.1965 46.8661 17.2376 47.0246C17.2786 47.183 17.2993 47.3575 17.2993 47.5483V47.6944Z" fill="#FEFEFE"/>
<path d="M19.7675 47.5753C19.7675 47.226 19.7066 46.9554 19.585 46.7627C19.4634 46.5702 19.2524 46.4739 18.952 46.4739C18.8231 46.4739 18.6908 46.4809 18.5549 46.4953C18.4188 46.5097 18.3026 46.5261 18.2061 46.5437V48.9418C18.2562 48.9527 18.3134 48.9626 18.3777 48.9716C18.4422 48.9806 18.5083 48.9876 18.5764 48.9934C18.6442 48.9984 18.7104 49.0033 18.7748 49.0069C18.8392 49.0103 18.8983 49.012 18.952 49.012C19.2487 49.012 19.4588 48.9219 19.5824 48.7423C19.7058 48.5621 19.7675 48.2919 19.7675 47.932V47.5753ZM20.0036 47.932C20.0036 48.7926 19.6531 49.223 18.952 49.223C18.8983 49.223 18.84 49.221 18.7775 49.2173C18.7149 49.2136 18.6496 49.2085 18.5816 49.2012C18.5136 49.1938 18.4474 49.1852 18.3831 49.174C18.3187 49.1634 18.2596 49.1525 18.2061 49.1419V50.1408C18.2061 50.1698 18.198 50.194 18.1819 50.2139C18.1658 50.2338 18.1435 50.2433 18.1149 50.2433H18.0612C18.0324 50.2433 18.0103 50.2338 17.9941 50.2139C17.9781 50.194 17.97 50.1698 17.97 50.1408V46.468C17.97 46.4357 17.9755 46.4124 17.986 46.398C17.9967 46.3836 18.0181 46.3727 18.0504 46.3656C18.1685 46.3407 18.3097 46.3169 18.4744 46.2952C18.639 46.2738 18.798 46.2632 18.952 46.2632C19.1379 46.2632 19.2971 46.2946 19.4295 46.3573C19.5618 46.4207 19.6709 46.5107 19.7568 46.6275C19.8427 46.7444 19.9052 46.8834 19.9446 47.0434C19.9841 47.2038 20.0036 47.3809 20.0036 47.5753V47.932Z" fill="#FEFEFE"/>
<path d="M22.3861 49.1419C22.3718 49.1564 22.345 49.167 22.3056 49.174C22.191 49.1888 22.0758 49.2002 21.9595 49.2092C21.8432 49.2181 21.7423 49.223 21.6564 49.223C21.4631 49.223 21.2995 49.1875 21.1653 49.1175C21.0312 49.0472 20.9219 48.9527 20.838 48.8339C20.7539 48.7152 20.6922 48.5765 20.6529 48.418C20.6136 48.2598 20.5938 48.0921 20.5938 47.916V47.5538C20.5938 47.3739 20.6136 47.2055 20.6529 47.0489C20.6922 46.892 20.7539 46.7556 20.838 46.6384C20.9219 46.5212 21.0312 46.4296 21.1653 46.3631C21.2995 46.2964 21.4631 46.2632 21.6564 46.2632C21.7423 46.2632 21.8432 46.2673 21.9595 46.2767C22.0758 46.2855 22.191 46.297 22.3056 46.3116C22.345 46.3189 22.3718 46.3298 22.3861 46.3439C22.4002 46.3582 22.4075 46.38 22.4075 46.4089V46.4466C22.4075 46.4972 22.3787 46.5222 22.3217 46.5222H22.2948C22.0407 46.4902 21.828 46.4739 21.6564 46.4739C21.5025 46.4739 21.3728 46.4988 21.2673 46.5491C21.1617 46.5997 21.0769 46.6727 21.0124 46.7681C20.9479 46.8635 20.9014 46.9778 20.8729 47.111C20.8442 47.2442 20.8299 47.3918 20.8299 47.5538V47.916C20.8299 48.0779 20.8442 48.2262 20.8729 48.3614C20.9014 48.4964 20.9479 48.6124 21.0124 48.7097C21.0769 48.807 21.1617 48.8816 21.2673 48.9335C21.3728 48.986 21.5025 49.012 21.6564 49.012C21.828 49.012 22.0407 48.996 22.2948 48.9636H22.3217C22.3787 48.9636 22.4075 48.9886 22.4075 49.0389V49.0769C22.4075 49.1058 22.4002 49.1276 22.3861 49.1419Z" fill="#FEFEFE"/>
<path d="M24.9134 47.5538C24.9134 47.2227 24.8473 46.9596 24.7149 46.7652C24.5824 46.5706 24.3589 46.4739 24.0441 46.4739C23.7292 46.4739 23.5057 46.5706 23.3734 46.7652C23.241 46.9596 23.175 47.2227 23.175 47.5538V47.932C23.175 48.2633 23.241 48.5259 23.3734 48.7203C23.5057 48.9149 23.7292 49.012 24.0441 49.012C24.3589 49.012 24.5824 48.9149 24.7149 48.7203C24.8473 48.5259 24.9134 48.2633 24.9134 47.932V47.5538ZM25.1495 47.932C25.1495 48.3425 25.0572 48.66 24.8731 48.8852C24.6888 49.1103 24.4125 49.223 24.0441 49.223C23.6757 49.223 23.3992 49.1103 23.215 48.8852C23.031 48.66 22.9389 48.3425 22.9389 47.932V47.5538C22.9389 47.1436 23.031 46.8254 23.215 46.6006C23.3992 46.3755 23.6757 46.2632 24.0441 46.2632C24.4125 46.2632 24.6888 46.3755 24.8731 46.6006C25.0572 46.8254 25.1495 47.1436 25.1495 47.5538V47.932Z" fill="#FEFEFE"/>
<path d="M26.0562 47.7539V49.088C26.0562 49.1169 26.0464 49.1412 26.0267 49.1608C26.0069 49.1809 25.9827 49.1906 25.9543 49.1906H25.9222C25.8934 49.1906 25.8692 49.1809 25.8497 49.1608C25.8299 49.1412 25.8202 49.1169 25.8202 49.088V46.3928C25.8202 46.364 25.8299 46.3399 25.8497 46.3198C25.8692 46.3002 25.8934 46.2903 25.9222 46.2903H25.9543C25.9827 46.2903 26.0069 46.3002 26.0267 46.3198C26.0464 46.3399 26.0562 46.364 26.0562 46.3928V47.5322H27.6285V46.3928C27.6285 46.364 27.6383 46.3399 27.658 46.3198C27.6776 46.3002 27.7016 46.2903 27.7304 46.2903H27.7625C27.7911 46.2903 27.8153 46.3002 27.8349 46.3198C27.8547 46.3399 27.8646 46.364 27.8646 46.3928V49.088C27.8646 49.1169 27.8547 49.1412 27.8349 49.1608C27.8153 49.1809 27.7911 49.1906 27.7625 49.1906H27.7304C27.7016 49.1906 27.6776 49.1809 27.658 49.1608C27.6383 49.1412 27.6285 49.1169 27.6285 49.088V47.7539H26.0562Z" fill="#FEFEFE"/>
<path d="M30.247 47.6621H29.8338C29.6298 47.6621 29.4592 47.6726 29.3214 47.6944C29.1836 47.7159 29.0718 47.751 28.9859 47.7994C28.9001 47.8484 28.8383 47.9121 28.8008 47.9912C28.7633 48.0706 28.7445 48.1679 28.7445 48.283V48.3534C28.7445 48.4792 28.7597 48.5848 28.79 48.6691C28.8205 48.7538 28.8625 48.8214 28.9162 48.8716C28.9698 48.9219 29.0316 48.9582 29.1015 48.9799C29.1712 49.0013 29.2471 49.012 29.3293 49.012C29.4797 49.012 29.6253 48.9904 29.7667 48.9473C29.908 48.9044 30.0682 48.8339 30.247 48.7366V47.6621ZM30.483 49.0824C30.483 49.1112 30.4724 49.1366 30.4508 49.1584C30.4294 49.1797 30.4042 49.1904 30.3758 49.1904H30.3489C30.3203 49.1904 30.2952 49.1797 30.2738 49.1584C30.2525 49.1366 30.2416 49.1112 30.2416 49.0824V48.9473C30.1092 49.0194 29.9662 49.0834 29.8124 49.139C29.6586 49.1951 29.4974 49.223 29.3293 49.223C29.2293 49.223 29.1299 49.2092 29.0316 49.1823C28.9332 49.1554 28.8456 49.1083 28.7686 49.0417C28.6916 48.9751 28.6292 48.8862 28.5808 48.7743C28.5325 48.6629 28.5084 48.5223 28.5084 48.3534V48.283C28.5084 48.1427 28.5317 48.0209 28.5782 47.9182C28.6246 47.8158 28.6998 47.7296 28.8036 47.6592C28.9072 47.5887 29.0439 47.5369 29.214 47.5026C29.3838 47.4683 29.5905 47.4511 29.8338 47.4511H30.247V47.2567C30.247 47.1164 30.2362 46.9967 30.2148 46.8978C30.1932 46.7985 30.1565 46.7175 30.1047 46.6544C30.0527 46.5917 29.983 46.5455 29.8954 46.517C29.8078 46.4883 29.6996 46.4739 29.571 46.4739C29.4813 46.4739 29.4035 46.4746 29.3374 46.4764C29.2712 46.478 29.2096 46.4819 29.1524 46.4873C29.0952 46.4924 29.0397 46.4979 28.9859 46.5037C28.9323 46.5088 28.8733 46.5152 28.809 46.5222H28.7876C28.7623 46.5222 28.7393 46.516 28.7178 46.5037C28.6962 46.4905 28.6856 46.47 28.6856 46.4412V46.4089C28.6856 46.3551 28.7265 46.3224 28.809 46.3116C28.8659 46.3045 28.9207 46.298 28.9725 46.2927C29.0244 46.2871 29.0798 46.2818 29.1389 46.2767C29.1979 46.2712 29.2623 46.2673 29.332 46.2655C29.4018 46.2638 29.4813 46.2632 29.571 46.2632C29.7533 46.2632 29.9025 46.2871 30.0189 46.3358C30.1352 46.3845 30.2283 46.4528 30.298 46.5411C30.3677 46.6295 30.416 46.7348 30.4428 46.8571C30.4696 46.9797 30.483 47.1129 30.483 47.2567V49.0824Z" fill="#FEFEFE"/>
<path d="M32.3235 46.5438C32.3162 46.5153 32.3038 46.4903 32.2859 46.4681C32.2678 46.4467 32.2392 46.4358 32.2001 46.4358C32.1606 46.4358 32.132 46.4457 32.1142 46.4656C32.0964 46.4855 32.0837 46.5098 32.0766 46.5386L31.3038 49.1202C31.2968 49.1385 31.2852 49.1545 31.2691 49.1689C31.253 49.1833 31.2357 49.1905 31.2181 49.1905H31.1484C31.0946 49.1905 31.0677 49.1615 31.0677 49.1043C31.0677 49.0825 31.0696 49.0661 31.0732 49.0552L31.8511 46.4845C31.8763 46.4016 31.9182 46.3369 31.9774 46.2901C32.0366 46.2434 32.1107 46.22 32.2001 46.22C32.2859 46.22 32.3582 46.2425 32.4173 46.2872C32.4765 46.3324 32.5185 46.3964 32.5433 46.4791L33.3213 49.0552C33.3286 49.077 33.3322 49.095 33.3322 49.1093C33.3322 49.1635 33.3036 49.1905 33.2463 49.1905H33.182C33.1391 49.1905 33.1104 49.1671 33.0962 49.1202L32.3235 46.5438Z" fill="#FEFEFE"/>
<path d="M34.1531 49.0071C34.2778 49.0141 34.3851 49.0185 34.4741 49.0205C34.5632 49.0224 34.6469 49.0234 34.7254 49.0234C35.0998 49.0234 35.369 48.9728 35.5327 48.8719C35.6969 48.7715 35.779 48.5966 35.779 48.3481V48.2508C35.779 48.0023 35.6969 47.8275 35.5327 47.727C35.369 47.626 35.0998 47.5755 34.7254 47.5755C34.6469 47.5755 34.5632 47.5765 34.4741 47.5784C34.3851 47.5803 34.2778 47.5845 34.1531 47.5919V49.0071ZM33.9172 46.3928C33.9172 46.364 33.9245 46.3399 33.9391 46.3198C33.9538 46.3002 33.9776 46.2903 34.0103 46.2903H34.06C34.0963 46.2903 34.121 46.3002 34.1338 46.3198C34.1468 46.3399 34.1531 46.364 34.1531 46.3928V47.3867C34.2457 47.3795 34.3444 47.3751 34.4494 47.3731C34.5543 47.3712 34.6456 47.3707 34.7238 47.3707C34.916 47.3707 35.0913 47.3847 35.2497 47.4135C35.4078 47.4423 35.5439 47.491 35.6578 47.5595C35.7713 47.6281 35.8594 47.7186 35.9218 47.8323C35.9838 47.9456 36.0153 48.0852 36.0153 48.2508V48.3481C36.0153 48.5136 35.9838 48.6529 35.9214 48.7666C35.8591 48.8799 35.7707 48.9712 35.6565 49.0391C35.5423 49.1077 35.4059 49.1566 35.2471 49.1855C35.0884 49.2139 34.9125 49.2283 34.72 49.2283C34.6701 49.2283 34.6118 49.2274 34.546 49.2255C34.4798 49.2238 34.4131 49.2222 34.3453 49.2203C34.2776 49.2183 34.2124 49.2155 34.15 49.212C34.0873 49.2087 34.0332 49.2033 33.9868 49.196C33.9403 49.1924 33.9172 49.176 33.9172 49.1473V46.3928Z" fill="#FEFEFE"/>
<path d="M36.9273 47.7539V49.088C36.9273 49.1169 36.9174 49.1412 36.8977 49.1608C36.8779 49.1809 36.8538 49.1906 36.8252 49.1906H36.793C36.7644 49.1906 36.7402 49.1809 36.7205 49.1608C36.7008 49.1412 36.6913 49.1169 36.6913 49.088V46.3928C36.6913 46.364 36.7008 46.3399 36.7205 46.3198C36.7402 46.3002 36.7644 46.2903 36.793 46.2903H36.8252C36.8538 46.2903 36.8779 46.3002 36.8977 46.3198C36.9174 46.3399 36.9273 46.364 36.9273 46.3928V47.5322H38.4996V46.3928C38.4996 46.364 38.5092 46.3399 38.5289 46.3198C38.5486 46.3002 38.5727 46.2903 38.6014 46.2903H38.6335C38.6622 46.2903 38.6864 46.3002 38.7061 46.3198C38.7258 46.3399 38.7357 46.364 38.7357 46.3928V49.088C38.7357 49.1169 38.7258 49.1412 38.7061 49.1608C38.6864 49.1809 38.6622 49.1906 38.6335 49.1906H38.6014C38.5727 49.1906 38.5486 49.1809 38.5289 49.1608C38.5092 49.1412 38.4996 49.1169 38.4996 49.088V47.7539H36.9273Z" fill="#FEFEFE"/>
<path d="M41.3809 47.5538C41.3809 47.2227 41.3147 46.9596 41.1824 46.7652C41.0501 46.5706 40.8265 46.4739 40.5115 46.4739C40.1969 46.4739 39.9733 46.5706 39.841 46.7652C39.7084 46.9596 39.6422 47.2227 39.6422 47.5538V47.932C39.6422 48.2633 39.7084 48.5259 39.841 48.7203C39.9733 48.9149 40.1969 49.012 40.5115 49.012C40.8265 49.012 41.0501 48.9149 41.1824 48.7203C41.3147 48.5259 41.3809 48.2633 41.3809 47.932V47.5538ZM41.6169 47.932C41.6169 48.3425 41.5246 48.66 41.3405 48.8852C41.1563 49.1103 40.8802 49.223 40.5115 49.223C40.1432 49.223 39.8667 49.1103 39.6826 48.8852C39.4984 48.66 39.4061 48.3425 39.4061 47.932V47.5538C39.4061 47.1436 39.4984 46.8254 39.6826 46.6006C39.8667 46.3755 40.1432 46.2632 40.5115 46.2632C40.8802 46.2632 41.1563 46.3755 41.3405 46.6006C41.5246 46.8254 41.6169 47.1436 41.6169 47.5538V47.932Z" fill="#FEFEFE"/>
<path d="M44.1229 47.5433C44.1229 47.2029 44.0602 46.9394 43.9352 46.753C43.8095 46.567 43.5951 46.4739 43.2911 46.4739C43.1406 46.4739 43.0127 46.4998 42.9074 46.5517C42.8018 46.6035 42.7144 46.6771 42.6444 46.772C42.5747 46.8667 42.5238 46.9797 42.4914 47.1104C42.4593 47.2413 42.4433 47.3873 42.4433 47.5486V47.5753H44.1229V47.5433ZM44.3589 47.6944C44.3589 47.7232 44.349 47.7472 44.3294 47.767C44.3096 47.787 44.2855 47.7971 44.2571 47.7971H42.4433V47.9102C42.4433 48.1372 42.4682 48.3226 42.5184 48.4667C42.5686 48.6108 42.6383 48.7232 42.7277 48.8041C42.8171 48.8852 42.9198 48.9402 43.0363 48.969C43.1524 48.9979 43.2786 49.012 43.4145 49.012C43.5325 49.012 43.6613 49.004 43.801 48.9876C43.9403 48.9716 44.0761 48.9492 44.2088 48.92C44.2158 48.92 44.2212 48.9195 44.2247 48.9178C44.2282 48.9159 44.2336 48.9149 44.2409 48.9149C44.2622 48.9149 44.2809 48.92 44.2972 48.9314C44.3131 48.9418 44.3213 48.9617 44.3213 48.9904V49.0282C44.3213 49.0572 44.314 49.0796 44.2998 49.0957C44.2855 49.1122 44.2587 49.1237 44.2196 49.131C44.0908 49.1596 43.9546 49.1823 43.8114 49.1986C43.6683 49.2146 43.536 49.223 43.4145 49.223C43.2463 49.223 43.09 49.2018 42.945 49.1605C42.8003 49.1191 42.6721 49.0491 42.5613 48.9498C42.4503 48.8513 42.3635 48.7171 42.3011 48.5474C42.2385 48.3783 42.2073 48.166 42.2073 47.9102V47.5538C42.2073 47.3667 42.2305 47.1946 42.2769 47.038C42.3234 46.8814 42.3921 46.7453 42.4834 46.6304C42.5747 46.5152 42.6873 46.4248 42.8216 46.3602C42.9558 46.2952 43.1123 46.2632 43.2911 46.2632C43.4772 46.2632 43.6371 46.2936 43.7714 46.3551C43.9057 46.4158 44.0163 46.5037 44.1041 46.6166C44.1916 46.7303 44.2559 46.8661 44.2972 47.0246C44.3382 47.183 44.3589 47.3575 44.3589 47.5483V47.6944Z" fill="#FEFEFE"/>
<path d="M48.0771 47.5538C48.0771 47.2227 48.011 46.9596 47.8787 46.7652C47.7463 46.5706 47.5227 46.4739 47.2081 46.4739C46.8931 46.4739 46.6695 46.5706 46.5372 46.7652C46.4049 46.9596 46.3388 47.2227 46.3388 47.5538V47.932C46.3388 48.2633 46.4049 48.5259 46.5372 48.7203C46.6695 48.9149 46.8931 49.012 47.2081 49.012C47.5227 49.012 47.7463 48.9149 47.8787 48.7203C48.011 48.5259 48.0771 48.2633 48.0771 47.932V47.5538ZM48.3135 47.932C48.3135 48.3425 48.2212 48.66 48.037 48.8852C47.8525 49.1103 47.5764 49.223 47.2081 49.223C46.8394 49.223 46.5633 49.1103 46.3792 48.8852C46.195 48.66 46.1027 48.3425 46.1027 47.932V47.5538C46.1027 47.1436 46.195 46.8254 46.3792 46.6006C46.5633 46.3755 46.8394 46.2632 47.2081 46.2632C47.5764 46.2632 47.8525 46.3755 48.037 46.6006C48.2212 46.8254 48.3135 47.1436 48.3135 47.5538V47.932Z" fill="#FEFEFE"/>
<path d="M50.8782 47.5863C50.8782 47.2548 50.8121 46.9923 50.6797 46.7977C50.5475 46.6033 50.3238 46.506 50.0089 46.506C49.7013 46.506 49.4796 46.5988 49.3434 46.7841C49.2076 46.9699 49.1396 47.2209 49.1396 47.5378V47.9321C49.1396 48.2634 49.2057 48.526 49.3384 48.7204C49.4707 48.915 49.694 49.012 50.0089 49.012C50.3238 49.012 50.5475 48.915 50.6797 48.7204C50.8121 48.526 50.8782 48.2634 50.8782 47.9321V47.5863ZM51.1143 47.9321C51.1143 48.3426 51.022 48.6601 50.8378 48.8852C50.6537 49.1104 50.3772 49.2231 50.0089 49.2231C49.6405 49.2231 49.3641 49.1104 49.18 48.8852C48.9957 48.6601 48.9035 48.3426 48.9035 47.9321V47.0625C48.9035 46.8283 48.9258 46.6296 48.9706 46.4656C49.0151 46.302 49.0832 46.166 49.1746 46.0578C49.2658 45.9499 49.3803 45.8643 49.5181 45.8012C49.6555 45.7382 49.8177 45.6873 50.0038 45.6475L50.3524 45.5771C50.4418 45.5589 50.5169 45.5387 50.5777 45.5149C50.6384 45.4915 50.6877 45.4663 50.7253 45.4394C50.7628 45.4123 50.7905 45.3843 50.8082 45.3558C50.8263 45.3271 50.8388 45.2963 50.8461 45.2637C50.8531 45.2387 50.863 45.2179 50.8754 45.2019C50.8881 45.1855 50.9123 45.1775 50.9479 45.1775H51.007C51.0427 45.1775 51.0634 45.1874 51.0688 45.2073C51.0739 45.2268 51.0732 45.2585 51.0659 45.3017C51.0373 45.4279 50.9685 45.5286 50.8594 45.604C50.7503 45.6795 50.6012 45.7376 50.4113 45.7768L50.0464 45.8525C49.9141 45.8812 49.798 45.9158 49.6978 45.9552C49.5976 45.995 49.5117 46.0453 49.4401 46.1064C49.3686 46.1678 49.3103 46.2425 49.2658 46.3305C49.221 46.4188 49.1879 46.5262 49.1666 46.652C49.3597 46.4141 49.6405 46.2953 50.0089 46.2953C50.3772 46.2953 50.6537 46.4079 50.8378 46.633C51.022 46.8582 51.1143 47.1758 51.1143 47.5863V47.9321Z" fill="#FEFEFE"/>
<path d="M52.8747 46.5438C52.8674 46.5153 52.855 46.4903 52.8368 46.4681C52.819 46.4467 52.7904 46.4358 52.7509 46.4358C52.7115 46.4358 52.6829 46.4457 52.6651 46.4656C52.6472 46.4855 52.6349 46.5098 52.6275 46.5386L51.8549 49.1202C51.8479 49.1385 51.8361 49.1545 51.8202 49.1689C51.8039 49.1833 51.7868 49.1905 51.769 49.1905H51.6994C51.6455 49.1905 51.6188 49.1615 51.6188 49.1043C51.6188 49.0825 51.6207 49.0661 51.6242 49.0552L52.4023 46.4845C52.4271 46.4016 52.4694 46.3369 52.5283 46.2901C52.5874 46.2434 52.6615 46.22 52.7509 46.22C52.8368 46.22 52.9093 46.2425 52.9682 46.2872C53.0274 46.3324 53.0694 46.3964 53.0945 46.4791L53.8725 49.0552C53.8795 49.077 53.8831 49.095 53.8831 49.1093C53.8831 49.1635 53.8547 49.1905 53.7975 49.1905H53.7329C53.6899 49.1905 53.6613 49.1671 53.647 49.1202L52.8747 46.5438Z" fill="#FEFEFE"/>
<path d="M56.0991 47.6621H55.6859C55.482 47.6621 55.3112 47.6726 55.1735 47.6944C55.0358 47.7159 54.9241 47.751 54.8382 47.7994C54.7523 47.8484 54.6906 47.9121 54.6531 47.9912C54.6155 48.0706 54.5968 48.1679 54.5968 48.283V48.3534C54.5968 48.4792 54.6117 48.5848 54.6423 48.6691C54.6728 48.7538 54.7148 48.8214 54.7685 48.8716C54.8223 48.9219 54.8837 48.9582 54.9536 48.9799C55.0233 49.0013 55.0994 49.012 55.1814 49.012C55.3319 49.012 55.4776 48.9904 55.6188 48.9473C55.7604 48.9044 55.9203 48.8339 56.0991 48.7366V47.6621ZM56.3352 49.0824C56.3352 49.1112 56.3247 49.1366 56.303 49.1584C56.2817 49.1797 56.2566 49.1904 56.2283 49.1904H56.2012C56.1726 49.1904 56.1475 49.1797 56.1262 49.1584C56.1045 49.1366 56.094 49.1112 56.094 49.0824V48.9473C55.9614 49.0194 55.8183 49.0834 55.6646 49.139C55.511 49.1951 55.3497 49.223 55.1814 49.223C55.0816 49.223 54.9823 49.2092 54.8837 49.1823C54.7854 49.1554 54.6976 49.1083 54.6209 49.0417C54.544 48.9751 54.4813 48.8862 54.4329 48.7743C54.3849 48.6629 54.3608 48.5223 54.3608 48.3534V48.283C54.3608 48.1427 54.384 48.0209 54.4304 47.9182C54.4768 47.8158 54.5519 47.7296 54.6559 47.6592C54.7596 47.5887 54.8961 47.5369 55.0663 47.5026C55.2361 47.4683 55.4429 47.4511 55.6859 47.4511H56.0991V47.2567C56.0991 47.1164 56.0886 46.9967 56.067 46.8978C56.0457 46.7985 56.0088 46.7175 55.9569 46.6544C55.9051 46.5917 55.8354 46.5455 55.7477 46.517C55.6602 46.4883 55.552 46.4739 55.4231 46.4739C55.3335 46.4739 55.2559 46.4746 55.1897 46.4764C55.1235 46.478 55.0618 46.4819 55.0046 46.4873C54.9473 46.4924 54.892 46.4979 54.8382 46.5037C54.7845 46.5088 54.7256 46.5152 54.6613 46.5222H54.6397C54.6146 46.5222 54.5913 46.516 54.5701 46.5037C54.5484 46.4905 54.538 46.47 54.538 46.4412V46.4089C54.538 46.3551 54.5786 46.3224 54.6613 46.3116C54.7183 46.3045 54.773 46.298 54.8249 46.2927C54.8767 46.2871 54.932 46.2818 54.9912 46.2767C55.05 46.2712 55.1146 46.2673 55.1843 46.2655C55.254 46.2638 55.3335 46.2632 55.4231 46.2632C55.6055 46.2632 55.755 46.2871 55.871 46.3358C55.9875 46.3845 56.0804 46.4528 56.15 46.5411C56.22 46.6295 56.268 46.7348 56.2951 46.8571C56.3218 46.9797 56.3352 47.1129 56.3352 47.2567V49.0824Z" fill="#FEFEFE"/>
<path d="M58.8841 49.1366C58.8841 49.1938 58.85 49.223 58.7819 49.223C58.7498 49.223 58.7221 49.2191 58.6989 49.2117C58.6757 49.2047 58.6496 49.1867 58.621 49.1584L57.3225 47.759V49.0877C57.3225 49.1167 57.3126 49.1409 57.2932 49.1605C57.2735 49.1807 57.2491 49.1904 57.2207 49.1904H57.1886C57.1597 49.1904 57.1358 49.1807 57.1161 49.1605C57.0963 49.1409 57.0865 49.1167 57.0865 49.0877V46.3925C57.0865 46.3637 57.0963 46.3397 57.1161 46.3195C57.1358 46.2999 57.1597 46.29 57.1886 46.29H57.2207C57.2491 46.29 57.2735 46.2999 57.2932 46.3195C57.3126 46.3397 57.3225 46.3637 57.3225 46.3925V47.5538L58.6426 46.3116C58.6782 46.2792 58.7212 46.2632 58.7715 46.2632C58.8036 46.2632 58.8296 46.2731 58.8491 46.2927C58.8688 46.3125 58.8787 46.335 58.8787 46.3602C58.8787 46.3925 58.866 46.4197 58.8411 46.4412L57.5264 47.6508L58.8465 49.0552C58.8716 49.0877 58.8841 49.1147 58.8841 49.1366Z" fill="#FEFEFE"/>
<path d="M61.132 47.5538C61.132 47.2227 61.0659 46.9596 60.9339 46.7652C60.8012 46.5706 60.5779 46.4739 60.263 46.4739C59.948 46.4739 59.7248 46.5706 59.5924 46.7652C59.4598 46.9596 59.3936 47.2227 59.3936 47.5538V47.932C59.3936 48.2633 59.4598 48.5259 59.5924 48.7203C59.7248 48.9149 59.948 49.012 60.263 49.012C60.5779 49.012 60.8012 48.9149 60.9339 48.7203C61.0659 48.5259 61.132 48.2633 61.132 47.932V47.5538ZM61.3684 47.932C61.3684 48.3425 61.276 48.66 61.0919 48.8852C60.9077 49.1103 60.6313 49.223 60.263 49.223C59.8946 49.223 59.6182 49.1103 59.434 48.8852C59.2499 48.66 59.1575 48.3425 59.1575 47.932V47.5538C59.1575 47.1436 59.2499 46.8254 59.434 46.6006C59.6182 46.3755 59.8946 46.2632 60.263 46.2632C60.6313 46.2632 60.9077 46.3755 61.0919 46.6006C61.276 46.8254 61.3684 47.1436 61.3684 47.5538V47.932Z" fill="#FEFEFE"/>
<path d="M159.178 37.7294C158.38 35.469 157.035 33.4687 155.305 31.8893C155.438 30.767 155.509 29.6249 155.509 28.4662C155.509 12.7446 142.847 0 127.228 0C116.461 0 107.099 6.05791 102.322 14.9715C98.7076 12.5448 94.366 11.1292 89.6951 11.1292C77.1109 11.1292 66.9093 21.3975 66.9093 34.0646C66.9093 46.7311 77.1109 57 89.6951 57C90.286 57 90.8719 56.977 91.4516 56.9328H144.691V56.896C145.028 56.9196 145.367 56.9328 145.71 56.9328C153.602 56.9328 160 50.4926 160 42.5486C160 40.8583 159.71 39.2363 159.178 37.7294Z" fill="#0091D1"/>
<path d="M159.178 37.7294C158.38 35.469 157.035 33.4687 155.305 31.8893C155.438 30.767 155.509 29.6249 155.509 28.4662C155.509 12.7446 142.847 0 127.228 0C116.461 0 107.099 6.05791 102.322 14.9715C98.7076 12.5448 94.366 11.1292 89.6951 11.1292C77.1109 11.1292 66.9093 21.3975 66.9093 34.0646C66.9093 46.7311 77.1109 57 89.6951 57C90.286 57 90.8719 56.977 91.4516 56.9328H144.691V56.896C145.028 56.9196 145.367 56.9328 145.71 56.9328C153.602 56.9328 160 50.4926 160 42.5486C160 40.8583 159.71 39.2363 159.178 37.7294Z" fill="#FEFEFE"/>
<path d="M80.9671 42.5557C79.7803 42.5557 78.6644 42.3367 77.6205 41.898C76.5758 41.4594 75.667 40.8584 74.8931 40.0945C74.1192 39.3308 73.5071 38.427 73.0561 37.383C72.6054 36.3396 72.3801 35.2132 72.3801 34.003C72.3801 32.8083 72.6015 31.6967 73.0449 30.6681C73.488 29.6396 74.0931 28.7435 74.8594 27.9797C75.6257 27.2161 76.5272 26.6184 77.5641 26.1874C78.6008 25.7564 79.7125 25.5408 80.9 25.5408C82.402 25.5408 83.7734 25.8697 85.0129 26.5277C86.2529 27.1856 87.2781 28.1349 88.0896 29.3749C88.345 29.7984 88.5705 30.2368 88.7658 30.6906C88.9609 31.1442 89.096 31.6134 89.1714 32.0971H84.8215C84.4909 31.2503 83.9798 30.5583 83.2889 30.0214C82.5973 29.4846 81.8015 29.216 80.9 29.216C80.2383 29.216 79.6374 29.3486 79.0967 29.6131C78.5556 29.8779 78.0937 30.2294 77.7104 30.6681C77.3275 31.1068 77.0342 31.6134 76.8312 32.1881C76.6286 32.7629 76.5272 33.3678 76.5272 34.003C76.5272 34.6383 76.6286 35.2468 76.8312 35.8293C77.0342 36.4116 77.3275 36.9294 77.7104 37.383C78.0937 37.8368 78.5556 38.1999 79.0967 38.4724C79.6374 38.7443 80.2383 38.8807 80.9 38.8807C81.831 38.8807 82.6272 38.6235 83.2889 38.1094C83.9498 37.595 84.4611 36.9294 84.8215 36.1126H89.1714C88.9309 37.0809 88.5514 37.9616 88.0329 38.7557C87.5147 39.5498 86.8948 40.2267 86.174 40.7864C85.4526 41.3461 84.6487 41.7808 83.7622 42.0905C82.8754 42.4006 81.9439 42.5557 80.9671 42.5557Z" fill="#3295D3"/>
<path d="M90.321 25.5408H94.6259V38.7218H99.652V42.5557H90.321V25.5408Z" fill="#3295D3"/>
<path d="M109.186 29.1935C108.524 29.1935 107.92 29.3219 107.371 29.579C106.823 29.8364 106.357 30.1841 105.974 30.6226C105.591 31.0615 105.294 31.568 105.083 32.1427C104.873 32.7178 104.768 33.3302 104.768 33.9802C104.768 34.6459 104.873 35.2731 105.083 35.8632C105.294 36.453 105.594 36.9672 105.985 37.4058C106.376 37.8448 106.849 38.1964 107.405 38.4605C107.961 38.7259 108.577 38.8579 109.253 38.8579C109.899 38.8579 110.493 38.7259 111.034 38.4605C111.574 38.1964 112.037 37.8409 112.42 37.3943C112.803 36.9487 113.099 36.4341 113.31 35.8521C113.52 35.2699 113.626 34.6689 113.626 34.0481C113.626 33.4132 113.52 32.8042 113.31 32.2221C113.099 31.6401 112.799 31.1217 112.409 30.6681C112.018 30.2143 111.548 29.8552 111 29.5902C110.451 29.326 109.847 29.1935 109.186 29.1935ZM109.163 42.5557C108.006 42.5557 106.909 42.344 105.872 41.9204C104.836 41.4974 103.926 40.911 103.145 40.1623C102.364 39.4137 101.744 38.5287 101.286 37.508C100.827 36.487 100.598 35.3868 100.598 34.2069C100.598 32.9819 100.816 31.8174 101.252 30.7134C101.492 30.078 101.845 29.4732 102.311 28.8984C103.153 27.7792 104.156 26.9398 105.32 26.3801C106.484 25.8209 107.773 25.5408 109.186 25.5408C110.372 25.5408 111.488 25.7564 112.533 26.1874C113.577 26.6184 114.489 27.2161 115.271 27.9797C116.052 28.7435 116.668 29.6434 117.119 30.6794C117.57 31.7156 117.795 32.8385 117.795 34.0481C117.795 35.2583 117.57 36.3812 117.119 37.4173C116.668 38.4536 116.052 39.3532 115.271 40.1168C114.489 40.8808 113.573 41.4779 112.521 41.9093C111.47 42.3406 110.35 42.5557 109.163 42.5557Z" fill="#3295D3"/>
<path d="M134.091 25.5408V42.5557H125.188C124.301 42.5259 123.43 42.3783 122.573 42.1135C121.717 41.8487 120.988 41.3915 120.387 40.7406C120.012 40.3327 119.711 39.9318 119.486 39.5385C119.26 39.1454 119.091 38.7407 118.978 38.3247C118.866 37.9089 118.79 37.4705 118.753 37.0088C118.715 36.5477 118.697 36.0525 118.697 35.5231V25.5408H123.002V35.5231C123.002 35.901 123.024 36.2829 123.069 36.6687C123.114 37.0543 123.212 37.3985 123.362 37.7008C123.512 38.0037 123.734 38.2531 124.027 38.4493C124.32 38.646 124.707 38.7443 125.188 38.7443H130.304V25.5408H134.091Z" fill="#3295D3"/>
<path d="M141.348 29.3524H139.455V38.7443H141.303C142.039 38.7443 142.67 38.6312 143.196 38.4042C143.722 38.1772 144.154 37.8563 144.493 37.4398C144.83 37.0243 145.075 36.5288 145.225 35.9538C145.375 35.379 145.45 34.7442 145.45 34.0481C145.45 33.3678 145.371 32.744 145.214 32.1766C145.056 31.6097 144.808 31.1142 144.47 30.6906C144.132 30.2675 143.707 29.9386 143.196 29.7038C142.685 29.4695 142.069 29.3524 141.348 29.3524ZM141.055 42.5557H135.15V25.5408H140.74C141.506 25.5408 142.235 25.5825 142.926 25.6655C143.617 25.7489 144.274 25.9037 144.898 26.1306C145.521 26.3575 146.107 26.6791 146.656 27.0948C147.204 27.5109 147.719 28.0516 148.2 28.7169C148.756 29.4883 149.154 30.3241 149.395 31.2237C149.635 32.1238 149.755 33.0501 149.755 34.003C149.755 35.3945 149.564 36.623 149.181 37.6894C148.797 38.7557 148.234 39.6481 147.49 40.3667C146.746 41.0851 145.833 41.6297 144.752 41.9998C143.67 42.3707 142.438 42.5557 141.055 42.5557Z" fill="#3295D3"/>
</svg>
