<svg width="162" height="57" viewBox="0 0 162 57" fill="none" xmlns="http://www.w3.org/2000/svg">
<path d="M1.74685 37.2886C1.78297 38.212 2.01377 39.0262 2.43917 39.7322C2.8642 40.4383 3.54763 40.9362 4.48909 41.2252C4.74222 41.3163 5.01822 41.3931 5.31701 41.456C5.6157 41.5199 5.91848 41.5691 6.2267 41.6057C6.31682 41.6057 6.40713 41.6102 6.4978 41.6191C6.58838 41.6284 6.67869 41.6329 6.76963 41.6329C6.85975 41.6329 6.95487 41.6329 7.05462 41.6329C7.15382 41.6329 7.24875 41.6236 7.33979 41.6057C7.93681 41.5513 8.50697 41.4069 9.0499 41.1712C9.59292 40.9362 10.0361 40.5923 10.3803 40.1396C10.5431 39.9225 10.6789 39.6692 10.7875 39.3794C10.8962 39.09 10.9683 38.7916 11.0046 38.4836C11.0226 38.4112 11.0319 38.3433 11.0319 38.2799C11.0319 38.2164 11.0319 38.1486 11.0319 38.0759C11.0319 37.9856 11.0271 37.8996 11.0184 37.8185C11.0089 37.7369 11.0046 37.651 11.0046 37.5605C10.9683 37.3251 10.9097 37.0946 10.8283 36.8682C10.7468 36.6418 10.6425 36.4382 10.516 36.2574C10.1718 35.8048 9.72869 35.4521 9.18558 35.1986C8.64265 34.9453 8.08157 34.7371 7.50234 34.5741C7.267 34.5196 7.03628 34.4652 6.8102 34.4112C6.58375 34.3567 6.36239 34.3022 6.1451 34.2482C6.07241 34.2302 5.99989 34.2124 5.92773 34.1937C5.85531 34.1761 5.78279 34.1579 5.71054 34.1393C5.67415 34.1393 5.63821 34.1354 5.60217 34.126C5.56578 34.1171 5.52948 34.1034 5.49344 34.0851C5.38471 34.0676 5.27634 34.0404 5.1677 34.0036C5.05897 33.9677 4.94107 33.9404 4.81464 33.9226C4.09056 33.7234 3.39352 33.4701 2.72425 33.1625C2.05443 32.8547 1.52031 32.3479 1.1225 31.6418C0.995712 31.4069 0.882352 31.1534 0.78306 30.8815C0.683496 30.6102 0.615425 30.3297 0.579393 30.0402C0.56115 29.9498 0.547808 29.8595 0.538642 29.7684C0.529384 29.6783 0.5253 29.5877 0.5253 29.497C0.5253 29.3886 0.529384 29.2756 0.538642 29.1578C0.547808 29.0403 0.56115 28.927 0.579393 28.8184C0.651639 28.2754 0.814463 27.7553 1.06823 27.2574C1.32145 26.7596 1.64719 26.3477 2.04554 26.0221C2.47992 25.6419 2.99553 25.3391 3.59301 25.1123C4.19012 24.8866 4.80539 24.7371 5.43935 24.6648C5.56578 24.6648 5.69239 24.6603 5.81946 24.651C5.94561 24.642 6.0724 24.6372 6.19938 24.6372C6.28978 24.6372 6.38462 24.6372 6.48446 24.6372C6.58375 24.6372 6.67869 24.6468 6.76963 24.6648C7.29422 24.7009 7.80548 24.7826 8.30348 24.909C8.80085 25.0358 9.25792 25.2167 9.67442 25.4521C10.4524 25.8685 11.0406 26.4658 11.4392 27.2437C11.837 28.0222 12.0635 28.8366 12.1178 29.6871C12.1357 29.7238 12.145 29.7645 12.145 29.8095C12.145 29.8547 12.145 29.9045 12.145 29.9585H10.516C10.4617 29.1985 10.2671 28.4973 9.93245 27.8546C9.59709 27.2124 9.05906 26.746 8.31682 26.4564C8.11751 26.3843 7.90513 26.3207 7.67896 26.2663C7.45233 26.212 7.22171 26.167 6.98664 26.1306C6.82363 26.1128 6.66516 26.0947 6.5116 26.0763C6.35748 26.0585 6.20827 26.0492 6.06369 26.0492C5.99099 26.0492 5.92338 26.0492 5.85993 26.0492C5.7964 26.0492 5.72833 26.0585 5.65645 26.0763C5.20374 26.1128 4.75556 26.2079 4.31247 26.3614C3.86865 26.5153 3.48446 26.7371 3.15845 27.0266C2.88725 27.2802 2.66534 27.5832 2.49344 27.936C2.32127 28.2891 2.21726 28.6555 2.18132 29.0355C2.16307 29.0899 2.15409 29.1486 2.15409 29.2118C2.15409 29.2756 2.15409 29.3342 2.15409 29.3886C2.15409 29.4611 2.15835 29.5424 2.1677 29.6328C2.1766 29.7238 2.19021 29.8141 2.20836 29.9045C2.24449 30.0673 2.28978 30.2303 2.34423 30.3929C2.39851 30.5557 2.46168 30.7099 2.53419 30.8547C2.80575 31.2891 3.19003 31.6285 3.68794 31.8727C4.18576 32.117 4.71517 32.3117 5.27634 32.456C5.52948 32.5105 5.78279 32.5651 6.03655 32.6191C6.28978 32.6734 6.5341 32.728 6.76963 32.782C6.84151 32.8007 6.90958 32.814 6.97311 32.8226C7.03628 32.832 7.09537 32.8458 7.14955 32.8635C7.29422 32.8999 7.44334 32.9404 7.59755 32.9856C7.75093 33.0311 7.90958 33.0718 8.0725 33.108C8.83289 33.3251 9.57486 33.6193 10.2988 33.9901C11.0226 34.3616 11.602 34.8998 12.0364 35.6054C12.1992 35.859 12.3215 36.135 12.403 36.4335C12.4845 36.7321 12.5429 37.0353 12.5793 37.343C12.5973 37.4341 12.6065 37.5242 12.6065 37.6145C12.6065 37.7055 12.6065 37.7958 12.6065 37.8861C12.6065 37.9946 12.6018 38.099 12.5931 38.1982C12.5836 38.2981 12.5793 38.4019 12.5793 38.5104C12.5068 39.072 12.3529 39.6195 12.1178 40.1534C11.8825 40.687 11.5749 41.135 11.1947 41.4971C10.742 41.9136 10.199 42.2393 9.56569 42.4743C8.93209 42.7094 8.28043 42.8723 7.61107 42.9629C7.44815 42.9808 7.27598 42.9946 7.09537 43.0039C6.91421 43.0125 6.73296 43.0174 6.55244 43.0174C6.4978 43.0174 6.4389 43.0174 6.37573 43.0174C6.31228 43.0174 6.24431 43.0174 6.17206 43.0174C5.68331 42.9987 5.1992 42.9402 4.71971 42.8409C4.23995 42.7413 3.79186 42.619 3.37591 42.4743C2.21726 42.0039 1.39406 41.3117 0.905224 40.3972C0.416569 39.4838 0.172241 38.447 0.172241 37.2886H1.74685Z" fill="white"/>
<path d="M15.5656 29.9584H16.9231V32.049C17.3935 31.2711 17.9548 30.678 18.6063 30.2709C19.2579 29.8634 20.0359 29.6599 20.941 29.6599C21.7916 29.6599 22.543 29.8681 23.1945 30.2843C23.8462 30.7008 24.2893 31.3161 24.5248 32.1307C24.9952 31.3161 25.57 30.7008 26.2488 30.2843C26.9276 29.8681 27.7102 29.6599 28.5972 29.6599C28.6514 29.6599 28.71 29.6645 28.7736 29.6736C28.8367 29.6827 28.9047 29.687 28.9772 29.687C29.0133 29.687 29.045 29.6918 29.0724 29.7006C29.0994 29.7099 29.1307 29.7143 29.1673 29.7143C29.2035 29.7143 29.2394 29.7143 29.2758 29.7143C29.312 29.7143 29.3481 29.7143 29.3845 29.7143C30.5969 29.8409 31.4431 30.2709 31.9229 31.0038C32.4023 31.7366 32.6423 32.6558 32.6423 33.7595V42.5555H31.1492V33.8952C31.1492 33.8773 31.1446 33.8639 31.1356 33.8546C31.1262 33.8453 31.1221 33.8319 31.1221 33.8137C31.1221 33.7961 31.1127 33.7774 31.0948 33.7595C31.0948 32.8363 30.8777 32.1352 30.4433 31.6553C30.0088 31.1761 29.3302 30.9359 28.407 30.9359H28.0542C27.0587 31.0084 26.2758 31.4111 25.7058 32.1442C25.1356 32.8771 24.8506 33.7234 24.8506 34.6825V42.5555H23.3844V34.0307C23.3844 33.1444 23.1716 32.4157 22.7467 31.8454C22.321 31.2752 21.6559 30.9903 20.7511 30.9903H20.3166C19.3029 31.0628 18.5065 31.4699 17.9277 32.212C17.3481 32.9542 17.0405 33.8047 17.0047 34.7636V42.5555H15.5656V29.9584Z" fill="white"/>
<path d="M43.8276 39.3661C44.0626 38.6511 44.1804 37.8499 44.1804 36.9631V35.9586C43.7639 36.0851 43.3431 36.1803 42.9179 36.2439C42.4924 36.3073 42.0628 36.3656 41.6286 36.42C41.5741 36.4382 41.5242 36.4473 41.4791 36.4473C41.4339 36.4473 41.3842 36.4566 41.3299 36.4744C40.9315 36.5286 40.5287 36.5877 40.1218 36.6509C39.7145 36.7146 39.3207 36.8093 38.9406 36.9362C38.4156 37.0809 37.9451 37.3886 37.5289 37.859C37.1124 38.3299 36.9046 38.8275 36.9046 39.3522C36.9046 39.4432 36.9132 39.538 36.9318 39.6373C36.9494 39.7372 36.9766 39.8408 37.0131 39.9494C37.0672 40.0762 37.1396 40.2071 37.2302 40.3429C37.3205 40.479 37.4204 40.6009 37.5289 40.7099C37.7822 40.9634 38.0855 41.1622 38.4386 41.307C38.7914 41.452 39.1581 41.5333 39.5381 41.5513C39.5743 41.5513 39.6101 41.5513 39.6466 41.5513C39.6825 41.5513 39.7187 41.5513 39.7552 41.5513C39.8455 41.5513 39.9406 41.547 40.0404 41.5378C40.1394 41.5285 40.2345 41.5241 40.3254 41.5241C40.6328 41.4879 40.9267 41.4292 41.2079 41.3476C41.4883 41.2663 41.7371 41.1895 41.9542 41.1168C42.9676 40.6647 43.5919 40.081 43.8276 39.3661ZM42.6192 41.8907C41.9584 42.2435 41.2754 42.4926 40.5698 42.6371C40.3344 42.6914 40.1081 42.7321 39.891 42.7592C39.6739 42.7866 39.4565 42.8001 39.2394 42.8001C38.5696 42.8001 37.9314 42.6552 37.3253 42.3658C36.7189 42.0764 36.2258 41.5968 35.8458 40.927C35.7548 40.746 35.6783 40.5651 35.6149 40.3839C35.5515 40.2033 35.5015 40.0221 35.4654 39.8408C35.4474 39.7505 35.4337 39.66 35.425 39.5693C35.4157 39.479 35.4116 39.3888 35.4116 39.2978C35.4116 38.6286 35.5966 37.9994 35.968 37.411C36.3385 36.8231 36.8409 36.3841 37.4746 36.0943C37.9996 35.8412 38.5561 35.6599 39.1443 35.551C39.7321 35.4428 40.3254 35.3522 40.9225 35.2798C40.995 35.2619 41.0673 35.2526 41.14 35.2526C41.212 35.2526 41.2844 35.244 41.3567 35.2255C41.6827 35.1895 41.9993 35.1534 42.307 35.1169C42.6148 35.081 42.9225 35.0356 43.2301 34.9811C43.5919 34.909 43.8452 34.7326 43.9903 34.4519C44.1353 34.1714 44.2076 33.8682 44.2076 33.5422C44.2076 33.4519 44.2032 33.3658 44.1942 33.2845C44.1846 33.2028 44.1711 33.1174 44.1533 33.0264C44.0991 32.719 44.004 32.4251 43.8683 32.1443C43.7325 31.8638 43.565 31.6511 43.3659 31.5061C43.1123 31.3253 42.8229 31.1849 42.4972 31.0853C42.1716 30.9861 41.8457 30.9183 41.5197 30.8816C41.4473 30.8639 41.3705 30.8547 41.2892 30.8547C41.2079 30.8547 41.1218 30.8547 41.0311 30.8547C40.1804 30.8547 39.4023 31.099 38.6964 31.5877C37.9903 32.0764 37.601 32.782 37.5289 33.7052H36.0629C36.1172 32.4561 36.6238 31.4836 37.5834 30.7869C38.5423 30.0902 39.6012 29.7053 40.7596 29.6328C40.814 29.6328 40.8726 29.6328 40.936 29.6328C40.9994 29.6328 41.0673 29.6328 41.14 29.6328C42.2801 29.6328 43.3207 29.9498 44.2621 30.5831C45.2028 31.2168 45.6738 32.1759 45.6738 33.4608V40.1668C45.6738 40.6737 45.7417 41.0216 45.8774 41.2119C46.0131 41.4021 46.2616 41.4971 46.624 41.4971C46.66 41.4971 46.6961 41.4927 46.7323 41.4834C46.7684 41.4744 46.8139 41.4699 46.8684 41.4699C46.9042 41.4699 46.9314 41.4699 46.9497 41.4699C46.9673 41.452 46.9945 41.4428 47.0314 41.4428C47.0672 41.4428 47.0944 41.4428 47.1127 41.4428V42.5557C47.0582 42.5557 46.9993 42.5557 46.9362 42.5557C46.8725 42.5557 46.8139 42.5557 46.7595 42.5557C46.6327 42.5736 46.5108 42.5829 46.3932 42.5829C46.2751 42.5829 46.1623 42.5829 46.0538 42.5829C45.5287 42.5829 45.0901 42.4703 44.7372 42.2434C44.3841 42.0175 44.2076 41.5513 44.2076 40.8456L44.2621 40.7099C43.8276 41.144 43.2798 41.5378 42.6192 41.8907Z" fill="white"/>
<path d="M49.6374 29.9584H51.0491V32.1848C51.4653 31.2798 51.9994 30.633 52.651 30.2436C53.3022 29.8546 54.1168 29.6599 55.0943 29.6599V31.1533C53.6643 31.1533 52.651 31.5604 52.0535 32.3751C51.4564 33.1893 51.1576 34.2663 51.1576 35.6053V42.5555H49.6374V29.9584Z" fill="white"/>
<path d="M59.5464 29.9585H61.8812V31.1534H59.5464V40.3022C59.5464 40.8276 59.6187 41.1942 59.7637 41.402C59.9085 41.6102 60.1256 41.7143 60.4153 41.7143C60.5597 41.7143 60.741 41.6869 60.9584 41.6329C61.1754 41.5784 61.4015 41.524 61.6369 41.4698C61.6547 41.4698 61.6731 41.4698 61.6913 41.4698C61.7274 41.452 61.7591 41.4382 61.7863 41.4292C61.8136 41.4203 61.845 41.4155 61.8812 41.4155V42.5556C61.7185 42.5736 61.5555 42.6007 61.3929 42.637C61.2299 42.6734 61.0576 42.7094 60.8767 42.7459C60.75 42.7637 60.6232 42.7773 60.4966 42.7865C60.3698 42.7951 60.2431 42.8 60.1166 42.8C59.9536 42.8 59.7951 42.7865 59.6415 42.7592C59.4875 42.7321 59.3383 42.7007 59.1935 42.6642C58.6867 42.5195 58.3745 42.2528 58.257 41.8635C58.1389 41.4744 58.0802 41.0536 58.0802 40.6008C58.0802 40.5468 58.0802 40.4972 58.0802 40.4518C58.0802 40.4069 58.0802 40.3566 58.0802 40.3022V31.1534H56.3701V29.9585H58.0802V26.375H59.5464V29.9585Z" fill="white"/>
<path d="M2.65729 45.3988H1.50145V49.0878C1.50145 49.1168 1.49347 49.141 1.47722 49.1606C1.46097 49.1808 1.43846 49.1905 1.40969 49.1905H1.35578C1.32674 49.1905 1.30423 49.1808 1.28826 49.1606C1.27201 49.141 1.26384 49.1168 1.26384 49.0878V45.3988H0.10265C0.034126 45.3988 0 45.3719 0 45.3177V45.2694C0 45.2083 0.034126 45.1775 0.10265 45.1775H2.65729C2.72572 45.1775 2.75994 45.2083 2.75994 45.2694V45.3177C2.75994 45.3719 2.72572 45.3988 2.65729 45.3988Z" fill="white"/>
<path d="M4.85553 48.3479C4.85553 48.2112 4.82866 48.1045 4.77484 48.0289C4.72093 47.9538 4.65168 47.8987 4.56764 47.8645C4.48323 47.8302 4.38984 47.8107 4.28773 47.8052C4.18517 47.7994 4.0857 47.7971 3.98877 47.7971H3.21903V49.0069C3.34473 49.0139 3.45237 49.0183 3.54213 49.0202C3.63171 49.0222 3.71603 49.0231 3.7949 49.0231C4.17174 49.0231 4.44284 48.9735 4.60775 48.8745C4.77285 48.7753 4.85553 48.6124 4.85553 48.3853V48.3479ZM4.82866 46.9897C4.82866 46.8785 4.80343 46.789 4.75315 46.7207C4.70296 46.6529 4.63208 46.6 4.5405 46.5622C4.4491 46.5248 4.33965 46.5004 4.21222 46.4899C4.08488 46.479 3.94565 46.4739 3.7949 46.4739C3.75551 46.4739 3.70977 46.4746 3.65785 46.4764C3.60585 46.478 3.55284 46.4799 3.49884 46.4819C3.44529 46.4838 3.39301 46.4855 3.34291 46.4873C3.29254 46.4892 3.25125 46.4902 3.21903 46.4902V47.5753H3.98877C4.08561 47.5753 4.18345 47.5718 4.28219 47.5647C4.38085 47.5576 4.4707 47.5369 4.55139 47.5029C4.63208 47.4686 4.69842 47.4142 4.75052 47.3391C4.80234 47.2637 4.82866 47.1578 4.82866 47.0219V46.9897ZM5.05557 47.0229C5.05557 47.1523 5.02226 47.2798 4.95573 47.4059C4.88929 47.5314 4.78065 47.6233 4.6299 47.6806C4.72311 47.7167 4.80044 47.7606 4.8617 47.8132C4.9226 47.8654 4.96998 47.9224 5.00429 47.9839C5.03823 48.0449 5.06183 48.1071 5.07426 48.1705C5.08697 48.2335 5.09314 48.2919 5.09314 48.346V48.3842C5.09314 48.5428 5.06183 48.6754 4.99911 48.7822C4.93612 48.8883 4.84718 48.9748 4.73219 49.0414C4.61728 49.1083 4.47987 49.1561 4.32013 49.1852C4.1603 49.2136 3.98332 49.2281 3.78946 49.2281C3.73926 49.2281 3.68091 49.2272 3.61438 49.2252C3.54785 49.2236 3.48078 49.222 3.41235 49.2201C3.34418 49.2181 3.27856 49.2153 3.21576 49.2117C3.15286 49.2085 3.09813 49.2031 3.05139 49.1957C3.00465 49.1922 2.98132 49.1758 2.98132 49.1471V46.3439C2.98132 46.3189 3.0012 46.3029 3.04059 46.2952C3.1269 46.2847 3.23972 46.2767 3.37985 46.2712C3.52017 46.2655 3.65658 46.2632 3.78946 46.2632C3.94738 46.2632 4.10276 46.2702 4.2556 46.2847C4.40817 46.299 4.54349 46.332 4.66221 46.3843C4.78065 46.4364 4.87595 46.5101 4.94756 46.6054C5.01953 46.7006 5.05557 46.829 5.05557 46.9905V47.0229Z" fill="white"/>
<path d="M7.68029 47.5538C7.68029 47.2227 7.61376 46.9596 7.48061 46.7652C7.34738 46.5706 7.1222 46.4739 6.80544 46.4739C6.48851 46.4739 6.26333 46.5706 6.13046 46.7652C5.99713 46.9596 5.93042 47.2227 5.93042 47.5538V47.932C5.93042 48.2633 5.99713 48.5259 6.13046 48.7203C6.26333 48.9149 6.48851 49.012 6.80544 49.012C7.1222 49.012 7.34738 48.9149 7.48061 48.7203C7.61376 48.5259 7.68029 48.2633 7.68029 47.932V47.5538ZM7.91817 47.932C7.91817 48.3425 7.82523 48.66 7.63981 48.8852C7.45429 49.1103 7.17629 49.223 6.80544 49.223C6.43451 49.223 6.15632 49.1103 5.9709 48.8852C5.78548 48.66 5.69281 48.3425 5.69281 47.932V47.5538C5.69281 47.1436 5.78548 46.8254 5.9709 46.6006C6.15632 46.3755 6.43451 46.2632 6.80544 46.2632C7.17629 46.2632 7.45429 46.3755 7.63981 46.6006C7.82523 46.8254 7.91817 47.1436 7.91817 47.5538V47.932Z" fill="white"/>
<path d="M10.4404 47.5433C10.4404 47.2029 10.3772 46.9394 10.2514 46.753C10.1251 46.567 9.90904 46.4739 9.60309 46.4739C9.45179 46.4739 9.32291 46.4998 9.2169 46.5517C9.11071 46.6035 9.02249 46.6771 8.95224 46.772C8.88208 46.8667 8.83081 46.9797 8.79822 47.1104C8.76582 47.2413 8.74966 47.3873 8.74966 47.5486V47.5753H10.4404V47.5433ZM10.678 47.6944C10.678 47.7232 10.668 47.7472 10.6481 47.767C10.6283 47.787 10.6039 47.7971 10.5754 47.7971H8.74966V47.9102C8.74966 48.1372 8.77481 48.3226 8.82527 48.4667C8.87582 48.6108 8.94598 48.7232 9.03592 48.8041C9.12587 48.8852 9.22952 48.9402 9.3466 48.969C9.4635 48.9979 9.59047 49.012 9.72716 49.012C9.84596 49.012 9.97584 49.004 10.1162 48.9876C10.2566 48.9716 10.3934 48.9492 10.5268 48.92C10.5268 48.92 10.5393 48.9195 10.5429 48.9178C10.5464 48.9159 10.5518 48.9149 10.5592 48.9149C10.5807 48.9149 10.5996 48.92 10.6157 48.9314C10.6319 48.9418 10.6401 48.9617 10.6401 48.9904V49.0282C10.6401 49.0572 10.6329 49.0796 10.6186 49.0957C10.6039 49.1122 10.577 49.1237 10.5374 49.131C10.408 49.1596 10.271 49.1823 10.127 49.1986C9.98283 49.2146 9.84959 49.223 9.72716 49.223C9.55807 49.223 9.4006 49.2018 9.25466 49.1605C9.1089 49.1191 8.98011 49.0491 8.86838 48.9498C8.75684 48.8513 8.66943 48.7171 8.60654 48.5474C8.54364 48.3783 8.51196 48.166 8.51196 47.9102V47.5538C8.51196 47.3667 8.53547 47.1946 8.58239 47.038C8.62895 46.8814 8.69829 46.7453 8.79014 46.6304C8.88208 46.5152 8.99535 46.4248 9.1305 46.3602C9.26555 46.2952 9.42302 46.2632 9.60309 46.2632C9.79023 46.2632 9.95143 46.2936 10.0865 46.3551C10.2215 46.4158 10.3331 46.5037 10.4213 46.6166C10.5095 46.7303 10.5743 46.8661 10.6157 47.0246C10.6571 47.183 10.678 47.3575 10.678 47.5483V47.6944Z" fill="white"/>
<path d="M14.3344 46.8299C14.3344 46.7221 14.3107 46.642 14.2642 46.5897C14.2172 46.5375 14.1308 46.5117 14.0048 46.5117H13.0758C12.9496 46.5117 12.8643 46.5375 12.8192 46.5897C12.7741 46.642 12.7517 46.7221 12.7517 46.8299V49.0877C12.7517 49.1167 12.7437 49.1409 12.7275 49.1605C12.7112 49.1807 12.6887 49.1904 12.66 49.1904H12.6059C12.5772 49.1904 12.5546 49.1807 12.5385 49.1605C12.5223 49.1409 12.5141 49.1167 12.5141 49.0877V46.8299C12.5141 46.7114 12.5303 46.6166 12.5627 46.5465C12.5951 46.4764 12.6384 46.4222 12.6924 46.3845C12.7463 46.3467 12.8066 46.3214 12.8731 46.3089C12.9399 46.2964 13.0074 46.29 13.0758 46.29H13.9993C14.0676 46.29 14.1362 46.2964 14.2046 46.3089C14.2729 46.3214 14.3344 46.3467 14.3883 46.3845C14.4422 46.4222 14.4863 46.4764 14.5205 46.5465C14.5548 46.6166 14.572 46.7114 14.572 46.8299V49.0877C14.572 49.1167 14.5639 49.1409 14.5476 49.1605C14.5315 49.1807 14.5088 49.1904 14.4801 49.1904H14.4261C14.3972 49.1904 14.3749 49.1807 14.3585 49.1605C14.3425 49.1409 14.3344 49.1167 14.3344 49.0877V46.8299Z" fill="white"/>
<path d="M17.1754 47.5433C17.1754 47.2029 17.1123 46.9394 16.9862 46.753C16.8602 46.567 16.6441 46.4739 16.3381 46.4739C16.1869 46.4739 16.0581 46.4998 15.9519 46.5517C15.8456 46.6035 15.7574 46.6771 15.6873 46.772C15.6171 46.8667 15.5658 46.9797 15.5334 47.1104C15.501 47.2413 15.4848 47.3873 15.4848 47.5486V47.5753H17.1754V47.5433ZM17.4129 47.6944C17.4129 47.7232 17.4028 47.7472 17.3832 47.767C17.3636 47.787 17.3391 47.7971 17.3103 47.7971H15.4848V47.9102C15.4848 48.1372 15.5097 48.3226 15.5603 48.4667C15.6108 48.6108 15.681 48.7232 15.7709 48.8041C15.861 48.8852 15.9644 48.9402 16.0814 48.969C16.1987 48.9979 16.3256 49.012 16.4623 49.012C16.5812 49.012 16.7109 49.004 16.8512 48.9876C16.9917 48.9716 17.1284 48.9492 17.2618 48.92C17.2689 48.92 17.2743 48.9195 17.2777 48.9178C17.2814 48.9159 17.2869 48.9149 17.2942 48.9149C17.3157 48.9149 17.3346 48.92 17.3508 48.9314C17.3671 48.9418 17.3752 48.9617 17.3752 48.9904V49.0282C17.3752 49.0572 17.3679 49.0796 17.3534 49.0957C17.3391 49.1122 17.3121 49.1237 17.2725 49.131C17.143 49.1596 17.006 49.1823 16.8619 49.1986C16.7179 49.2146 16.5848 49.223 16.4623 49.223C16.2931 49.223 16.1356 49.2018 15.9898 49.1605C15.844 49.1191 15.715 49.0491 15.6036 48.9498C15.4918 48.8513 15.4045 48.7171 15.3416 48.5474C15.2785 48.3783 15.2471 48.166 15.2471 47.9102V47.5538C15.2471 47.3667 15.2704 47.1946 15.3173 47.038C15.3641 46.8814 15.4334 46.7453 15.5253 46.6304C15.6171 46.5152 15.7306 46.4248 15.8655 46.3602C16.0006 46.2952 16.158 46.2632 16.3381 46.2632C16.5253 46.2632 16.6864 46.2936 16.8215 46.3551C16.9566 46.4158 17.0682 46.5037 17.1563 46.6166C17.2448 46.7303 17.3094 46.8661 17.3508 47.0246C17.3921 47.183 17.4129 47.3575 17.4129 47.5483V47.6944Z" fill="white"/>
<path d="M19.8973 47.5753C19.8973 47.226 19.836 46.9554 19.7136 46.7627C19.5912 46.5702 19.3788 46.4739 19.0764 46.4739C18.9467 46.4739 18.8135 46.4809 18.6767 46.4953C18.5398 46.5097 18.4228 46.5261 18.3257 46.5437V48.9418C18.376 48.9527 18.4337 48.9626 18.4984 48.9716C18.5633 48.9806 18.6298 48.9876 18.6983 48.9934C18.7666 48.9984 18.8333 49.0033 18.8981 49.0069C18.9629 49.0103 19.0223 49.012 19.0764 49.012C19.3751 49.012 19.5866 48.9219 19.7109 48.7423C19.8352 48.5621 19.8973 48.2919 19.8973 47.932V47.5753ZM20.135 47.932C20.135 48.7926 19.7821 49.223 19.0764 49.223C19.0223 49.223 18.9637 49.221 18.9008 49.2173C18.8378 49.2136 18.772 49.2085 18.7036 49.2012C18.6351 49.1938 18.5685 49.1852 18.5038 49.174C18.4389 49.1634 18.3795 49.1525 18.3257 49.1419V50.1408C18.3257 50.1698 18.3175 50.194 18.3012 50.2139C18.2851 50.2338 18.2626 50.2433 18.2338 50.2433H18.1798C18.1508 50.2433 18.1285 50.2338 18.1123 50.2139C18.0961 50.194 18.088 50.1698 18.088 50.1408V46.468C18.088 46.4357 18.0935 46.4124 18.1041 46.398C18.1149 46.3836 18.1364 46.3727 18.1689 46.3656C18.2878 46.3407 18.4299 46.3169 18.5957 46.2952C18.7614 46.2738 18.9214 46.2632 19.0764 46.2632C19.2636 46.2632 19.4238 46.2946 19.5571 46.3573C19.6902 46.4207 19.8001 46.5107 19.8866 46.6275C19.973 46.7444 20.0359 46.8834 20.0755 47.0434C20.1153 47.2038 20.135 47.3809 20.135 47.5753V47.932Z" fill="white"/>
<path d="M22.533 49.1419C22.5186 49.1564 22.4916 49.167 22.4519 49.174C22.3366 49.1888 22.2207 49.2002 22.1036 49.2092C21.9865 49.2181 21.885 49.223 21.7985 49.223C21.604 49.223 21.4392 49.1875 21.3042 49.1175C21.1692 49.0472 21.0592 48.9527 20.9747 48.8339C20.89 48.7152 20.828 48.5765 20.7884 48.418C20.7488 48.2598 20.7289 48.0921 20.7289 47.916V47.5538C20.7289 47.3739 20.7488 47.2055 20.7884 47.0489C20.828 46.892 20.89 46.7556 20.9747 46.6384C21.0592 46.5212 21.1692 46.4296 21.3042 46.3631C21.4392 46.2964 21.604 46.2632 21.7985 46.2632C21.885 46.2632 21.9865 46.2673 22.1036 46.2767C22.2207 46.2855 22.3366 46.297 22.4519 46.3116C22.4916 46.3189 22.5186 46.3298 22.533 46.3439C22.5472 46.3582 22.5545 46.38 22.5545 46.4089V46.4466C22.5545 46.4972 22.5255 46.5222 22.4682 46.5222H22.4411C22.1854 46.4902 21.9713 46.4739 21.7985 46.4739C21.6436 46.4739 21.513 46.4988 21.4068 46.5491C21.3006 46.5997 21.2152 46.6727 21.1503 46.7681C21.0854 46.8635 21.0385 46.9778 21.0098 47.111C20.981 47.2442 20.9666 47.3918 20.9666 47.5538V47.916C20.9666 48.0779 20.981 48.2262 21.0098 48.3614C21.0385 48.4964 21.0854 48.6124 21.1503 48.7097C21.2152 48.807 21.3006 48.8816 21.4068 48.9335C21.513 48.986 21.6436 49.012 21.7985 49.012C21.9713 49.012 22.1854 48.996 22.4411 48.9636H22.4682C22.5255 48.9636 22.5545 48.9886 22.5545 49.0389V49.0769C22.5545 49.1058 22.5472 49.1276 22.533 49.1419Z" fill="white"/>
<path d="M25.077 47.5538C25.077 47.2227 25.0105 46.9596 24.8772 46.7652C24.7438 46.5706 24.5188 46.4739 24.202 46.4739C23.8851 46.4739 23.6601 46.5706 23.5269 46.7652C23.3936 46.9596 23.3271 47.2227 23.3271 47.5538V47.932C23.3271 48.2633 23.3936 48.5259 23.5269 48.7203C23.6601 48.9149 23.8851 49.012 24.202 49.012C24.5188 49.012 24.7438 48.9149 24.8772 48.7203C25.0105 48.5259 25.077 48.2633 25.077 47.932V47.5538ZM25.3146 47.932C25.3146 48.3425 25.2218 48.66 25.0364 48.8852C24.8509 49.1103 24.5728 49.223 24.202 49.223C23.8311 49.223 23.5529 49.1103 23.3674 48.8852C23.1822 48.66 23.0895 48.3425 23.0895 47.932V47.5538C23.0895 47.1436 23.1822 46.8254 23.3674 46.6006C23.5529 46.3755 23.8311 46.2632 24.202 46.2632C24.5728 46.2632 24.8509 46.3755 25.0364 46.6006C25.2218 46.8254 25.3146 47.1436 25.3146 47.5538V47.932Z" fill="white"/>
<path d="M26.2272 47.7536V49.0877C26.2272 49.1167 26.2174 49.1409 26.1975 49.1605C26.1776 49.1807 26.1532 49.1904 26.1246 49.1904H26.0923C26.0634 49.1904 26.0391 49.1807 26.0194 49.1605C25.9995 49.1409 25.9897 49.1167 25.9897 49.0877V46.3925C25.9897 46.3637 25.9995 46.3397 26.0194 46.3195C26.0391 46.2999 26.0634 46.29 26.0923 46.29H26.1246C26.1532 46.29 26.1776 46.2999 26.1975 46.3195C26.2174 46.3397 26.2272 46.3637 26.2272 46.3925V47.532H27.8099V46.3925C27.8099 46.3637 27.8197 46.3397 27.8396 46.3195C27.8593 46.2999 27.8835 46.29 27.9124 46.29H27.9448C27.9735 46.29 27.9979 46.2999 28.0176 46.3195C28.0375 46.3397 28.0475 46.3637 28.0475 46.3925V49.0877C28.0475 49.1167 28.0375 49.1409 28.0176 49.1605C27.9979 49.1807 27.9735 49.1904 27.9448 49.1904H27.9124C27.8835 49.1904 27.8593 49.1807 27.8396 49.1605C27.8197 49.1409 27.8099 49.1167 27.8099 49.0877V47.7536H26.2272Z" fill="white"/>
<path d="M30.4456 47.6621H30.0297C29.8243 47.6621 29.6526 47.6726 29.5139 47.6944C29.3752 47.7159 29.2627 47.751 29.1762 47.7994C29.0899 47.8484 29.0276 47.9121 28.99 47.9912C28.9522 48.0706 28.9332 48.1679 28.9332 48.283V48.3534C28.9332 48.4792 28.9486 48.5848 28.9791 48.6691C29.0097 48.7538 29.052 48.8214 29.106 48.8716C29.16 48.9219 29.2222 48.9582 29.2926 48.9799C29.3627 49.0013 29.4391 49.012 29.5219 49.012C29.6733 49.012 29.8199 48.9904 29.9622 48.9473C30.1044 48.9044 30.2656 48.8339 30.4456 48.7366V47.6621ZM30.6832 49.0824C30.6832 49.1112 30.6725 49.1366 30.6508 49.1584C30.6292 49.1797 30.6039 49.1904 30.5753 49.1904H30.5481C30.5194 49.1904 30.4941 49.1797 30.4726 49.1584C30.4511 49.1366 30.4402 49.1112 30.4402 49.0824V48.9473C30.3069 49.0194 30.1629 49.0834 30.0081 49.139C29.8534 49.1951 29.6911 49.223 29.5219 49.223C29.4212 49.223 29.3211 49.2092 29.2222 49.1823C29.1232 49.1554 29.035 49.1083 28.9575 49.0417C28.88 48.9751 28.8171 48.8862 28.7685 48.7743C28.7199 48.6629 28.6956 48.5223 28.6956 48.3534V48.283C28.6956 48.1427 28.719 48.0209 28.7659 47.9182C28.8126 47.8158 28.8882 47.7296 28.9928 47.6592C29.0971 47.5887 29.2346 47.5369 29.4058 47.5026C29.5767 47.4683 29.7848 47.4511 30.0297 47.4511H30.4456V47.2567C30.4456 47.1164 30.4348 46.9967 30.4132 46.8978C30.3915 46.7985 30.3545 46.7175 30.3024 46.6544C30.2501 46.5917 30.1799 46.5455 30.0917 46.517C30.0036 46.4883 29.8947 46.4739 29.7651 46.4739C29.6749 46.4739 29.5966 46.4746 29.5301 46.4764C29.4634 46.478 29.4014 46.4819 29.3438 46.4873C29.2862 46.4924 29.2304 46.4979 29.1762 46.5037C29.1223 46.5088 29.0629 46.5152 28.9981 46.5222H28.9766C28.9512 46.5222 28.928 46.516 28.9064 46.5037C28.8847 46.4905 28.874 46.47 28.874 46.4412V46.4089C28.874 46.3551 28.9151 46.3224 28.9981 46.3116C29.0555 46.3045 29.1106 46.298 29.1628 46.2927C29.2149 46.2871 29.2708 46.2818 29.3302 46.2767C29.3896 46.2712 29.4545 46.2673 29.5246 46.2655C29.5949 46.2638 29.6749 46.2632 29.7651 46.2632C29.9487 46.2632 30.0989 46.2871 30.216 46.3358C30.333 46.3845 30.4268 46.4528 30.4969 46.5411C30.5671 46.6295 30.6157 46.7348 30.6427 46.8571C30.6697 46.9797 30.6832 47.1129 30.6832 47.2567V49.0824Z" fill="white"/>
<path d="M32.5358 46.5438C32.5285 46.5153 32.5159 46.4903 32.498 46.4681C32.4797 46.4467 32.451 46.4358 32.4116 46.4358C32.3718 46.4358 32.343 46.4457 32.3251 46.4656C32.3072 46.4855 32.2944 46.5098 32.2873 46.5386L31.5094 49.1202C31.5023 49.1385 31.4907 49.1545 31.4745 49.1689C31.4583 49.1833 31.4409 49.1905 31.4232 49.1905H31.353C31.2988 49.1905 31.2718 49.1615 31.2718 49.1043C31.2718 49.0825 31.2737 49.0661 31.2773 49.0552L32.0603 46.4845C32.0856 46.4016 32.1278 46.3369 32.1874 46.2901C32.247 46.2434 32.3216 46.22 32.4116 46.22C32.498 46.22 32.5707 46.2425 32.6302 46.2872C32.6898 46.3324 32.732 46.3964 32.757 46.4791L33.5402 49.0552C33.5475 49.077 33.5511 49.095 33.5511 49.1093C33.5511 49.1635 33.5223 49.1905 33.4647 49.1905H33.3999C33.3567 49.1905 33.3279 49.1671 33.3135 49.1202L32.5358 46.5438Z" fill="white"/>
<path d="M34.3774 49.0069C34.5029 49.0139 34.6108 49.0183 34.7005 49.0202C34.7901 49.0222 34.8744 49.0231 34.9534 49.0231C35.3302 49.0231 35.6012 48.9726 35.766 48.8716C35.9313 48.7713 36.0139 48.5964 36.0139 48.3479V48.2506C36.0139 48.0021 35.9313 47.8272 35.766 47.7268C35.6012 47.6258 35.3302 47.5753 34.9534 47.5753C34.8744 47.5753 34.7901 47.5763 34.7005 47.5781C34.6108 47.58 34.5029 47.5843 34.3774 47.5916V49.0069ZM34.1398 46.3925C34.1398 46.3637 34.1472 46.3397 34.1619 46.3195C34.1767 46.2999 34.2006 46.29 34.2336 46.29H34.2836C34.3201 46.29 34.345 46.2999 34.3578 46.3195C34.371 46.3397 34.3774 46.3637 34.3774 46.3925V47.3864C34.4706 47.3793 34.5699 47.3748 34.6755 47.3729C34.7811 47.371 34.873 47.3705 34.9518 47.3705C35.1452 47.3705 35.3216 47.3844 35.4811 47.4133C35.6402 47.4421 35.7772 47.4907 35.8919 47.5592C36.0061 47.6278 36.0948 47.7183 36.1576 47.8321C36.2201 47.9453 36.2517 48.0849 36.2517 48.2506V48.3479C36.2517 48.5134 36.2201 48.6526 36.1573 48.7663C36.0945 48.8796 36.0055 48.9709 35.8906 49.0389C35.7756 49.1074 35.6383 49.1563 35.4785 49.1852C35.3187 49.2136 35.1416 49.228 34.948 49.228C34.8977 49.228 34.8391 49.2271 34.7728 49.2252C34.7062 49.2236 34.639 49.222 34.5708 49.2201C34.5026 49.2181 34.437 49.2152 34.3742 49.2117C34.3111 49.2084 34.2566 49.2031 34.2099 49.1957C34.1632 49.1922 34.1398 49.1758 34.1398 49.1471V46.3925Z" fill="white"/>
<path d="M37.1698 47.7536V49.0877C37.1698 49.1167 37.1599 49.1409 37.14 49.1605C37.1201 49.1807 37.0958 49.1904 37.067 49.1904H37.0346C37.0059 49.1904 36.9815 49.1807 36.9617 49.1605C36.9418 49.1409 36.9323 49.1167 36.9323 49.0877V46.3925C36.9323 46.3637 36.9418 46.3397 36.9617 46.3195C36.9815 46.2999 37.0059 46.29 37.0346 46.29H37.067C37.0958 46.29 37.1201 46.2999 37.14 46.3195C37.1599 46.3397 37.1698 46.3637 37.1698 46.3925V47.532H38.7525V46.3925C38.7525 46.3637 38.7621 46.3397 38.782 46.3195C38.8017 46.2999 38.8261 46.29 38.8549 46.29H38.8872C38.9161 46.29 38.9404 46.2999 38.9603 46.3195C38.9801 46.3397 38.9901 46.3637 38.9901 46.3925V49.0877C38.9901 49.1167 38.9801 49.1409 38.9603 49.1605C38.9404 49.1807 38.9161 49.1904 38.8872 49.1904H38.8549C38.8261 49.1904 38.8017 49.1807 38.782 49.1605C38.7621 49.1409 38.7525 49.1167 38.7525 49.0877V47.7536H37.1698Z" fill="white"/>
<path d="M41.6526 47.5538C41.6526 47.2227 41.586 46.9596 41.4528 46.7652C41.3196 46.5706 41.0945 46.4739 40.7775 46.4739C40.4608 46.4739 40.2357 46.5706 40.1026 46.7652C39.9691 46.9596 39.9025 47.2227 39.9025 47.5538V47.932C39.9025 48.2633 39.9691 48.5259 40.1026 48.7203C40.2357 48.9149 40.4608 49.012 40.7775 49.012C41.0945 49.012 41.3196 48.9149 41.4528 48.7203C41.586 48.5259 41.6526 48.2633 41.6526 47.932V47.5538ZM41.8901 47.932C41.8901 48.3425 41.7973 48.66 41.6119 48.8852C41.4265 49.1103 41.1486 49.223 40.7775 49.223C40.4067 49.223 40.1285 49.1103 39.9431 48.8852C39.7577 48.66 39.6649 48.3425 39.6649 47.932V47.5538C39.6649 47.1436 39.7577 46.8254 39.9431 46.6006C40.1285 46.3755 40.4067 46.2632 40.7775 46.2632C41.1486 46.2632 41.4265 46.3755 41.6119 46.6006C41.7973 46.8254 41.8901 47.1436 41.8901 47.5538V47.932Z" fill="white"/>
<path d="M44.4126 47.5433C44.4126 47.2029 44.3495 46.9394 44.2237 46.753C44.0972 46.567 43.8814 46.4739 43.5753 46.4739C43.4239 46.4739 43.2952 46.4998 43.1892 46.5517C43.0829 46.6035 42.9948 46.6771 42.9244 46.772C42.8543 46.8667 42.8031 46.9797 42.7704 47.1104C42.7381 47.2413 42.722 47.3873 42.722 47.5486V47.5753H44.4126V47.5433ZM44.6502 47.6944C44.6502 47.7232 44.6402 47.7472 44.6205 47.767C44.6006 47.787 44.5763 47.7971 44.5478 47.7971H42.722V47.9102C42.722 48.1372 42.7471 48.3226 42.7976 48.4667C42.8482 48.6108 42.9183 48.7232 43.0083 48.8041C43.0983 48.8852 43.2017 48.9402 43.3189 48.969C43.4358 48.9979 43.5628 49.012 43.6996 49.012C43.8184 49.012 43.948 49.004 44.0886 48.9876C44.2288 48.9716 44.3655 48.9492 44.4991 48.92C44.5061 48.92 44.5115 48.9195 44.5151 48.9178C44.5186 48.9159 44.5241 48.9149 44.5314 48.9149C44.5528 48.9149 44.5717 48.92 44.5881 48.9314C44.6041 48.9418 44.6124 48.9617 44.6124 48.9904V49.0282C44.6124 49.0572 44.605 49.0796 44.5907 49.0957C44.5763 49.1122 44.5493 49.1237 44.51 49.131C44.3803 49.1596 44.2433 49.1823 44.0991 49.1986C43.9551 49.2146 43.8219 49.223 43.6996 49.223C43.5302 49.223 43.373 49.2018 43.227 49.1605C43.0813 49.1191 42.9523 49.0491 42.8408 48.9498C42.7291 48.8513 42.6417 48.7171 42.5789 48.5474C42.5159 48.3783 42.4845 48.166 42.4845 47.9102V47.5538C42.4845 47.3667 42.5078 47.1946 42.5546 47.038C42.6013 46.8814 42.6705 46.7453 42.7624 46.6304C42.8543 46.5152 42.9676 46.4248 43.1028 46.3602C43.2379 46.2952 43.3954 46.2632 43.5753 46.2632C43.7627 46.2632 43.9237 46.2936 44.0588 46.3551C44.194 46.4158 44.3053 46.5037 44.3937 46.6166C44.4818 46.7303 44.5465 46.8661 44.5881 47.0246C44.6294 47.183 44.6502 47.3575 44.6502 47.5483V47.6944Z" fill="white"/>
<path d="M48.3928 47.5538C48.3928 47.2227 48.3262 46.9596 48.193 46.7652C48.0598 46.5706 47.8347 46.4739 47.518 46.4739C47.201 46.4739 46.9759 46.5706 46.8428 46.7652C46.7095 46.9596 46.643 47.2227 46.643 47.5538V47.932C46.643 48.2633 46.7095 48.5259 46.8428 48.7203C46.9759 48.9149 47.201 49.012 47.518 49.012C47.8347 49.012 48.0598 48.9149 48.193 48.7203C48.3262 48.5259 48.3928 48.2633 48.3928 47.932V47.5538ZM48.6307 47.932C48.6307 48.3425 48.5378 48.66 48.3524 48.8852C48.1667 49.1103 47.8888 49.223 47.518 49.223C47.1469 49.223 46.869 49.1103 46.6837 48.8852C46.4982 48.66 46.4054 48.3425 46.4054 47.932V47.5538C46.4054 47.1436 46.4982 46.8254 46.6837 46.6006C46.869 46.3755 47.1469 46.2632 47.518 46.2632C47.8888 46.2632 48.1667 46.3755 48.3524 46.6006C48.5378 46.8254 48.6307 47.1436 48.6307 47.5538V47.932Z" fill="white"/>
<path d="M51.2123 47.5863C51.2123 47.2548 51.1457 46.9923 51.0125 46.7977C50.8794 46.6033 50.6543 46.506 50.3372 46.506C50.0277 46.506 49.8045 46.5988 49.6674 46.7841C49.5307 46.9699 49.4622 47.2209 49.4622 47.5378V47.9321C49.4622 48.2633 49.5287 48.526 49.6623 48.7204C49.7955 48.915 50.0203 49.012 50.3372 49.012C50.6543 49.012 50.8794 48.915 51.0125 48.7204C51.1457 48.526 51.2123 48.2633 51.2123 47.9321V47.5863ZM51.4499 47.9321C51.4499 48.3426 51.357 48.6601 51.1716 48.8852C50.9863 49.1104 50.708 49.2231 50.3372 49.2231C49.9665 49.2231 49.6882 49.1104 49.5029 48.8852C49.3175 48.6601 49.2246 48.3426 49.2246 47.9321V47.0625C49.2246 46.8283 49.247 46.6296 49.2921 46.4656C49.337 46.302 49.4055 46.166 49.4974 46.0578C49.5893 45.9499 49.7046 45.8643 49.8432 45.8012C49.9816 45.7382 50.1448 45.6873 50.3322 45.6475L50.683 45.5771C50.773 45.5589 50.8486 45.5387 50.9098 45.5149C50.9709 45.4915 51.0205 45.4663 51.0583 45.4394C51.0961 45.4123 51.124 45.3843 51.1418 45.3558C51.1601 45.3271 51.1726 45.2963 51.18 45.2637C51.187 45.2387 51.1969 45.2179 51.2095 45.2019C51.2222 45.1855 51.2466 45.1775 51.2824 45.1775H51.342C51.3778 45.1775 51.3987 45.1874 51.4041 45.2073C51.4092 45.2268 51.4086 45.2585 51.4012 45.3017C51.3724 45.4279 51.3032 45.5286 51.1934 45.604C51.0836 45.6795 50.9335 45.7376 50.7423 45.7768L50.375 45.8525C50.2419 45.8812 50.125 45.9158 50.0241 45.9552C49.9233 45.995 49.8368 46.0453 49.7647 46.1064C49.6928 46.1678 49.6341 46.2425 49.5893 46.3305C49.5442 46.4188 49.5109 46.5262 49.4895 46.652C49.6838 46.4141 49.9665 46.2953 50.3372 46.2953C50.708 46.2953 50.9863 46.4079 51.1716 46.633C51.357 46.8582 51.4499 47.1758 51.4499 47.5863V47.9321Z" fill="white"/>
<path d="M53.2218 46.5438C53.2145 46.5153 53.2019 46.4903 53.1837 46.4681C53.1657 46.4467 53.137 46.4358 53.0972 46.4358C53.0575 46.4358 53.0288 46.4457 53.0108 46.4656C52.9928 46.4855 52.9804 46.5098 52.973 46.5386L52.1953 49.1202C52.1882 49.1385 52.1764 49.1545 52.1604 49.1689C52.144 49.1833 52.1268 49.1905 52.1088 49.1905H52.0387C51.9846 49.1905 51.9577 49.1615 51.9577 49.1043C51.9577 49.0825 51.9596 49.0661 51.9631 49.0552L52.7463 46.4845C52.7713 46.4016 52.8138 46.3369 52.8731 46.2901C52.9327 46.2434 53.0073 46.22 53.0972 46.22C53.1837 46.22 53.2567 46.2425 53.3159 46.2872C53.3755 46.3324 53.4178 46.3964 53.4431 46.4791L54.2262 49.0552C54.2333 49.077 54.2368 49.095 54.2368 49.1093C54.2368 49.1635 54.2083 49.1905 54.1507 49.1905H54.0857C54.0424 49.1905 54.0136 49.1671 53.9992 49.1202L53.2218 46.5438Z" fill="white"/>
<path d="M56.4675 47.6621H56.0516C55.8464 47.6621 55.6745 47.6726 55.5358 47.6944C55.3972 47.7159 55.2848 47.751 55.1984 47.7994C55.1119 47.8484 55.0498 47.9121 55.012 47.9912C54.9742 48.0706 54.9553 48.1679 54.9553 48.283V48.3534C54.9553 48.4792 54.9704 48.5848 55.0011 48.6691C55.0318 48.7538 55.0741 48.8214 55.1282 48.8716C55.1823 48.9219 55.2441 48.9582 55.3145 48.9799C55.3847 49.0013 55.4612 49.012 55.5438 49.012C55.6953 49.012 55.8419 48.9904 55.9841 48.9473C56.1266 48.9044 56.2876 48.8339 56.4675 48.7366V47.6621ZM56.7052 49.0824C56.7052 49.1112 56.6945 49.1366 56.6728 49.1584C56.6513 49.1797 56.626 49.1904 56.5975 49.1904H56.5703C56.5415 49.1904 56.5162 49.1797 56.4948 49.1584C56.473 49.1366 56.4624 49.1112 56.4624 49.0824V48.9473C56.3289 49.0194 56.1848 49.0834 56.0302 49.139C55.8755 49.1951 55.7131 49.223 55.5438 49.223C55.4433 49.223 55.3434 49.2092 55.2441 49.1823C55.1452 49.1554 55.0569 49.1083 54.9796 49.0417C54.9022 48.9751 54.8391 48.8862 54.7904 48.7743C54.7421 48.6629 54.7178 48.5223 54.7178 48.3534V48.283C54.7178 48.1427 54.7411 48.0209 54.7878 47.9182C54.8346 47.8158 54.9102 47.7296 55.0148 47.6592C55.1192 47.5887 55.2566 47.5369 55.4279 47.5026C55.5989 47.4683 55.807 47.4511 56.0516 47.4511H56.4675V47.2567C56.4675 47.1164 56.4569 46.9967 56.4352 46.8978C56.4137 46.7985 56.3766 46.7175 56.3244 46.6544C56.2722 46.5917 56.2021 46.5455 56.1138 46.517C56.0257 46.4883 55.9168 46.4739 55.7871 46.4739C55.6969 46.4739 55.6188 46.4746 55.5521 46.4764C55.4855 46.478 55.4234 46.4819 55.3658 46.4873C55.3082 46.4924 55.2524 46.4979 55.1984 46.5037C55.1443 46.5088 55.085 46.5152 55.0203 46.5222H54.9985C54.9733 46.5222 54.9498 46.516 54.9284 46.5037C54.9066 46.4905 54.8961 46.47 54.8961 46.4412V46.4089C54.8961 46.3551 54.9371 46.3224 55.0203 46.3116C55.0776 46.3045 55.1327 46.298 55.1849 46.2927C55.2371 46.2871 55.2927 46.2818 55.3524 46.2767C55.4116 46.2712 55.4765 46.2673 55.5467 46.2655C55.6168 46.2638 55.6969 46.2632 55.7871 46.2632C55.9706 46.2632 56.1211 46.2871 56.2379 46.3358C56.3552 46.3845 56.4487 46.4528 56.5187 46.5411C56.5892 46.6295 56.6375 46.7348 56.6648 46.8571C56.6916 46.9797 56.7052 47.1129 56.7052 47.2567V49.0824Z" fill="white"/>
<path d="M59.2707 49.1366C59.2707 49.1938 59.2364 49.223 59.1679 49.223C59.1356 49.223 59.1077 49.2191 59.0843 49.2117C59.061 49.2047 59.0347 49.1867 59.0059 49.1584L57.6989 47.759V49.0877C57.6989 49.1167 57.6889 49.1409 57.6694 49.1605C57.6495 49.1807 57.6249 49.1904 57.5964 49.1904H57.5641C57.535 49.1904 57.511 49.1807 57.4911 49.1605C57.4712 49.1409 57.4613 49.1167 57.4613 49.0877V46.3925C57.4613 46.3637 57.4712 46.3397 57.4911 46.3195C57.511 46.2999 57.535 46.29 57.5641 46.29H57.5964C57.6249 46.29 57.6495 46.2999 57.6694 46.3195C57.6889 46.3397 57.6989 46.3637 57.6989 46.3925V47.5538L59.0277 46.3116C59.0635 46.2792 59.1067 46.2632 59.1573 46.2632C59.1897 46.2632 59.2159 46.2731 59.2355 46.2927C59.2553 46.3125 59.2653 46.335 59.2653 46.3602C59.2653 46.3925 59.2525 46.4197 59.2274 46.4412L57.9041 47.6508L59.2329 49.0552C59.2582 49.0877 59.2707 49.1147 59.2707 49.1366Z" fill="white"/>
<path d="M61.5333 47.5538C61.5333 47.2227 61.4668 46.9596 61.3339 46.7652C61.2004 46.5706 60.9756 46.4739 60.6587 46.4739C60.3417 46.4739 60.1169 46.5706 59.9837 46.7652C59.8502 46.9596 59.7836 47.2227 59.7836 47.5538V47.932C59.7836 48.2633 59.8502 48.5259 59.9837 48.7203C60.1169 48.9149 60.3417 49.012 60.6587 49.012C60.9756 49.012 61.2004 48.9149 61.3339 48.7203C61.4668 48.5259 61.5333 48.2633 61.5333 47.932V47.5538ZM61.7713 47.932C61.7713 48.3425 61.6784 48.66 61.493 48.8852C61.3076 49.1103 61.0294 49.223 60.6587 49.223C60.2878 49.223 60.0097 49.1103 59.8242 48.8852C59.6389 48.66 59.546 48.3425 59.546 47.932V47.5538C59.546 47.1436 59.6389 46.8254 59.8242 46.6006C60.0097 46.3755 60.2878 46.2632 60.6587 46.2632C61.0294 46.2632 61.3076 46.3755 61.493 46.6006C61.6784 46.8254 61.7713 47.1436 61.7713 47.5538V47.932Z" fill="white"/>
<path d="M160.223 37.7294C159.419 35.469 158.066 33.4687 156.325 31.8893C156.459 30.767 156.53 29.6249 156.53 28.4662C156.53 12.7446 143.785 0 128.064 0C117.225 0 107.802 6.05791 102.994 14.9715C99.3556 12.5448 94.9855 11.1292 90.2839 11.1292C77.6171 11.1292 67.3486 21.3975 67.3486 34.0646C67.3486 46.7311 77.6171 57 90.2839 57C90.8788 57 91.4686 56.977 92.052 56.9328H145.641V56.896C145.98 56.9196 146.322 56.9328 146.667 56.9328C154.61 56.9328 161.051 50.4926 161.051 42.5486C161.051 40.8583 160.759 39.2363 160.223 37.7294Z" fill="white"/>
<path d="M81.4988 42.5554C80.3041 42.5554 79.181 42.3364 78.1301 41.8978C77.0787 41.4591 76.1639 40.8582 75.3849 40.0943C74.6059 39.3305 73.9898 38.4267 73.5358 37.3828C73.0821 36.3393 72.8554 35.213 72.8554 34.0028C72.8554 32.8081 73.0782 31.6965 73.5246 30.6679C73.9706 29.6394 74.5796 28.7433 75.351 27.9794C76.1222 27.2159 77.0297 26.6181 78.0734 26.1872C79.1169 25.7562 80.236 25.5405 81.4312 25.5405C82.9431 25.5405 84.3235 25.8694 85.5711 26.5275C86.8193 27.1854 87.8512 28.1346 88.668 29.3746C88.9251 29.7982 89.1521 30.2366 89.3487 30.6904C89.545 31.144 89.6811 31.6131 89.7569 32.0969H85.3785C85.0457 31.2501 84.5312 30.558 83.8358 30.0212C83.1397 29.4843 82.3386 29.2158 81.4312 29.2158C80.7652 29.2158 80.1604 29.3484 79.6161 29.6129C79.0714 29.8776 78.6065 30.2291 78.2207 30.6679C77.8353 31.1065 77.54 31.6131 77.3357 32.1878C77.1318 32.7626 77.0297 33.3675 77.0297 34.0028C77.0297 34.638 77.1318 35.2466 77.3357 35.8291C77.54 36.4114 77.8353 36.9292 78.2207 37.3828C78.6065 37.8366 79.0714 38.1996 79.6161 38.4722C80.1604 38.744 80.7652 38.8804 81.4312 38.8804C82.3684 38.8804 83.1698 38.6233 83.8358 38.1091C84.5011 37.5948 85.0157 36.9292 85.3785 36.1123H89.7569C89.5149 37.0806 89.1329 37.9614 88.611 38.7554C88.0894 39.5495 87.4654 40.2265 86.7399 40.7861C86.0137 41.3458 85.2046 41.7806 84.3122 42.0903C83.4196 42.4004 82.482 42.5554 81.4988 42.5554Z" fill="#0059F7"/>
<path d="M90.9141 25.5405H95.2472V38.7216H100.306V42.5554H90.9141V25.5405Z" fill="#0059F7"/>
<path d="M109.902 29.1933C109.236 29.1933 108.628 29.3217 108.076 29.5787C107.524 29.8361 107.055 30.1838 106.67 30.6224C106.284 31.0612 105.985 31.5678 105.773 32.1425C105.561 32.7175 105.456 33.33 105.456 33.98C105.456 34.6456 105.561 35.2729 105.773 35.8629C105.985 36.4528 106.287 36.9669 106.681 37.4056C107.074 37.8446 107.551 38.1962 108.11 38.4603C108.67 38.7257 109.29 38.8576 109.97 38.8576C110.621 38.8576 111.218 38.7257 111.763 38.4603C112.307 38.1962 112.772 37.8407 113.158 37.394C113.544 36.9484 113.842 36.4339 114.054 35.8518C114.266 35.2696 114.372 34.6687 114.372 34.0479C114.372 33.4129 114.266 32.8039 114.054 32.2219C113.842 31.6398 113.54 31.1215 113.147 30.6679C112.753 30.2141 112.28 29.8549 111.729 29.59C111.176 29.3258 110.568 29.1933 109.902 29.1933ZM109.88 42.5554C108.715 42.5554 107.611 42.3438 106.567 41.9202C105.524 41.4971 104.609 40.9107 103.823 40.1621C103.036 39.4135 102.412 38.5285 101.951 37.5078C101.489 36.4867 101.259 35.3865 101.259 34.2066C101.259 32.9816 101.478 31.8172 101.917 30.7132C102.158 30.0777 102.514 29.473 102.983 28.8981C103.83 27.779 104.839 26.9396 106.012 26.3799C107.183 25.8206 108.481 25.5405 109.902 25.5405C111.097 25.5405 112.22 25.7562 113.271 26.1872C114.323 26.6181 115.241 27.2159 116.028 27.9794C116.814 28.7433 117.434 29.6432 117.888 30.6791C118.342 31.7153 118.569 32.8382 118.569 34.0479C118.569 35.2581 118.342 36.381 117.888 37.4171C117.434 38.4533 116.814 39.3529 116.028 40.1166C115.241 40.8805 114.318 41.4776 113.26 41.909C112.201 42.3403 111.075 42.5554 109.88 42.5554Z" fill="#0059F7"/>
<path d="M134.971 25.5405V42.5554H126.01C125.117 42.5256 124.24 42.3781 123.378 42.1132C122.516 41.8485 121.782 41.3912 121.177 40.7404C120.8 40.3324 120.497 39.9315 120.27 39.5383C120.043 39.1452 119.873 38.7405 119.76 38.3244C119.646 37.9087 119.57 37.4703 119.533 37.0086C119.495 36.5474 119.476 36.0522 119.476 35.5228V25.5405H123.809V35.5228C123.809 35.9008 123.832 36.2827 123.878 36.6685C123.923 37.0541 124.021 37.3982 124.172 37.7005C124.323 38.0034 124.547 38.2528 124.842 38.449C125.137 38.6457 125.526 38.744 126.01 38.744H131.16V25.5405H134.971Z" fill="#0059F7"/>
<path d="M142.276 29.3521H140.371V38.744H142.231C142.972 38.744 143.607 38.6309 144.137 38.4039C144.666 38.1769 145.101 37.8561 145.441 37.4396C145.781 37.024 146.027 36.5285 146.178 35.9536C146.329 35.3788 146.405 34.7439 146.405 34.0479C146.405 33.3675 146.326 32.7437 146.167 32.1763C146.008 31.6094 145.759 31.114 145.418 30.6904C145.078 30.2672 144.651 29.9383 144.137 29.7035C143.622 29.4693 143.002 29.3521 142.276 29.3521ZM141.981 42.5554H136.037V25.5405H141.664C142.435 25.5405 143.169 25.5823 143.864 25.6652C144.56 25.7486 145.222 25.9035 145.85 26.1304C146.477 26.3573 147.067 26.6788 147.619 27.0945C148.171 27.5107 148.689 28.0513 149.173 28.7167C149.732 29.4881 150.133 30.3239 150.376 31.2234C150.617 32.1236 150.738 33.0499 150.738 34.0028C150.738 35.3942 150.546 36.6228 150.16 37.6892C149.774 38.7554 149.207 39.6478 148.458 40.3664C147.71 41.0848 146.791 41.6295 145.702 41.9996C144.613 42.3704 143.373 42.5554 141.981 42.5554Z" fill="#0059F7"/>
</svg>
